<svg width="252" height="42" viewBox="0 0 252 42" fill="none" xmlns="http://www.w3.org/2000/svg">
<path d="M49.3867 21.255V20.755V7.17733V6.67733H49.8867H59.8881C60.6841 6.67733 61.4641 6.85606 62.2213 7.21502C62.9943 7.57698 63.6834 8.09794 64.2445 8.74418L64.2468 8.74683C65.4857 10.1941 66.1578 12.0473 66.1379 13.9582C66.1379 13.9592 66.1379 13.9601 66.1379 13.9611L65.6379 13.9557C65.6379 14.8983 65.4969 15.792 65.2218 16.6157L49.3867 21.255ZM49.3867 21.255H49.8867H60.2488C61.0757 21.255 61.8699 21.0707 62.6031 20.6625L49.3867 21.255ZM7.5247 24.6073V41.4997L0.5 41.4956V0.5H27.2431V6.675H8.02239H7.52239V7.175V17.9713V18.4713H8.02239H23.9163V24.1073H8.0247H7.5247V24.6073ZM65.8766 26.4754L75.3854 41.5H67.2216L58.454 27.6624L58.3068 27.43H58.0317H49.8844H49.3844V27.93V41.5H42.1147V0.5H60.4199C62.306 0.5 64.045 0.894993 65.6327 1.67389L65.6327 1.67394L65.6394 1.67712C67.2011 2.4146 68.602 3.45869 69.7602 4.74871L69.762 4.75069C70.917 6.02332 71.8403 7.49204 72.4894 9.08923C73.1418 10.7132 73.4608 12.3297 73.4608 13.951C73.4608 16.6002 72.8044 18.9734 71.468 21.1054L71.4679 21.1054L71.4627 21.1141C70.2145 23.1977 68.3371 24.8211 66.1075 25.7462L65.5591 25.9737L65.8766 26.4754ZM148.537 12.9485L148.538 12.9516C149.355 15.4471 149.775 18.1011 149.775 20.9253C149.775 24.0743 149.32 26.9191 148.391 29.437L148.388 29.4467C147.558 31.8461 146.232 34.0391 144.497 35.8797C142.779 37.6905 140.693 39.1033 138.383 40.0209L138.376 40.024C135.996 41.0142 133.303 41.5 130.309 41.5H116.096V0.5H130.307C133.568 0.5 136.389 1.04788 138.805 2.10025C141.238 3.18128 143.261 4.64928 144.881 6.48158C146.528 8.36005 147.772 10.5616 148.537 12.9485ZM139.589 10.6766L139.586 10.6733L135.407 8.162L135.607 7.70376C135.607 7.70365 135.607 7.70355 135.607 7.70345C134.027 7.01427 132.259 6.675 130.307 6.675H123.464H122.964V7.175V34.8273V35.3273H123.464H130.307C132.302 35.3273 134.113 34.9845 135.696 34.2147C137.268 33.482 138.557 32.4554 139.624 31.1652L139.628 31.1596C140.711 29.8104 141.522 28.2609 142.016 26.5983C142.582 24.829 142.831 22.9672 142.831 20.9253C142.831 18.9041 142.58 16.9788 142.016 15.2332C141.519 13.5656 140.693 12.0159 139.589 10.6766ZM189.246 31.3385L189.126 31.0093H188.776H174.192H173.842L173.722 31.3385L170.027 41.5H162.567L178.557 0.5H184.45L200.406 41.5H192.941L189.246 31.3385ZM181.98 8.65585L181.514 7.29245L181.035 8.65166L175.059 25.6313L174.825 26.2973H175.531H187.315H188.014L187.788 25.6355L181.98 8.65585ZM220.79 26.9633L206.597 0.5H213.981L223.759 20.4454L224.204 21.3521L224.656 20.449L234.632 0.5H241.917L227.672 27.0825L227.613 27.1931V27.3187V41.5H220.85V27.1997V27.074L220.79 26.9633ZM90.6651 41.5V0.5H96.6009V41.5H90.6651ZM251.5 37.3163C251.498 38.4268 251.06 39.4905 250.284 40.2744C249.507 41.0582 248.455 41.4983 247.359 41.5C245.087 41.4996 243.252 39.6324 243.252 37.317C243.252 35.0125 245.084 33.1667 247.36 33.1667C249.636 33.1667 251.5 35.0169 251.5 37.3163Z" fill="#111111" stroke="#2D1940"/>
</svg>
