<svg width="252" height="68" viewBox="0 0 252 68" fill="none" xmlns="http://www.w3.org/2000/svg">
<path d="M48.0985 8.22573C49.4835 9.38568 50.1206 11.2026 50.1206 13.5458C50.1206 16.0911 49.2904 19.6102 47.6826 24.0595L47.6799 24.0669L47.6799 24.0668L37.0309 52.1561L36.5771 53.3531L36.0995 52.1654L20.8421 14.2273L48.0985 8.22573ZM48.0985 8.22573C46.8468 7.16214 45.0719 6.59577 42.8516 6.45322V5.75953C46.5419 5.90332 49.9758 5.97988 53.1597 5.97991C55.1927 5.99567 57.2254 5.92658 59.2526 5.77282V6.58896C57.8258 7.21353 56.4474 8.31003 55.1103 9.84548C53.6477 11.5189 52.3799 13.8632 51.2976 16.8481C51.2972 16.8492 51.2968 16.8502 51.2964 16.8512L33.1766 64.8616C32.5185 64.8247 31.6137 64.8068 30.4712 64.8068C29.3722 64.8068 28.508 64.8246 27.8822 64.8612L5.9142 12.1582C5.16955 10.2497 4.2729 8.80878 3.22511 7.89611L3.22511 7.8961L3.22302 7.8943C2.34313 7.1364 1.43241 6.65071 0.5 6.48387V5.76006C3.89566 5.90948 8.12081 5.98514 13.1871 5.98514C18.7281 5.98514 22.9437 5.91107 25.8327 5.76436V6.4483C23.8867 6.54986 22.4128 6.80037 21.4594 7.23494L21.4586 7.23533C20.9022 7.49018 20.4641 7.86087 20.17 8.35673C19.8781 8.84886 19.7483 9.42965 19.7483 10.0751C19.7483 11.0611 20.1263 12.4547 20.8418 14.2266L48.0985 8.22573ZM131.679 24.8704C131.141 23.7065 130.297 22.7702 129.154 22.0327L131.679 24.8704ZM131.679 24.8704C132.23 26.0316 132.495 27.2713 132.495 28.6156C132.495 30.687 131.897 32.3765 130.7 33.6894L131.679 24.8704ZM87.6459 59.6997L87.6458 59.6998C84.0724 63.1325 79.13 64.8853 72.7579 64.8853C66.3936 64.8853 61.448 63.1378 57.8535 59.7016C54.2979 56.2877 52.4588 50.8192 52.4588 43.1911C52.4588 35.563 54.2953 30.0803 57.855 26.64C61.4415 23.1814 66.394 21.4238 72.7579 21.4238C79.1304 21.4238 84.072 23.1714 87.645 26.619C91.1912 30.0431 93.0258 35.533 93.0258 43.1911C93.0258 50.8233 91.1989 56.2889 87.6459 59.6997ZM66.4809 27.4208L66.4411 27.5146V27.518C64.9805 31.0129 64.2588 36.2545 64.2588 43.1911C64.2588 50.1657 64.9855 55.4199 66.4817 58.8899C67.9644 62.3408 70.0446 64.2507 72.7605 64.2507C75.5108 64.2507 77.5866 62.3489 79.0397 58.9045C80.5123 55.4552 81.2153 50.1927 81.2153 43.1911C81.2153 36.1608 80.5123 30.8841 79.0408 27.3992C77.5837 23.9328 75.5137 22.0139 72.7605 22.0139C70.0422 22.0139 67.9602 23.9426 66.4809 27.4208ZM118.412 23.5527L118.413 23.5521C120.289 22.1457 122.571 21.3982 124.909 21.4238H124.914C126.527 21.4238 127.843 21.7762 128.881 22.4518L128.883 22.4528C129.954 23.1442 130.731 24.0106 131.225 25.0801L131.227 25.0846C131.744 26.1741 131.995 27.3399 131.995 28.6156C131.995 30.5844 131.43 32.1468 130.33 33.3525L130.33 33.353C129.246 34.5444 127.809 35.151 125.971 35.151C124.149 35.151 122.777 34.6898 121.791 33.826C120.808 32.9648 120.304 31.801 120.304 30.2973C120.304 27.812 121.431 25.7737 123.761 24.1651L124.692 23.5228L123.591 23.2666C123.22 23.1804 122.842 23.134 122.462 23.1281V23.1281H122.454C122.022 23.1281 121.554 23.2034 121.045 23.3397C119.53 23.582 118.148 24.3156 116.927 25.5032L116.927 25.504C115.698 26.7045 114.723 28.1425 114.06 29.7315C113.393 31.2463 113.039 32.882 113.02 34.539V34.5447V56.7598C113.02 59.4065 113.654 61.3906 115.087 62.5257C116.385 63.5585 118.354 64.0623 120.899 64.1196V64.8701C114.232 64.671 109.956 64.5662 108.087 64.5662C106.35 64.5662 102.535 64.6704 96.6237 64.8682V64.1166C97.7659 64.0765 98.7372 63.895 99.4922 63.5521L99.4942 63.5511C100.403 63.1332 101.042 62.4185 101.422 61.4328C101.792 60.4801 101.97 59.1943 101.97 57.6176V31.2022C101.97 28.586 101.573 26.5762 100.701 25.2975L100.7 25.2961C99.8508 24.0591 98.4567 23.4446 96.6263 23.3522V22.6181C98.1844 22.7486 99.7473 22.8152 101.311 22.8178H101.312C105.951 22.8178 109.859 22.4805 113.022 21.8002V28.9425L113.978 29.1473C115.01 26.8495 116.49 24.9879 118.412 23.5527Z" fill="#1E212C" stroke="#2D1940"/>
<path d="M130.397 2.2596V1.50466C131.931 1.64249 133.449 1.70569 134.958 1.70569C139.444 1.70569 143.251 1.35114 146.354 0.635599V29.5277L147.209 29.7004C146.837 30.5164 146.555 31.4115 146.361 32.3824L146.351 32.4309V32.4805V63.7526V63.9829L146.526 64.1326C148.392 65.7287 150.528 66.5385 152.902 66.5385C154.49 66.5385 155.896 66.0576 157.098 65.0929C158.293 64.1346 159.26 62.7197 160.021 60.8873C161.539 57.2324 162.279 51.8081 162.279 44.6603C162.279 37.6721 161.665 32.5713 160.39 29.441C159.752 27.8758 158.953 26.6591 157.973 25.8311C156.984 24.9952 155.831 24.5737 154.533 24.5737C152.617 24.5737 150.889 25.2948 149.358 26.701L149.357 26.7013C148.871 27.1485 148.44 27.6449 148.063 28.189C149.082 26.3811 150.415 24.9614 152.059 23.9129L152.205 23.8196C154.259 22.5523 156.632 21.9148 159.347 21.9148C162.11 21.9148 164.543 22.6991 166.672 24.2673C168.785 25.8341 170.476 28.2122 171.709 31.445L171.709 31.4451C172.941 34.6746 173.562 38.6691 173.562 43.4546C173.562 49.0701 172.736 53.6383 171.126 57.188C169.506 60.7426 167.334 63.3042 164.644 64.9103C161.921 66.5242 158.857 67.3352 155.404 67.3352C151.725 67.3352 148.821 66.3625 146.617 64.4595L146.493 64.353L146.331 64.3397C145.894 64.3039 145.457 64.2885 145.019 64.2935C145.018 64.2935 145.017 64.2936 145.016 64.2936L145.022 64.7935L130.397 2.2596ZM130.397 2.2596C132.167 2.35702 133.529 2.9865 134.356 4.23547L134.357 4.23676C135.214 5.53907 135.608 7.56803 135.608 10.2262V62.4658C135.608 64.0781 135.451 65.5893 135.122 66.9798L130.397 2.2596ZM222.954 37.3949L222.955 37.3972C223.793 38.8993 224.859 40.2593 226.116 41.4274C227.961 43.0861 229.856 44.6879 231.798 46.2307C233.895 47.8472 235.462 49.1379 236.512 50.068C237.585 51.0146 238.493 52.134 239.2 53.3803C239.931 54.6588 240.29 56.1034 240.29 57.6928C240.29 59.7277 239.694 61.3512 238.409 62.4367C238.408 62.4369 238.408 62.4371 238.408 62.4373L238.085 62.0552C236.945 63.0282 235.581 63.512 233.981 63.512C230.72 63.512 228.206 62.1834 226.426 59.5314L222.954 37.3949ZM222.954 37.3949C222.088 35.8603 221.65 34.1338 221.65 32.1614C221.65 29.9236 222.265 28.01 223.471 26.4075L223.472 26.4072C224.689 24.7876 226.335 23.5534 228.424 22.6998C230.608 21.8326 232.939 21.399 235.288 21.4231H235.293C237.331 21.4231 239.195 21.6719 240.878 22.1665L240.88 22.1672C242.591 22.6607 243.893 23.2281 244.822 23.8502C245.406 24.2514 245.982 24.4857 246.544 24.4857C247.253 24.4857 247.814 24.1239 248.209 23.5107C248.532 23.0081 248.754 22.3278 248.896 21.5015H249.736C249.548 24.2528 249.465 28.7049 249.461 34.8443H248.591C248.075 31.4112 246.995 28.4834 245.335 26.0771C243.571 23.4968 240.98 22.212 237.659 22.212C235.93 22.212 234.468 22.7064 233.315 23.7231L233.311 23.7266C232.155 24.7674 231.587 26.1929 231.587 27.9245C231.587 29.881 232.246 31.5857 233.567 33.0036M222.954 37.3949L226.163 60.0314H226.156L226.007 59.8085C224.23 57.1398 223.075 53.5248 222.499 48.9892H221.639C221.635 56.0598 221.54 61.1616 221.357 64.2831H222.227C222.421 63.4728 222.669 62.8117 222.987 62.3269C223.365 61.7512 223.88 61.3748 224.542 61.3748H224.55V61.3748C224.743 61.3779 224.935 61.4122 225.117 61.4765L225.126 61.4796L225.125 61.4797C226.461 61.9791 227.764 62.5615 229.027 63.2234L229.029 63.2244C231.109 64.3252 233.561 64.8846 236.41 64.8846C239.174 64.8846 241.715 64.396 244.028 63.4252C246.329 62.4558 248.149 61.0885 249.493 59.3348C250.828 57.5911 251.5 55.5905 251.5 53.3094C251.5 51.333 251.092 49.5987 250.312 48.0902C249.502 46.5573 248.445 45.1705 247.184 43.9865L247.183 43.9857C245.88 42.7564 244.11 41.3071 241.88 39.6361L241.876 39.6335C241.09 39.0331 239.829 38.1252 238.088 36.8986L238.088 36.8979C236.333 35.6556 234.824 34.365 233.567 33.0036M233.567 33.0036C233.567 33.0033 233.567 33.003 233.567 33.0027L233.934 32.6635L233.568 33.0045C233.568 33.0042 233.568 33.0039 233.567 33.0036ZM193.028 52.0126L193.029 52.0138C194.095 54.4502 195.499 56.2788 197.246 57.4468L197.247 57.4477C198.987 58.6027 200.844 59.1814 202.842 59.1814C207.534 59.1814 211.316 57.0084 214.16 52.7395L214.789 52.9442C214.103 54.9345 213.085 56.8143 211.733 58.5517C210.244 60.4509 208.372 62.0094 206.24 63.1238L206.238 63.1244C204.032 64.2858 201.51 64.8846 198.659 64.8846C194.864 64.8846 191.572 64.102 188.742 62.5505C185.934 61.0082 183.724 58.6653 182.142 55.4949L182.142 55.4945C180.56 52.3322 179.758 48.371 179.758 43.588C179.758 38.7065 180.616 34.6272 182.331 31.3275L182.331 31.3261C184.038 28.0167 186.384 25.5465 189.383 23.9093L189.384 23.9085C192.389 22.2549 195.865 21.4231 199.839 21.4231C205.006 21.4231 208.796 22.8995 211.305 25.7736C213.754 28.5794 215.055 32.7975 215.126 38.5111H192.045H191.586L191.547 38.9683C191.477 39.7772 191.436 41.0679 191.436 42.8295C191.436 46.4904 191.961 49.5556 193.028 52.0126ZM204.225 26.7689V26.7661L204.198 26.6871C203.7 25.2366 203.055 24.0999 202.242 23.3211C201.417 22.5313 200.434 22.1257 199.316 22.1257C197.072 22.1257 195.284 23.4972 193.897 25.9919L193.896 25.9933C192.516 28.4936 191.693 32.3217 191.392 37.4151L191.361 37.9445H191.892H205.055H205.545L205.555 37.4546C205.641 33.213 205.203 29.6457 204.225 26.7689Z" fill="#1E212C" stroke="#2D1940"/>
</svg>
