<svg width="252" height="97" viewBox="0 0 252 97" fill="none" xmlns="http://www.w3.org/2000/svg">
<path d="M41.1826 0V11.0544H11.0783V37.1724H41.1858V48.2268H11.0783V85.4477H0V0H41.1826ZM50.4872 85.9973C54.4837 85.5544 56.4868 84.3225 56.4868 82.2597V30.5023H67.5489V82.153C67.5489 91.1576 61.866 96.1012 50.4872 97V85.9973ZM67.5005 10.1556C69.0286 11.6525 69.7943 13.4825 69.7943 15.652C69.7943 17.828 69.0286 19.6548 67.5005 21.1485C66.7793 21.8739 65.9197 22.4467 64.9728 22.8327C64.0259 23.2188 63.0111 23.4102 61.9888 23.3956C60.9749 23.4082 59.9689 23.2156 59.0312 22.8295C58.0935 22.4433 57.2434 21.8716 56.532 21.1485C55.7868 20.4435 55.1972 19.5903 54.801 18.6437C54.4049 17.6971 54.2109 16.6781 54.2317 15.652C54.2317 13.4825 54.9974 11.6525 56.532 10.1556C57.244 9.43327 58.0942 8.86202 59.0317 8.47594C59.9693 8.08985 60.975 7.89685 61.9888 7.90847C63.0117 7.8894 64.0279 8.07878 64.9754 8.46508C65.9229 8.85138 66.782 9.42654 67.5005 10.1556ZM113.119 26.0113C121.519 26.0113 128.698 28.9794 134.646 34.9221C140.577 40.8809 143.537 48.0425 143.537 56.4489C143.537 64.8617 140.577 72.0395 134.646 77.9757C128.698 83.9248 121.522 86.8994 113.119 86.8994C104.729 86.8994 97.566 83.9248 91.602 77.9757C85.6542 72.0395 82.6818 64.852 82.6818 56.4489C82.6818 48.0393 85.6542 40.8841 91.602 34.9221C97.5692 28.9794 104.735 26.0113 113.119 26.0113ZM99.6143 42.989C95.8892 46.7266 94.0154 51.2143 94.0154 56.4489C94.0154 61.7158 95.8892 66.2068 99.6143 69.9056C103.33 73.6108 107.84 75.4699 113.119 75.4699C118.385 75.4699 122.905 73.6205 126.614 69.9056C130.342 66.2035 132.206 61.7158 132.206 56.4489C132.206 51.2143 130.349 46.7266 126.614 42.989C122.908 39.2578 118.388 37.389 113.119 37.389C107.84 37.3826 103.326 39.2611 99.6143 42.989ZM167.46 37.9225C171.57 32.3323 176.665 29.3997 182.687 29.112V40.5996C178.658 40.8065 175.447 42.116 173.056 44.4956C169.473 48.0457 167.593 52.2813 167.454 57.2022V85.4542H156.379V30.5023H167.454V37.9225H167.46ZM240.876 34.2851V0H252V85.4542H240.876V78.6224C235.533 84.1415 229.31 86.9059 222.212 86.9059C213.799 86.9059 206.64 83.9313 200.699 77.9822C194.76 72.046 191.785 64.852 191.785 56.4554C191.785 48.0425 194.76 40.8938 200.699 34.9382C206.646 28.9923 213.809 26.021 222.212 26.021C229.31 26.0113 235.523 28.766 240.876 34.2851ZM240.876 60.5648V52.388C240.234 48.9543 238.512 45.8083 235.694 42.989C231.982 39.2578 227.511 37.389 222.212 37.389C216.936 37.389 212.436 39.2514 208.714 42.989C204.999 46.7233 203.128 51.2111 203.128 56.4489C203.128 61.7158 204.979 66.2068 208.714 69.9056C212.43 73.6108 216.936 75.4699 222.212 75.4699C227.511 75.4699 231.985 73.6205 235.694 69.9056C238.495 67.1218 240.23 63.9758 240.876 60.5648Z" fill="#2D1940"/>
</svg>
