<svg width="252" height="52" viewBox="0 0 252 52" fill="none" xmlns="http://www.w3.org/2000/svg">
<path d="M29.7135 49.5158V48.1093C30.8005 48.1093 31.6578 48.0103 32.3026 47.8196C32.945 47.6191 33.4391 47.2749 33.7924 46.7301C34.1383 46.1928 34.373 45.4574 34.4841 44.5289C34.6003 43.583 34.6571 42.3746 34.6571 40.8964V7.84744L21.2543 49.5158H20.439L7.07075 7.84744V40.8889C7.07075 42.4068 7.12511 43.635 7.24616 44.5784C7.35487 45.5094 7.57969 46.2572 7.92063 46.7797C8.25497 47.3131 8.78286 47.6957 9.39308 47.8469C10.0305 48.0252 10.9026 48.1192 11.9798 48.1192V49.5232H0.00247039V48.1192C1.08952 48.1192 1.93939 48.0202 2.57186 47.8271C3.20432 47.629 3.69349 47.2823 4.02949 46.74C4.36549 46.2077 4.58784 45.4648 4.68913 44.5412C4.79289 43.5879 4.84231 42.387 4.84231 40.9038V8.52095C4.84231 7.19622 4.76819 6.07205 4.61748 5.15588C4.47419 4.23476 4.21725 3.49192 3.86149 2.92737C3.51183 2.37079 2.9956 1.9392 2.38657 1.69425C1.76398 1.43426 0.970932 1.30302 0 1.30302V0.000578579H9.75132L22.3018 38.7075L34.6546 0.000578579H44.4726V1.30302C43.3856 1.30302 42.5209 1.40207 41.8662 1.59273C41.2514 1.7568 40.7194 2.14427 40.374 2.67975C40.038 3.21212 39.8156 3.94753 39.7168 4.87856C39.6155 5.81949 39.5636 7.03031 39.5636 8.51847V40.8766C39.5636 42.3944 39.613 43.6176 39.7316 44.566C39.8403 45.497 40.0651 46.2448 40.4085 46.7673C40.7418 47.3002 41.2691 47.6821 41.8785 47.832C42.5184 48.0128 43.3856 48.1044 44.4726 48.1044V49.5108H29.7135V49.5158ZM77.6301 51.9993V50.5558C78.0105 50.5558 78.4182 50.5112 78.8233 50.427C79.2335 50.3478 79.609 50.1918 79.9475 49.959C80.2933 49.7386 80.5725 49.4044 80.8047 48.9834C81.0271 48.5773 81.1407 48.0177 81.1407 47.3195C81.1407 46.6658 81.0098 45.7422 80.738 44.5437C80.175 42.1112 79.5256 39.6996 78.7912 37.3134C78.4454 36.2239 78.2131 35.4464 78.0748 34.9685H64.5534C64.4694 35.2335 64.331 35.6742 64.126 36.2858C63.9357 36.9048 63.7158 37.6081 63.4663 38.3806C62.9324 40.0336 62.4488 41.7024 62.0161 43.3849C61.8036 44.207 61.6258 44.9671 61.48 45.6703C61.363 46.212 61.2944 46.7631 61.2749 47.317C61.2749 47.9731 61.4182 48.5204 61.7246 48.9413C62.0186 49.3424 62.3768 49.6743 62.8116 49.9095C63.2464 50.1422 63.6911 50.3007 64.1457 50.38C64.6028 50.4592 65.0005 50.5137 65.3365 50.5533V51.9993H54.3549V50.5558C55.1677 50.5137 55.8768 50.2487 56.4697 49.7064C57.0552 49.1741 57.5814 48.4907 58.0163 47.6636C58.4684 46.8366 58.8464 45.913 59.1601 44.8953C59.4774 43.8942 59.7838 42.8897 60.0792 41.8819L72.4073 0.000578579H73.2893L85.4049 42.1914C85.7533 43.3428 86.072 44.4249 86.3833 45.3955C86.6896 46.3736 87.0627 47.2303 87.495 47.9855C87.8895 48.6854 88.4215 49.2978 89.0589 49.7857C89.6765 50.2314 90.4548 50.4914 91.4133 50.5533V51.9993H77.6301ZM71.4191 11.5047L65.3415 32.22H77.3558L71.4191 11.5047ZM103.766 49.5232V48.1168C104.878 48.1168 105.755 48.0078 106.405 47.8023C107.054 47.5968 107.556 47.2155 107.892 46.6831C108.238 46.1532 108.443 45.398 108.534 44.462C108.626 43.5062 108.668 42.283 108.668 40.7899V8.71904C108.668 7.19869 108.626 5.96558 108.534 5.01227C108.443 4.05648 108.238 3.30869 107.892 2.76146C107.555 2.20935 107.025 1.80316 106.405 1.62245C105.75 1.41445 104.873 1.30302 103.766 1.30302V0.000578579H118.59V1.30302C117.503 1.30302 116.64 1.41445 115.983 1.61997C115.359 1.80479 114.824 2.21045 114.476 2.76146C114.125 3.30869 113.893 4.05648 113.782 5.01227C113.661 5.96558 113.614 7.20364 113.614 8.71904V40.7874C113.614 42.288 113.663 43.4988 113.76 44.457C113.866 45.4104 114.083 46.1606 114.422 46.6806C114.765 47.2155 115.262 47.5844 115.914 47.7998C116.564 48.0078 117.451 48.1168 118.59 48.1168V49.5207H103.766V49.5232ZM153.177 38.029C153.177 40.1956 152.888 42.1518 152.295 43.8652C151.7 45.5738 150.922 47.0297 149.946 48.2406C149.036 49.3931 147.889 50.3362 146.584 51.0064C145.371 51.6435 144.024 51.9789 142.655 51.9845C141.746 51.9845 140.852 51.8285 139.962 51.5264C139.099 51.2387 138.251 50.9081 137.42 50.5359C136.625 50.1769 135.896 49.8327 135.239 49.5306C134.584 49.2335 134.053 49.0726 133.63 49.0726C133.378 49.0727 133.136 49.1703 132.953 49.3449C132.749 49.5416 132.594 49.7832 132.499 50.0506C132.375 50.3428 132.284 50.6573 132.227 51.0089C132.178 51.3506 132.121 51.6725 132.079 51.9993H131.194V34.8397H132.076C132.249 36.9618 132.595 38.8808 133.092 40.6314C133.596 42.3845 134.253 43.8752 135.088 45.1231C135.928 46.3711 136.924 47.3393 138.092 48.0375C139.253 48.7383 140.597 49.0775 142.077 49.0775C142.89 49.0775 143.698 48.9116 144.491 48.5724C145.286 48.2257 145.998 47.7107 146.616 47.0372C147.233 46.3439 147.747 45.497 148.147 44.4868C148.535 43.4592 148.733 42.2805 148.733 40.9137C148.75 39.5852 148.49 38.2678 147.969 37.046C147.447 35.8878 146.766 34.8085 145.946 33.8394C145.077 32.8169 144.124 31.8686 143.098 31.0042C142.015 30.1326 140.933 29.2288 139.844 28.3176C138.735 27.4039 137.643 26.4481 136.575 25.4428C135.503 24.4432 134.548 23.3251 133.727 22.11C132.875 20.8613 132.193 19.5039 131.701 18.0739C131.189 16.5981 130.942 14.9217 130.942 13.0424C130.942 11.002 131.207 9.16722 131.743 7.54535C132.269 5.92348 132.986 4.55418 133.882 3.43497C134.716 2.37135 135.77 1.50127 136.971 0.884557C138.154 0.290286 139.382 0.000578579 140.669 0.000578579C141.44 0.000578579 142.201 0.144194 142.954 0.44133C143.718 0.733513 144.437 1.05046 145.118 1.38721C145.805 1.73139 146.443 2.04586 147.004 2.34052C147.572 2.63271 148.041 2.78623 148.414 2.78623C148.679 2.78623 148.896 2.6847 149.071 2.49157C149.244 2.29595 149.402 2.05824 149.523 1.78339C149.654 1.50359 149.758 1.21141 149.835 0.882081C149.909 0.557708 149.973 0.265524 150.023 0.00553048H150.961V17.123H150.023C149.92 15.2591 149.637 13.4098 149.175 11.6013C148.774 10.0123 148.148 8.4889 147.317 7.07736C146.606 5.86977 145.647 4.82742 144.503 4.01934C143.399 3.25209 142.082 2.85193 140.738 2.87537C139.98 2.87537 139.268 3.05612 138.571 3.41516C137.851 3.79632 137.212 4.31439 136.689 4.94046C136.133 5.60902 135.686 6.40138 135.35 7.32498C135.002 8.2461 134.829 9.2935 134.829 10.4573C134.829 11.8241 135.09 13.0523 135.612 14.1541C136.131 15.2585 136.835 16.2811 137.697 17.2196C138.557 18.1605 139.545 19.0544 140.629 19.9136C141.726 20.7803 142.843 21.6543 143.992 22.5433C145.146 23.4322 146.265 24.3756 147.359 25.3859C148.454 26.3957 149.439 27.5196 150.297 28.7386C151.152 29.9692 151.848 31.3484 152.377 32.8489C152.916 34.3544 153.177 36.0778 153.177 38.029ZM202.589 25.683C202.589 29.2264 202.174 32.5766 201.341 35.751C200.518 38.9254 199.35 41.7234 197.85 44.1426C196.328 46.5543 194.517 48.4609 192.395 49.8798C190.246 51.2912 187.884 51.9993 185.26 51.9993C182.73 52.0251 180.25 51.2959 178.135 49.9045C176.005 48.5229 174.197 46.6212 172.688 44.2441C171.18 41.867 170.032 39.0789 169.221 35.8995C168.393 32.5916 167.983 29.1925 168.001 25.7821C168.001 22.1743 168.441 18.8192 169.31 15.6844C170.175 12.5595 171.376 9.83577 172.952 7.51564C174.513 5.1955 176.369 3.36317 178.553 2.01615C180.691 0.676304 183.166 -0.0230299 185.688 0.000578579C188.245 0.000578579 190.552 0.698848 192.625 2.06815C194.7 3.44488 196.474 5.31436 197.956 7.65678C199.441 10.0091 200.588 12.7452 201.398 15.8528C202.188 18.9702 202.589 22.2511 202.589 25.683ZM196.642 26.1708C196.642 24.3583 196.583 22.5061 196.462 20.6268C196.335 18.7975 196.109 16.9765 195.785 15.1718C195.48 13.5035 195.042 11.8624 194.475 10.2641C193.976 8.83759 193.266 7.49389 192.37 6.27757C191.552 5.16812 190.508 4.24561 189.307 3.57116C188.121 2.90756 186.723 2.5708 185.117 2.5708C183.644 2.5708 182.347 2.90756 181.238 3.57116C180.112 4.23972 179.153 5.13112 178.323 6.28005C177.444 7.5018 176.747 8.84459 176.253 10.2666C175.682 11.8392 175.24 13.4556 174.931 15.1C174.59 16.8061 174.363 18.5592 174.217 20.3519C173.941 23.8262 173.941 27.317 174.217 30.7913C174.355 32.6038 174.597 34.3891 174.936 36.1372C175.289 37.8978 175.739 39.5667 176.292 41.1588C176.838 42.7436 177.532 44.1351 178.357 45.3311C179.13 46.4817 180.13 47.461 181.295 48.2084C182.424 48.9166 183.711 49.2731 185.193 49.2731C186.733 49.2731 188.091 48.9512 189.25 48.3025C190.396 47.6587 191.422 46.7623 192.272 45.658C193.117 44.5363 193.828 43.219 194.389 41.7209C194.965 40.15 195.419 38.5365 195.745 36.8949C196.071 35.1988 196.311 33.4358 196.457 31.601C196.58 29.7637 196.642 27.9586 196.642 26.1708ZM251.995 1.34512C250.906 1.34512 250.031 1.44664 249.371 1.64473C248.709 1.84282 248.203 2.21919 247.845 2.76889C247.499 3.32107 247.266 4.08124 247.165 5.04446C247.064 6.0151 247.014 7.26802 247.014 8.80818V51.9993H246.125L223.057 10.7618V42.2731C223.057 43.8702 223.099 45.1504 223.208 46.1359C223.317 47.0966 223.537 47.8518 223.875 48.3842C224.221 48.919 224.723 49.2806 225.372 49.4588C226.034 49.6346 226.916 49.7436 228.003 49.7436V51.1946H215.863V49.7436C216.95 49.7436 217.822 49.6346 218.477 49.4341C219.117 49.236 219.608 48.8646 219.952 48.3149C220.31 47.7602 220.52 47 220.644 46.0393C220.767 45.0637 220.824 43.8207 220.824 42.278V6.65642C220.432 5.89082 220.029 5.13138 219.613 4.37838C219.271 3.78471 218.868 3.22866 218.41 2.71937C218.001 2.2815 217.505 1.93549 216.953 1.70416C216.412 1.46645 215.742 1.34512 214.942 1.34512V0.000578579H223.475L244.796 38.3682V8.81065C244.796 7.26802 244.751 6.01758 244.63 5.04693C244.509 4.08124 244.284 3.3186 243.929 2.77137C243.581 2.22497 243.044 1.82579 242.422 1.64968C241.777 1.44664 240.905 1.34759 239.81 1.34759V0.00305453H252L251.995 1.34512Z" fill="#2D1940"/>
</svg>
