<svg width="252" height="76" viewBox="0 0 252 76" fill="none" xmlns="http://www.w3.org/2000/svg">
<path fill-rule="evenodd" clip-rule="evenodd" d="M147.841 3.34971C148.217 4.16647 148.243 7.45315 132.468 14.9338L117 22.2688C111.616 24.8234 103.806 28.1829 100.363 29.1118C97.9513 29.7613 95.6491 28.1081 95.6491 28.1081C95.6491 28.1081 88.7056 21.824 86.8612 20.4129C85.0206 18.9999 85.1783 18.2815 87.5389 17.5199C89.0095 17.0436 97.3943 19.0845 100.964 19.9996C104.223 18.0264 107.519 16.1189 110.853 14.2784C106.457 10.9918 98.2357 4.85726 95.6121 2.98759C93.0996 1.19073 95.6452 0.543236 95.6452 0.543236C96.8022 0.228343 99.303 -0.181017 100.561 0.0866412C109.127 1.89727 123.427 6.6738 124.518 7.03986C127.557 5.43073 130.624 3.87701 133.719 2.37945C140.251 -0.72027 147.339 2.26137 147.839 3.34774L147.841 3.34971ZM0 68.0955V42.9435H16.7229V47.23H4.83806V53.7128H14.7245V57.6804H4.83806V68.0955H0ZM22.192 42.235H26.8859V61.9315C26.8859 63.3721 27.5287 64.0924 28.8141 64.0924C29.0732 64.0924 29.3712 64.0452 29.7101 63.9507C30.049 63.8563 30.3723 63.75 30.6742 63.6319L31.3052 67.4224C30.6012 67.7526 29.8583 67.9907 29.0946 68.1309C28.3445 68.2866 27.5815 68.3696 26.8158 68.3789C25.3433 68.3789 24.2059 67.9853 23.3976 67.1922C22.5913 66.4049 22.19 65.2753 22.19 63.811V42.235H22.192ZM36.0323 68.0955V49.5326H40.7301V68.0955H36.0303H36.0323ZM36.0323 46.9465V42.235H40.7301V46.9465H36.0303H36.0323ZM54.7885 68.2018C53.6304 68.2149 52.4845 67.9605 51.4385 67.4578C50.4354 66.9735 49.5458 66.2792 48.8286 65.4209C48.0899 64.5368 47.5188 63.5227 47.1439 62.4294C46.7419 61.2683 46.5403 60.0461 46.5479 58.816C46.5479 57.4699 46.7582 56.2182 47.1789 55.0609C47.5751 53.9462 48.1691 52.9137 48.9318 52.0143C49.6725 51.1461 50.5865 50.4459 51.6138 49.9597C52.6956 49.4546 53.8755 49.2004 55.0671 49.2157C56.5161 49.2157 57.7782 49.5405 58.8534 50.1899C59.9285 50.8394 60.805 51.7093 61.4827 52.7957V49.5365H65.5846V67.2138C65.5846 68.5836 65.3314 69.8117 64.8308 70.898C64.3405 71.9703 63.6144 72.9154 62.7078 73.6612C61.7521 74.4413 60.6582 75.0304 59.4844 75.3971C58.1681 75.8103 56.796 76.0135 55.4176 75.9993C53.3842 75.9993 51.6839 75.6647 50.3147 74.9897C48.9459 74.316 47.7429 73.3424 46.7933 72.1399L49.3525 69.6247C50.0537 70.4985 50.936 71.1834 52.0014 71.6794C53.0724 72.1773 54.2387 72.4313 55.4176 72.4233C56.1422 72.4233 56.8394 72.3249 57.5017 72.1222C58.1697 71.9215 58.754 71.6105 59.2546 71.1834C59.761 70.7583 60.1564 70.2151 60.4485 69.5539C60.7407 68.8926 60.8868 68.1132 60.8868 67.2158V64.8777C60.2791 65.9405 59.426 66.7612 58.3275 67.3378C57.2355 67.9165 56.0196 68.2152 54.7866 68.2077L54.7885 68.2018ZM56.3993 64.4113C56.9135 64.4113 57.4043 64.3286 57.8717 64.1633C58.3392 63.998 58.7677 63.7736 59.1514 63.4902C59.5372 63.2069 59.8843 62.8734 60.1836 62.4983C60.4894 62.1204 60.7231 61.7189 60.8848 61.2938V56.8657C60.496 55.8184 59.8147 54.9077 58.9235 54.2442C58.0353 53.5829 57.1004 53.2523 56.1188 53.2523C55.3943 53.2523 54.736 53.4097 54.138 53.7305C53.542 54.0513 53.0337 54.4784 52.613 55.0098C52.1923 55.5411 51.8728 56.1473 51.6489 56.8322C51.4268 57.5171 51.3178 58.2256 51.3178 58.9577C51.3178 59.7135 51.4444 60.422 51.7015 61.0832C51.9585 61.7445 52.315 62.3231 52.7727 62.8191C53.2265 63.315 53.766 63.7047 54.3834 63.9881C55.0008 64.2715 55.6728 64.4132 56.3973 64.4132L56.3993 64.4113ZM89.5626 68.0955H84.8648V57.6804C84.8648 56.2162 84.596 55.1357 84.0584 54.439C83.5209 53.7443 82.7613 53.3959 81.7796 53.3959C81.3589 53.3959 80.9149 53.4904 80.4474 53.6793C79.9661 53.8756 79.5169 54.1443 79.1152 54.4764C78.6945 54.8169 78.3089 55.2243 77.9583 55.6966C77.6077 56.169 77.3506 56.6885 77.187 57.2553V68.0955H72.4891V42.235H77.187V52.9689C77.8297 51.8007 78.783 50.8374 79.9391 50.188C81.1134 49.5342 82.4354 49.1992 83.776 49.2157C84.968 49.2157 85.938 49.4224 86.6859 49.8357C87.4338 50.249 88.0181 50.8 88.4388 51.4849C88.8595 52.1698 89.1516 52.9492 89.3152 53.823C89.4788 54.6968 89.5607 55.5943 89.5607 56.5153V68.0955H89.5626ZM107.267 67.139C106.634 67.4224 105.857 67.7058 104.934 67.9892C104.011 68.2726 103.045 68.4143 102.041 68.4143C101.387 68.4143 100.775 68.3317 100.201 68.1664C99.6485 68.0108 99.1348 67.7392 98.6934 67.3693C98.2446 66.9848 97.8911 66.4995 97.6611 65.9523C97.4021 65.3756 97.2716 64.673 97.2716 63.8464V53.1834H94.8895V49.5346H97.2735V43.5123H101.967V49.5346H105.863V53.1834H101.967V62.2523C101.967 62.9136 102.143 63.38 102.493 63.6496C102.844 63.9252 103.267 64.059 103.759 64.059C104.246 64.059 104.727 63.9763 105.195 63.811C105.662 63.6457 106.036 63.504 106.317 63.3859L107.263 67.141L107.267 67.139ZM110.278 68.0955L120.095 42.9435H124.021L133.802 68.0955H128.684L126.405 61.8252H117.676L115.397 68.0955H110.278ZM122.058 48.2219L118.482 58.389H125.529L122.058 48.2219ZM145.683 68.4498C144.505 68.4632 143.338 68.2201 142.262 67.7372C141.185 67.2543 140.223 66.5429 139.443 65.6512C138.657 64.7526 138.045 63.7132 137.637 62.5869C137.198 61.3797 136.978 60.1022 136.989 58.816C136.989 57.4699 137.193 56.2182 137.602 55.0609C138.011 53.9037 138.576 52.8882 139.303 52.0143C140.014 51.1514 140.898 50.451 141.897 49.9597C142.924 49.4586 144.052 49.204 145.193 49.2157C146.525 49.2157 147.734 49.5464 148.821 50.2076C149.874 50.8345 150.75 51.7252 151.363 52.7937V42.235H156.061V62.64C156.061 63.136 156.154 63.4902 156.341 63.7028C156.528 63.9153 156.855 64.0334 157.323 64.057V68.0955C156.435 68.2608 155.687 68.3435 155.079 68.3435C154.214 68.3199 153.54 68.1191 153.063 67.7413C152.584 67.3634 152.284 66.832 152.167 66.1471L152.064 64.8718C151.427 66.0121 150.478 66.9417 149.329 67.5484C148.205 68.1439 146.953 68.4533 145.683 68.4498ZM146.91 64.4113C147.354 64.4113 147.81 64.3326 148.278 64.181C148.745 64.0295 149.178 63.811 149.575 63.5276C149.972 63.2442 150.334 62.9136 150.662 62.5357C150.989 62.1578 151.234 61.7445 151.398 61.2958V56.8676C151.006 55.8355 150.33 54.9381 149.45 54.2816C148.554 53.5967 147.612 53.2542 146.63 53.2542C145.929 53.2542 145.28 53.4077 144.682 53.7148C144.088 54.0218 143.58 54.443 143.159 54.9743C142.738 55.5057 142.411 56.1119 142.178 56.7968C141.944 57.4805 141.825 58.199 141.827 58.9223C141.827 59.7017 141.955 60.422 142.213 61.0832C142.47 61.7445 142.826 62.3231 143.284 62.8191C143.738 63.315 144.277 63.7047 144.895 63.9881C145.512 64.2715 146.184 64.4132 146.908 64.4132L146.91 64.4113ZM168.224 68.0955L161.458 49.5326H166.296L170.959 64.2341L175.658 49.5326H180.076L173.309 68.0955H168.224ZM185.085 68.0955V49.5326H189.783V68.0955H185.085ZM185.085 46.9465V42.235H189.783V46.9465H185.085ZM203.908 68.4498C203.16 68.4498 202.383 68.3907 201.576 68.2726C200.772 68.1545 199.983 67.9892 199.212 67.7767C198.458 67.5704 197.72 67.3099 197.003 66.9973C196.352 66.7179 195.729 66.3737 195.145 65.97L197.038 62.7463C199.375 64.2814 201.631 65.0489 203.804 65.0489C204.786 65.0489 205.557 64.8718 206.118 64.5175C206.382 64.3646 206.6 64.142 206.748 63.8737C206.896 63.6054 206.969 63.3014 206.96 62.9943C206.96 62.333 206.629 61.8429 205.96 61.5241C205.298 61.2092 204.18 60.8589 202.614 60.481C201.582 60.2443 200.564 59.9486 199.564 59.5954C198.723 59.2884 198.045 58.9341 197.531 58.5326C197.05 58.1725 196.665 57.6979 196.409 57.151C196.163 56.5694 196.044 55.9412 196.058 55.3089C196.058 54.3642 196.245 53.514 196.619 52.7583C196.993 52.0025 197.515 51.361 198.178 50.8296C198.88 50.2792 199.677 49.8643 200.528 49.6054C201.478 49.3149 202.466 49.1716 203.458 49.1803C204.767 49.1803 206.068 49.387 207.367 49.8003C208.666 50.2136 209.875 50.7745 210.997 51.483L209.069 54.4233C208.041 53.762 207.071 53.2818 206.159 52.9866C205.276 52.6966 204.353 52.5478 203.425 52.5457C202.583 52.5457 201.876 52.7111 201.302 53.0417C200.731 53.3723 200.445 53.9037 200.445 54.6358C200.445 55.2735 200.717 55.734 201.269 56.0174C201.814 56.3008 202.792 56.6196 204.194 56.9739C205.325 57.2517 206.443 57.5827 207.544 57.9658C208.465 58.2964 209.225 58.6743 209.823 59.0994C210.417 59.5245 210.849 60.0146 211.118 60.5696C211.387 61.1246 211.521 61.7898 211.521 62.5711C211.521 63.4686 211.34 64.2833 210.976 65.0155C210.617 65.7457 210.095 66.3822 209.453 66.8753C208.732 67.4139 207.917 67.8099 207.051 68.0424C206.028 68.3239 204.972 68.461 203.912 68.4498H203.908ZM225.677 68.4498C224.181 68.4498 222.837 68.19 221.645 67.6704C220.503 67.1852 219.471 66.4685 218.613 65.5646C217.783 64.6792 217.135 63.6372 216.704 62.4983C216.256 61.3353 216.03 60.0974 216.036 58.8495C216.036 57.5505 216.258 56.3225 216.702 55.1652C217.134 54.0277 217.783 52.9866 218.611 52.1009C219.442 51.2153 220.453 50.5127 221.645 49.9951C222.837 49.4736 224.181 49.2138 225.677 49.2138C227.173 49.2138 228.511 49.4736 229.689 49.9931C230.871 50.5127 231.876 51.2133 232.708 52.099C233.536 52.9846 234.173 54.008 234.617 55.1652C235.061 56.3225 235.283 57.5505 235.283 58.8495C235.283 60.1248 235.061 61.3411 234.617 62.4983C234.187 63.6332 233.544 64.6736 232.724 65.5626C231.906 66.4482 230.901 67.1508 229.709 67.6684C228.517 68.19 227.173 68.4498 225.677 68.4498ZM220.874 58.8495C220.874 59.6761 220.995 60.4239 221.24 61.099C221.486 61.7721 221.824 62.3586 222.257 62.8506C222.689 63.3485 223.198 63.7323 223.782 64.0039C224.366 64.2794 224.997 64.4132 225.675 64.4132C226.322 64.417 226.962 64.2799 227.552 64.0113C228.142 63.7426 228.667 63.3488 229.093 62.8565C229.526 62.3605 229.865 61.7701 230.11 61.0852C230.355 60.4003 230.48 59.6446 230.48 58.818C230.48 58.015 230.355 57.2711 230.11 56.5862C229.885 55.9362 229.54 55.3352 229.093 54.8149C228.669 54.3208 228.144 53.9255 227.553 53.6564C226.963 53.3873 226.322 53.2507 225.675 53.2562C224.997 53.2562 224.366 53.3979 223.782 53.6813C223.198 53.9647 222.691 54.3544 222.257 54.8503C221.81 55.3707 221.465 55.9717 221.24 56.6216C220.995 57.3065 220.87 58.0504 220.87 58.8534L220.874 58.8495ZM251.998 53.6419C250.576 53.6656 249.301 53.9431 248.181 54.4744C247.057 55.0058 246.252 55.8009 245.76 56.8637V68.0955H241.062V49.5326H245.374V53.5002C246.003 52.2249 246.827 51.1976 247.844 50.4182C248.86 49.6389 249.928 49.2492 251.051 49.2492C251.309 49.2492 251.499 49.2551 251.63 49.2689C251.758 49.2787 251.883 49.2964 252 49.32V53.6419H251.998Z" fill="#2D1940"/>
</svg>
