<svg width="252" height="61" viewBox="0 0 252 61" fill="none" xmlns="http://www.w3.org/2000/svg">
<path d="M69.2755 33.7284C69.5083 33.3579 69.9523 33.3204 70.6051 33.6463C71.2483 33.9652 71.8987 34.4341 72.5467 35.0461C73.1947 35.6628 73.7371 36.3193 74.1811 37.0087C74.6202 37.6933 74.7546 38.2279 74.577 38.5984C73.4563 40.6219 71.9851 42.9244 70.1611 45.5154C68.3381 48.0987 66.3146 50.5413 64.1083 52.8216C61.9003 55.1242 59.5724 57.0422 57.1244 58.5873C54.6836 60.1349 52.2812 60.9016 49.9268 60.9016C49.0988 60.9016 48.2036 60.6343 47.2317 60.102C46.2443 59.5591 45.3368 58.8879 44.5341 58.1067C43.7459 57.349 43.0361 56.5173 42.4149 55.6236C41.8221 54.7654 41.5269 54.0292 41.5269 53.3843C41.5269 52.1088 41.9253 50.5402 42.7221 48.6667C43.5141 46.8073 44.5173 44.7979 45.7245 42.6313C46.9317 40.4765 48.2108 38.2115 49.5668 35.841C50.8673 33.5664 52.1053 31.2584 53.2796 28.9193C48.626 33.1328 44.6781 37.154 41.4381 40.9947C38.2005 44.8331 35.5341 48.2306 33.4462 51.1897C31.3534 54.1464 29.7742 56.5099 28.7134 58.2661C27.6574 60.0247 26.9782 60.9063 26.6806 60.9063C26.3254 60.9063 25.7974 60.7328 25.0894 60.3881C24.3134 60 23.5744 59.5449 22.8814 59.0281C22.1367 58.4893 21.4671 57.8579 20.8894 57.15C20.3327 56.4653 20.0518 55.7619 20.0518 55.0726C20.0518 54.6505 20.479 53.6259 21.3334 52.0009C22.1878 50.3714 23.263 48.4135 24.559 46.1227C25.855 43.8248 27.2566 41.33 28.7542 38.6101C30.259 35.8902 31.6846 33.2266 33.0406 30.6145C27.7942 35.5221 23.5414 39.8505 20.2727 43.6044C16.9991 47.3701 14.3951 50.5261 12.4535 53.0842C10.9828 55.0007 9.55373 56.9473 8.16714 58.9226C7.25275 60.2545 6.55915 60.9227 6.09116 60.9227C5.56316 60.9227 4.93916 60.6859 4.23597 60.2029C3.5226 59.7157 2.85588 59.1663 2.24398 58.5615C1.67178 58.0001 1.14087 57.3999 0.655195 56.7655C0.220798 56.1676 0 55.7338 0 55.4665C0 55.3586 0.280799 54.7021 0.839995 53.5086C1.39919 52.3081 2.11918 50.777 3.00478 48.9176C3.89037 47.0606 4.90556 44.9315 6.05276 42.5634C7.20475 40.1928 8.36634 37.7824 9.53993 35.3275C10.7207 32.8749 11.8847 30.4668 13.0319 28.0963C14.1815 25.7211 15.1991 23.578 16.0799 21.6576C16.9631 19.7373 17.6855 18.1569 18.2447 16.8978C18.8039 15.648 19.0847 14.9165 19.0847 14.6984C19.0847 14.0606 19.4087 13.7957 20.0543 13.9012C20.7022 14.0091 21.3934 14.2998 22.1278 14.7805C22.8646 15.2588 23.5582 15.8286 24.2062 16.4992C24.8542 17.1674 25.1758 17.7349 25.1758 18.2179C25.1758 18.4852 24.9262 19.2167 24.4246 20.4172C23.9206 21.6154 23.2462 23.1231 22.3918 24.9356L19.5671 30.9311C18.5351 33.1164 17.4911 35.297 16.4279 37.4799C18.6071 35.1844 20.8462 32.8725 23.143 30.5301C25.4398 28.1854 27.5902 26.0399 29.5942 24.0915C31.5958 22.1453 33.3526 20.4829 34.8549 19.0971C36.3549 17.7067 37.3989 16.8321 37.9893 16.457C38.1093 16.3515 38.2245 16.2999 38.3421 16.2999C38.8125 16.2999 39.3597 16.5132 39.9741 16.9376C40.5933 17.3644 41.1837 17.9131 41.7453 18.579C42.3021 19.2472 42.7725 19.967 43.1589 20.7338C43.5405 21.5075 43.7325 22.2157 43.7325 22.8534C43.7325 23.1723 43.5981 23.721 43.3341 24.4947C43.0701 25.2662 42.7005 26.183 42.2301 27.2498C41.7573 28.319 41.2149 29.5055 40.5981 30.8091C39.9789 32.1199 39.3453 33.4587 38.6973 34.8468C40.5213 32.9218 42.4077 30.9545 44.3517 28.931C46.2957 26.9005 48.1076 25.0247 49.7852 23.2966C51.4652 21.5615 52.9364 20.1077 54.2036 18.9354C55.466 17.7606 56.3396 17.0455 56.81 16.7782C56.8652 16.7782 56.8988 16.7641 56.8988 16.7336C56.8988 16.7079 56.9564 16.6914 57.074 16.6914L57.2516 16.7735C57.3692 16.7735 57.4868 16.8016 57.602 16.8509C57.9572 17.0127 58.4108 17.294 58.97 17.6926C60.2904 18.6498 61.3259 19.9334 61.9699 21.4114C62.3563 22.2696 62.5507 23.1958 62.5507 24.211C62.5507 25.0082 62.2267 26.1689 61.5787 27.6883C60.8331 29.4105 60.0214 31.1046 59.1452 32.767C58.1732 34.6287 57.1292 36.5983 56.0132 38.6453C54.8876 40.6922 53.846 42.6501 52.8716 44.5165C51.9982 46.1784 51.1888 47.8718 50.4452 49.5929C49.7972 51.1123 49.4708 52.2706 49.4708 53.0702C50.8868 53.0702 52.4468 52.5426 54.1556 51.4757C55.8644 50.4159 57.5828 48.9786 59.3252 47.1614C61.1838 45.2086 62.9099 43.1393 64.4923 40.9666C66.2107 38.6453 67.8043 36.2396 69.2755 33.7284ZM6.80395 45.0816C6.92395 44.8682 7.05355 44.6408 7.19995 44.4016C7.34875 44.1672 7.48074 43.9069 7.60074 43.6419C7.71834 43.3746 7.85034 43.0792 7.99914 42.765C8.14554 42.4461 8.30634 42.1507 8.48634 41.8834L9.27833 40.2069C9.39833 39.9419 9.51353 39.677 9.63113 39.4097C9.75113 39.1471 9.86873 38.9079 9.98633 38.6922C10.1063 38.4741 10.1927 38.2701 10.2503 38.0521C10.3103 37.8363 10.3703 37.6792 10.4279 37.5667C10.4879 37.4096 10.5479 37.2736 10.6031 37.1611C10.5479 37.2736 10.4591 37.3955 10.3391 37.5667C10.2215 37.7285 10.0463 38.0732 9.81113 38.6054C9.50234 39.0605 9.23722 39.5424 9.01913 40.0451C8.89913 40.3147 8.75513 40.5938 8.57514 40.8822C8.39842 41.1758 8.25056 41.4851 8.13354 41.806L7.33675 43.4848L6.98395 44.282C6.86395 44.5517 6.75115 44.7862 6.63115 45.0019C6.51115 45.2645 6.42475 45.4966 6.36475 45.6819C6.3227 45.8345 6.26397 45.9823 6.18956 46.1227C6.14211 46.2618 6.0827 46.3967 6.01196 46.526C6.06956 46.4181 6.15835 46.2915 6.27595 46.1227C6.39941 46.011 6.49048 45.8694 6.53995 45.7123C6.59755 45.5623 6.68875 45.3442 6.80395 45.0793V45.0816ZM9.53993 37.5667C9.24713 38.1529 8.99513 38.6851 8.78873 39.1611C8.58474 39.6465 8.42394 40.0404 8.30394 40.3616C8.12874 40.7391 7.98234 41.0862 7.86474 41.398C8.00709 41.0371 8.18386 40.6902 8.39274 40.3616C8.57274 40.0451 8.76474 39.6582 8.96873 39.208C9.17753 38.7531 9.42473 38.2326 9.71993 37.6441L10.6511 35.8035C10.9775 35.161 11.3135 34.4716 11.6663 33.7237C12.0191 33.032 12.3719 32.3145 12.7247 31.5665L13.7831 29.3273L14.8439 27.088C15.1991 26.3424 15.5231 25.5991 15.8159 24.8535C16.1687 24.1032 16.4759 23.4162 16.7423 22.7761C17.0087 22.1336 17.2871 21.5216 17.5823 20.9354L18.6431 18.0537C18.7007 17.8943 18.7583 17.7583 18.8207 17.6504L18.9983 17.3339C19.0522 17.2356 19.0826 17.1265 19.0871 17.015C18.9671 17.3339 18.8231 17.6809 18.6455 18.0561C18.2838 19.0094 17.8705 19.9431 17.4071 20.8534C17.1119 21.4395 16.8167 22.0539 16.5239 22.694C16.2287 23.3341 15.9071 24.0047 15.5543 24.6917C15.2591 25.442 14.9351 26.183 14.5823 26.9309L13.5239 29.1678C12.7559 30.713 12.0335 32.2019 11.3567 33.6393C10.7459 34.9461 10.1403 36.2553 9.53993 37.5667ZM9.62873 41.5621C10.0135 40.7506 10.4265 39.9521 10.8671 39.1682C11.3575 38.2723 11.828 37.3663 12.2783 36.4506C12.5111 35.9699 12.7343 35.4986 12.9407 35.0484C13.1471 34.5983 13.3391 34.1621 13.5143 33.733C13.7471 33.3157 13.9391 32.8749 14.0903 32.4552C14.2343 32.0331 14.3999 31.6251 14.5751 31.2593C14.6951 30.8865 14.8079 30.5512 14.9279 30.2605C15.0479 29.9674 15.1367 29.7118 15.1919 29.4984C15.2448 29.4139 15.2761 29.3182 15.2831 29.2194C15.2831 29.1397 15.3095 29.074 15.3719 29.0201C15.3719 28.9662 15.4007 28.9099 15.4607 28.8607C15.4607 28.9099 15.4295 28.9662 15.3719 29.0201C15.3099 29.0738 15.2635 29.1426 15.2375 29.2194C15.1995 29.3162 15.1546 29.4102 15.1031 29.5008L14.7023 30.2183C14.5583 30.4856 14.3927 30.7787 14.2175 31.0929C13.8326 31.9059 13.4196 32.7059 12.9791 33.4915C12.7415 33.9112 12.5231 34.3544 12.3143 34.8093C12.1079 35.2642 11.8895 35.7284 11.6519 36.2091C11.4191 36.6945 11.1959 37.1634 10.9895 37.6464C10.7855 38.1318 10.5647 38.5843 10.3271 39.0064C10.0919 39.4284 9.90233 39.8505 9.75353 40.2421C9.60713 40.6477 9.44153 41.0229 9.26873 41.391C9.11712 41.704 8.98331 42.0249 8.86793 42.3523C8.77913 42.6149 8.67594 42.8822 8.55834 43.1472C8.49345 43.32 8.40463 43.4833 8.29434 43.6326C8.23914 43.6865 8.20554 43.7404 8.20554 43.7943C8.32554 43.5739 8.46954 43.3723 8.64713 43.1519C8.76473 42.9362 8.89673 42.7134 9.04313 42.4719C9.20633 42.2445 9.39833 41.9373 9.62873 41.5621ZM27.7438 27.4937C28.2142 27.0669 28.615 26.6496 28.9366 26.258C29.2606 25.8524 29.5702 25.5217 29.8678 25.2568C30.1606 24.9379 30.4246 24.6448 30.6598 24.3775L29.7766 25.1747C29.4814 25.4444 29.1574 25.7609 28.807 26.1337C28.4542 26.5089 28.039 26.9051 27.5686 27.3295C27.0958 27.8102 26.6086 28.3026 26.1118 28.8138L24.4774 30.4551C23.887 31.0413 23.3014 31.6275 22.7086 32.209C22.1182 32.7998 21.5302 33.3813 20.9422 33.9722C19.7883 35.1656 18.6395 36.3638 17.4959 37.5667C16.9031 38.1529 16.3727 38.7227 15.9023 39.2831C15.4319 39.8458 14.9615 40.3382 14.4887 40.7649C14.0714 41.186 13.6734 41.6249 13.2959 42.0803C13.0151 42.4386 12.7045 42.7734 12.3671 43.0815C12.2495 43.2433 12.1607 43.3699 12.1031 43.4426C12.0239 43.5439 11.9355 43.6381 11.8391 43.724L11.5727 43.9585C11.8055 43.6959 12.0743 43.3957 12.3647 43.0792C12.6599 42.8142 12.9839 42.4907 13.3391 42.1249C13.6895 41.7521 14.1023 41.3535 14.5751 40.9244C15.6359 39.8996 16.6816 38.86 17.7119 37.8059C18.8639 36.6288 20.0254 35.4283 21.2014 34.209C22.3774 32.9851 23.5438 31.7846 24.691 30.6192C25.843 29.4398 26.8582 28.4034 27.7438 27.4913V27.4937ZM29.8678 38.3663C30.2206 37.6792 30.4846 37.1165 30.6598 36.6874C30.7774 36.467 30.895 36.2654 31.0126 36.0426C30.9417 36.279 30.8216 36.4985 30.6598 36.6874C30.5398 36.9031 30.3958 37.1376 30.2182 37.4026C30.0329 37.6903 29.8569 37.9835 29.6902 38.2818C29.19 39.0203 28.7464 39.7938 28.363 40.5961C28.0708 41.0118 27.8185 41.4529 27.6094 41.9139C27.403 42.364 27.1534 42.8025 26.8582 43.2293C26.5654 43.7099 26.3014 44.1812 26.0662 44.6267C25.831 45.0816 25.5934 45.5177 25.3606 45.9445C24.9246 46.7308 24.5116 47.5291 24.1222 48.3385L23.3302 50.0173C23.2102 50.233 23.1214 50.4464 23.0638 50.6574L23.4166 50.0173C23.5918 49.6421 23.887 49.1146 24.2998 48.4229C24.7126 47.7382 25.1686 46.9386 25.6678 46.0641C26.1718 45.1848 26.6518 44.2938 27.127 43.3864C27.4198 42.9643 27.6718 42.5141 27.8782 42.0287C28.0822 41.5481 28.3342 41.0955 28.6294 40.6688C28.8622 40.2514 29.0854 39.8434 29.2942 39.473C29.5006 39.1166 29.6878 38.7391 29.8678 38.3663ZM41.2653 26.7738C41.1624 26.9486 41.0871 27.1375 41.0421 27.3342C41.0177 27.4744 40.9724 27.6102 40.9077 27.7375C40.8557 27.8655 40.8256 28.001 40.8189 28.1385C40.9011 28.0452 40.9617 27.9356 40.9965 27.8173C41.0541 27.7141 41.1141 27.5828 41.1741 27.4186C41.2293 27.2592 41.3181 27.0716 41.4381 26.8583C41.6157 26.4339 41.8221 25.9813 42.0573 25.4983C42.2877 25.0153 42.4701 24.5135 42.5853 23.9812C42.7629 23.4513 42.8493 22.8863 42.8493 22.3001C42.7956 22.1587 42.7656 22.0099 42.7605 21.8593C42.7614 21.7336 42.7309 21.6097 42.6717 21.4982C42.5953 21.2812 42.5072 21.0683 42.4077 20.8604C42.2301 20.436 42.0549 20.1406 41.8797 19.9811C41.8173 19.9342 41.7885 19.8498 41.7885 19.7466C41.7885 19.6927 41.7573 19.6646 41.6997 19.6646V19.7443C41.6997 19.8545 41.7285 19.9319 41.7885 19.9788C41.9055 20.0862 41.9838 20.2276 42.0117 20.3821C42.0429 20.5485 42.1149 20.7338 42.2349 20.9448C42.3469 21.1399 42.4079 21.359 42.4125 21.5826C42.4677 21.7467 42.4989 21.9859 42.4989 22.3048C42.4984 22.8417 42.4389 23.377 42.3213 23.9015C42.2013 24.1688 42.1149 24.4197 42.0573 24.6636C41.9997 24.9027 41.9109 25.1583 41.7933 25.4256C41.6733 25.6929 41.5845 25.9274 41.5269 26.1431C41.4741 26.3541 41.3853 26.5628 41.2653 26.7738ZM47.3612 26.9356C47.7164 26.5089 48.0812 26.1056 48.4652 25.7328C48.8492 25.3623 49.2188 24.9871 49.5716 24.612C49.8907 24.2229 50.2296 23.8496 50.5868 23.4935C50.9108 23.177 51.2204 22.8511 51.5156 22.5345C51.7892 22.2899 52.0413 22.0232 52.2692 21.7373C52.4708 21.4677 52.6652 21.2543 52.8404 21.0925C52.9255 21.0248 53.0007 20.9459 53.0636 20.8581C53.0991 20.796 53.1454 20.7404 53.2004 20.6939L53.3732 20.5368L52.8452 21.0198C52.6174 21.2254 52.3965 21.4381 52.1828 21.6576C51.9188 21.9249 51.638 22.1899 51.3428 22.4572C51.0452 22.7245 50.7284 23.0152 50.3708 23.3341C50.0064 23.6688 49.6534 24.0153 49.3124 24.3728C48.9572 24.8019 48.5924 25.1888 48.2084 25.5335C47.8244 25.8805 47.4548 26.265 47.1021 26.6894C46.6869 27.1185 46.3077 27.5195 45.9501 27.8899C45.5997 28.2651 45.2157 28.6403 44.7981 29.0107C44.5237 29.411 44.2137 29.7868 43.8717 30.1339C43.5477 30.4504 43.2381 30.7716 42.9429 31.0905C42.6848 31.3653 42.4343 31.6467 42.1917 31.9346C41.9829 32.1668 41.7909 32.3661 41.6157 32.5278C41.4221 32.6989 41.2454 32.8873 41.0877 33.0906L41.6157 32.6076C41.7909 32.4458 42.0141 32.2465 42.2805 32.0097C42.5445 31.7752 42.8229 31.4938 43.1205 31.1726C43.4133 30.9053 43.7205 30.6098 44.0469 30.2933C44.3709 29.9744 44.7117 29.6016 45.0621 29.1725C45.7975 28.3972 46.5646 27.6509 47.3612 26.9356ZM43.5669 48.8402C43.6771 48.6992 43.7534 48.5357 43.7901 48.3619C43.8124 48.2198 43.8578 48.0821 43.9245 47.9539C43.9594 47.8368 44.0191 47.7282 44.0997 47.635C44.0421 47.635 44.0109 47.6655 44.0109 47.7101C44.0109 47.757 43.9941 47.8085 43.9653 47.8343C43.9317 47.8695 43.9173 47.8976 43.9173 47.9586C43.7997 48.0665 43.6221 48.3338 43.3893 48.7558L42.8613 49.954C42.7413 50.2283 42.6525 50.4769 42.5949 50.7207C42.5397 50.9552 42.4749 51.2178 42.4173 51.4851C42.3614 51.7386 42.3174 51.9944 42.2853 52.2518C42.2541 52.4863 42.2397 52.7513 42.2397 53.0162C42.2397 53.4992 42.3285 53.9236 42.5037 54.2941C42.5613 54.5122 42.6237 54.688 42.6813 54.817C42.7389 54.9506 42.8013 55.0679 42.8565 55.1757L43.1229 55.4126C43.0653 55.4126 43.0341 55.3797 43.0341 55.3328C43.0341 55.2812 43.0173 55.2508 42.9861 55.2508C42.9549 55.2508 42.9429 55.2015 42.9429 55.096C42.8331 54.836 42.7449 54.5679 42.6789 54.2941C42.5592 53.8668 42.513 53.4231 42.5421 52.9811C42.5709 52.5285 42.6453 52.0291 42.7629 51.4968C42.8205 51.2342 42.8829 50.9974 42.9405 50.784C42.9981 50.566 43.0605 50.3315 43.1181 50.0595C43.3533 49.5085 43.5021 49.1099 43.5669 48.8402ZM47.7188 41.0041C47.9492 40.5234 48.2036 40.0428 48.4652 39.5668L49.3052 38.0474C49.6004 37.5667 49.8644 37.079 50.0996 36.5678C50.3348 36.0614 50.6036 35.569 50.8964 35.0813C51.1292 34.6592 51.3668 34.2231 51.602 33.8034C51.8305 33.3863 52.0356 32.9573 52.2164 32.5185C52.3964 32.1433 52.5572 31.815 52.7036 31.5219C52.8476 31.2242 52.9844 30.9428 53.1044 30.6755C53.212 30.4314 53.3289 30.1913 53.4548 29.9557C53.3993 30.2198 53.2791 30.4668 53.1044 30.6755C52.9795 30.9532 52.8318 31.2206 52.6628 31.4751C52.4852 31.7424 52.2788 32.0659 52.046 32.4294L50.63 34.9851C50.3348 35.4775 50.054 35.9441 49.79 36.4295C49.526 36.9172 49.2476 37.4143 48.95 37.9466C48.6568 38.4234 48.3923 38.9167 48.158 39.4237C47.9322 39.9122 47.6674 40.3826 47.3661 40.8306C46.8909 41.7872 46.4493 42.6736 46.0365 43.4684C45.8037 43.8905 45.6261 44.2469 45.5085 44.5494C45.3885 44.8448 45.2733 45.0933 45.1557 45.3114L44.8005 45.9585C44.8705 45.7206 44.9916 45.5 45.1557 45.3114C45.2733 45.0933 45.4197 44.8424 45.5973 44.5494C45.7725 44.2469 45.9813 43.921 46.2141 43.5505C46.4469 43.1237 46.6845 42.69 46.9197 42.2679C47.1549 41.8506 47.4236 41.4308 47.7164 41.0041H47.7188ZM52.6676 22.2157C53.0204 21.8428 53.3588 21.4677 53.6852 21.0925C54.0068 20.7221 54.314 20.4055 54.6092 20.1359C54.7296 20.0309 54.8346 19.9102 54.9212 19.7771C55.0099 19.6449 55.1146 19.5236 55.2332 19.416L55.4972 19.1816L55.2332 19.416C55.1118 19.5247 54.9772 19.6185 54.8324 19.6951C54.6897 19.7737 54.5561 19.8673 54.434 19.9741C54.1388 20.2414 53.8172 20.5509 53.462 20.8956C53.091 21.2661 52.737 21.6526 52.4012 22.0539C52.0508 22.4267 51.7076 22.8018 51.3884 23.177C51.062 23.5522 50.7524 23.8664 50.4572 24.1337C50.2317 24.3835 50.0262 24.65 49.8428 24.9309C49.7228 25.0387 49.6628 25.1185 49.6628 25.17L50.6348 24.2884C50.9276 24.0211 51.2516 23.714 51.6068 23.3693C51.9572 23.0269 52.3124 22.6424 52.6676 22.2157Z" fill="#2D1940"/>
<path d="M91.1963 33.5767C91.3715 33.3118 91.7243 33.2485 92.2571 33.3751C92.7851 33.5087 93.3299 33.8042 93.8915 34.2544C94.4507 34.7046 94.9595 35.3025 95.4347 36.0481C95.9051 36.7984 96.1379 37.5956 96.1379 38.4538C96.1379 39.04 95.8259 39.9967 95.2091 41.3285C94.4598 42.8856 93.606 44.3927 92.6531 45.8398C91.4718 47.6396 90.1873 49.3727 88.8059 51.031C87.3537 52.7956 85.7415 54.4286 83.9892 55.9104C82.3276 57.3258 80.5034 58.5477 78.5532 59.5518C76.6668 60.5061 74.7828 60.9892 72.8989 60.9892C72.3061 60.9892 71.4661 60.7688 70.3789 60.349C69.2225 59.8847 68.1248 59.2915 67.1077 58.5811C66.0491 57.8622 65.0844 57.0197 64.2349 56.0722C63.4141 55.132 62.9941 54.1308 62.9941 53.0686C62.9941 51.9009 63.3205 50.2409 63.9709 48.1212C64.6189 45.9875 65.4589 43.6662 66.4909 41.1667C67.5205 38.6648 68.6245 36.1091 69.8029 33.4923C70.9789 30.8803 72.0829 28.5098 73.1149 26.3713C74.1469 24.2423 75.042 22.4697 75.8076 21.0582C76.5756 19.6513 77.0172 18.8588 77.1324 18.697C77.4876 18.3265 78.0084 18.3265 78.6828 18.697C79.3596 19.0722 80.022 19.6185 80.6676 20.3383C81.3156 21.0558 81.8772 21.8296 82.3476 22.6526C82.8228 23.4779 83.0532 24.1837 83.0532 24.7722C83.0532 24.9856 82.7172 25.8508 82.038 27.3679C81.3612 28.8849 80.5188 30.6974 79.518 32.803C78.5148 34.9132 77.454 37.1642 76.338 39.5652C75.3086 41.7631 74.3077 43.9735 73.3357 46.1962C72.5998 47.8467 71.936 49.5271 71.3461 51.2327C70.9045 52.5598 70.8901 53.2281 71.2981 53.2281C73.5973 53.2281 75.7476 52.5317 77.754 51.1131C79.7508 49.7062 81.594 47.9805 83.274 45.9617C84.954 43.9264 86.4708 41.788 87.8243 39.523C89.1923 37.2674 90.3083 35.279 91.1963 33.5767ZM64.6813 49.5679C64.8013 49.1951 64.9789 48.7402 65.2093 48.208C65.3845 47.7859 65.5933 47.2771 65.8261 46.6909C66.0589 46.1047 66.3301 45.4365 66.6205 44.6908C66.7405 44.3157 66.8845 43.9241 67.0597 43.5302C67.2373 43.1316 67.3861 42.7213 67.5013 42.2992C67.6765 41.8771 67.8541 41.4387 68.0317 41.0213C68.2093 40.5969 68.4157 40.1631 68.6485 39.7434C69.0013 38.836 69.3853 37.8911 69.8005 36.9461C70.2133 35.9918 70.6525 35.0141 71.1253 34.0668C71.5381 33.1125 71.9485 32.1418 72.3661 31.1898C72.7741 30.2331 73.1893 29.2952 73.6045 28.3902C73.7804 28.0784 73.9422 27.7592 74.0893 27.4335C74.1805 27.2201 74.2525 27.0326 74.3125 26.8708C74.3701 26.7137 74.4324 26.5425 74.4876 26.3549C74.5452 26.1674 74.6676 25.886 74.8428 25.5132C75.1956 24.7652 75.4908 24.1063 75.726 23.5154C75.9588 22.9293 76.1628 22.4205 76.338 21.9937C76.458 21.7827 76.5444 21.5904 76.6044 21.431C76.6596 21.2762 76.7244 21.1402 76.782 21.0324C76.8372 20.8729 76.8996 20.7369 76.9596 20.6314H76.8708L76.1628 21.9116C75.8923 22.408 75.6425 22.9149 75.414 23.431C75.15 24.0172 74.838 24.655 74.4829 25.3467C73.7821 26.7887 73.1461 28.083 72.5845 29.2272C71.8562 30.7413 71.1648 32.2721 70.5109 33.8183C68.8889 37.3428 67.4432 40.9424 66.1789 44.6041C65.9437 45.3544 65.7229 46.0297 65.5165 46.6487C65.3077 47.2607 65.1493 47.7836 65.0269 48.2103C64.9258 48.4121 64.8655 48.631 64.8493 48.8551C64.8523 48.9942 64.8228 49.1321 64.7629 49.2584C64.7149 49.4085 64.6813 49.5163 64.6813 49.5679ZM68.8333 41.9709C68.9533 41.6005 69.0589 41.291 69.1453 41.0166C69.2341 40.7517 69.3373 40.4844 69.4549 40.2147C69.5749 39.999 69.6637 39.7645 69.7189 39.4996C69.6637 39.7106 69.5749 39.9193 69.4549 40.1327L69.0589 40.8994C68.9149 41.2042 68.7781 41.5301 68.6557 41.9006C68.3077 42.6533 67.9549 43.4481 67.5973 44.2993L66.5413 47.1716C66.3613 47.664 66.1861 48.1329 66.0133 48.6136C65.8395 49.0857 65.6905 49.5663 65.5669 50.0533C65.4517 50.48 65.3365 50.9138 65.2165 51.3382C65.0965 51.7602 65.0101 52.1964 64.9525 52.6184C64.8325 52.9889 64.7749 53.3218 64.7749 53.6149V54.459C64.7749 54.6724 64.8325 54.8342 64.9525 54.9397C64.9525 54.9936 64.9837 55.0499 65.0413 55.1015C64.9837 55.0499 64.9525 54.9936 64.9525 54.9374C64.8973 54.8928 64.8661 54.7263 64.8661 54.4567C64.8661 53.976 64.9525 53.3711 65.1301 52.6184C65.2477 52.2409 65.3629 51.847 65.4805 51.4085C65.6005 50.9935 65.7157 50.5597 65.8333 50.1306L66.8941 47.2536C67.0141 46.7706 67.1581 46.2993 67.3309 45.814C67.5109 45.338 67.6861 44.8831 67.8637 44.454C68.0413 43.971 68.2165 43.5302 68.3917 43.141C68.5717 42.7283 68.7157 42.3508 68.8357 41.9709H68.8333ZM84.918 15.3464C84.6228 15.3464 84.2532 15.1611 83.814 14.7883C83.338 14.3835 82.8936 13.9446 82.4844 13.4752C82.0632 12.9936 81.6948 12.4702 81.3852 11.9136C81.0876 11.379 80.9076 10.9781 80.8572 10.7131C80.8572 10.3943 81.0612 9.66504 81.4716 8.51377C81.8844 7.36953 82.4004 6.16902 83.0172 4.91693C83.634 3.66953 84.2796 2.53232 84.9612 1.51705C85.6332 0.506465 86.1828 0 86.598 0C87.0684 0 87.6444 0.293093 88.3163 0.879279C88.9955 1.46781 89.6267 2.1173 90.2171 2.84183C90.8051 3.55698 91.3211 4.24868 91.7627 4.91693C92.2019 5.58518 92.4227 6.02365 92.4227 6.23233C92.4227 6.44805 92.1011 7.03189 91.4531 7.99558C90.8051 8.95224 90.0371 9.98158 89.1563 11.0719C88.2731 12.1669 87.4188 13.154 86.598 14.0286C85.7676 14.9102 85.2132 15.3464 84.918 15.3464ZM84.3876 49.8094C84.5628 49.6453 84.7524 49.4624 84.9636 49.2467C85.1676 49.0286 85.3836 48.7941 85.626 48.5222C85.8476 48.27 86.0528 48.0045 86.2404 47.7273C86.4281 47.4482 86.635 47.1818 86.8596 46.9301C87.09 46.6651 87.2988 46.3978 87.4764 46.1305C87.6516 45.8656 87.8291 45.5959 88.0043 45.338L88.5347 44.5337C88.7123 44.2688 88.8563 44.0343 88.9739 43.8186C89.0915 43.5958 89.1947 43.3965 89.2883 43.1761C89.3507 42.9946 89.4559 42.8299 89.5955 42.6955C89.645 42.5571 89.7043 42.4224 89.7731 42.2922C89.6923 42.4309 89.6042 42.5655 89.5091 42.6955C89.3714 42.8241 89.2526 42.9709 89.1563 43.1316C89.0363 43.3192 88.9235 43.5208 88.8083 43.7271C88.4275 44.1871 88.0726 44.6669 87.7452 45.1645L87.2172 45.964C87.0297 46.2428 86.8237 46.5091 86.6004 46.7612C86.3743 47.0124 86.1666 47.2788 85.9788 47.5585C85.7947 47.8411 85.5893 48.1099 85.3644 48.3627C85.1942 48.6156 85.0014 48.8534 84.7884 49.0732C84.5796 49.2936 84.39 49.4952 84.2124 49.7156C83.8596 50.1377 83.598 50.4659 83.4204 50.6699C83.3317 50.8038 83.2105 50.9142 83.0676 50.9912L83.4228 50.6699C83.7108 50.5222 84.0372 50.2362 84.3876 49.8094ZM91.4555 41.169C91.5755 40.9064 91.6787 40.6673 91.7675 40.4515C91.8411 40.2508 91.9463 40.0625 92.0795 39.8935L92.3435 39.4011L92.0795 39.8935C91.9571 40.0389 91.8275 40.2147 91.6787 40.4C91.518 40.6103 91.3834 40.8385 91.2779 41.0799C91.1579 41.3449 90.9995 41.6239 90.7931 41.924C90.5824 42.2198 90.3886 42.5266 90.2123 42.8432C90.0443 43.1621 89.8475 43.4833 89.6363 43.7998C89.4323 44.1164 89.2115 44.4704 88.9763 44.8386L87.6492 46.7612C87.4811 47.0672 87.2885 47.3597 87.0732 47.6358C86.8701 47.8927 86.6795 48.1587 86.502 48.4331C86.3495 48.6675 86.1853 48.8944 86.01 49.113C85.866 49.3006 85.7316 49.4413 85.614 49.5515C85.5435 49.6706 85.4544 49.7781 85.35 49.8704L85.2588 49.936L85.3476 49.8704C85.4076 49.8188 85.4508 49.7883 85.482 49.7883C85.5108 49.7883 85.5852 49.7391 85.7076 49.6312C85.8399 49.4564 85.9868 49.2925 86.1468 49.1412C86.3496 48.9511 86.527 48.7369 86.6748 48.5034C86.8524 48.2361 87.042 47.9711 87.2532 47.7062C87.4572 47.4436 87.6756 47.181 87.9132 46.916L89.2403 44.9839C89.4731 44.6135 89.6963 44.2664 89.9027 43.9476C90.1115 43.6287 90.3035 43.3074 90.4835 42.9886C90.6563 42.6697 90.8339 42.3555 91.0091 42.0342C91.176 41.7551 91.3251 41.4661 91.4555 41.169Z" fill="#2D1940"/>
<path d="M130.688 33.8086C130.923 33.4334 131.365 33.3983 132.013 33.7289C132.661 34.0454 133.333 34.5003 134.01 35.0865C134.689 35.675 135.238 36.3104 135.637 37.0092C136.05 37.7032 136.167 38.2331 135.99 38.6036C134.866 40.6318 133.393 42.9296 131.574 45.5206C129.752 48.1051 127.729 50.5479 125.521 52.8268C123.313 55.127 120.987 57.0497 118.537 58.6254C116.091 60.2104 113.718 60.9982 111.423 60.9982C110.595 60.9982 109.7 60.7098 108.726 60.1495C107.75 59.5893 106.845 58.9179 106.031 58.1494C105.236 57.4128 104.525 56.5953 103.909 55.7108C103.321 54.8644 103.028 54.1188 103.028 53.4763C103.028 52.1984 103.427 50.6298 104.216 48.7587C105.008 46.897 106.016 44.8758 107.223 42.6858C108.431 40.4958 109.71 38.2214 111.071 35.8509C112.363 33.5882 113.571 31.2802 114.692 28.9315C110.036 33.1427 106.016 37.1616 102.635 41.0023C99.2435 44.8383 96.4188 48.2335 94.146 51.1949C91.8804 54.1493 90.138 56.5104 88.9356 58.2713C87.7236 60.0299 86.9724 60.9115 86.682 60.9115C86.3268 60.9115 85.8565 60.738 85.2661 60.3956C84.6355 60.0159 84.0572 59.5588 83.5453 59.0357C82.9814 58.4697 82.492 57.8372 82.0885 57.1529C81.6951 56.5299 81.482 55.8144 81.4717 55.0825C81.4717 54.6581 81.9277 53.4365 82.8397 51.4364C83.9459 49.0456 85.0949 46.6739 86.286 44.3224L90.75 35.4827C92.3412 32.3408 93.8316 29.3817 95.214 26.6126C96.405 24.2476 97.5539 21.8626 98.6604 19.4588C99.5723 17.4563 100.028 16.1949 100.028 15.6579C100.028 15.5501 100.06 15.4469 100.117 15.339C100.237 15.0741 100.468 14.9404 100.82 14.9404C101.296 14.9404 101.836 15.0741 102.455 15.339C103.095 15.6219 103.702 15.9709 104.267 16.3801C104.857 16.8068 105.337 17.3297 105.726 17.937C106.11 18.5537 106.302 19.1797 106.302 19.8175C106.302 20.134 106.122 20.8023 105.774 21.8176C105.332 23.0474 104.844 24.2612 104.312 25.4566C103.698 26.8635 103.004 28.411 102.236 30.0898C101.468 31.7687 100.676 33.492 99.8531 35.2483C101.677 33.2787 103.58 31.2622 105.553 29.2129C107.526 27.1589 109.369 25.2526 111.08 23.4941C112.55 21.9703 114.053 20.4771 115.587 19.0156C116.886 17.7916 117.764 17.0437 118.237 16.7787C118.29 16.7787 118.335 16.7646 118.369 16.7342C118.408 16.7046 118.457 16.6896 118.506 16.692C118.568 16.692 118.626 16.7201 118.679 16.774C118.859 16.774 118.976 16.8022 119.036 16.8537C119.389 17.0132 119.84 17.2946 120.402 17.6932C120.961 18.0965 121.506 18.6006 122.034 19.2172C122.562 19.8269 123.018 20.5584 123.399 21.4119C123.786 22.2701 123.978 23.2268 123.978 24.2889C123.978 25.0885 123.651 26.2468 123.006 27.7685C122.36 29.2856 121.566 30.9668 120.625 32.8027C119.679 34.6457 118.633 36.5918 117.486 38.6458C116.334 40.6928 115.292 42.653 114.351 44.517C113.5 46.1839 112.704 47.8769 111.963 49.5934C111.318 51.1152 110.991 52.2711 110.991 53.0707C112.407 53.0707 113.951 52.5454 115.633 51.4786C117.313 50.4235 119.022 48.9814 120.757 47.1666C122.607 45.2218 124.332 43.1678 125.924 41.0163C127.636 38.6941 129.226 36.2884 130.688 33.8086ZM95.9604 38.4465C96.2508 37.9119 96.5172 37.3796 96.7524 36.8521C96.9828 36.3198 97.2564 35.7899 97.5444 35.253C97.8396 34.6668 98.106 34.1158 98.3364 33.5741C98.5692 33.0465 98.8356 32.5096 99.1308 31.9797L99.7931 30.4579L100.369 29.1003C100.547 28.6759 100.705 28.3031 100.854 27.9749L101.255 27.0956C101.307 27.0118 101.339 26.9169 101.346 26.8189C101.346 26.7392 101.377 26.6454 101.43 26.5375C101.43 26.432 101.464 26.3546 101.521 26.3031L97.2828 35.0912C96.75 36.2166 96.2316 37.2999 95.7372 38.3269C95.2308 39.3633 94.7724 40.3129 94.3692 41.1641C94.134 41.5861 93.9372 41.9613 93.7932 42.2895L93.39 43.1571C93.2321 43.3783 93.1136 43.6241 93.0396 43.884C93.1596 43.6612 93.3036 43.4314 93.4764 43.1571L94.5396 41.2438C94.77 40.817 94.9956 40.3809 95.2044 39.926C95.4156 39.4758 95.6628 38.9811 95.9604 38.4488V38.4465ZM98.9604 34.3666C98.9604 34.3174 98.9963 34.2611 99.0515 34.2095C99.0798 34.1843 99.1023 34.1534 99.1176 34.1191C99.1329 34.0848 99.1407 34.0477 99.1403 34.0102C99.1403 33.9282 99.1955 33.8367 99.3179 33.7289C99.6107 33.3045 99.9323 32.7159 100.29 31.9656C100.523 31.5905 100.744 31.1942 100.952 30.7628C101.159 30.3384 101.38 29.9116 101.617 29.4849L102.32 28.0452C102.553 27.5645 102.791 27.0604 103.024 26.5258C103.258 26.0444 103.465 25.5504 103.643 25.0463C103.818 24.5422 103.996 24.0474 104.171 23.5621C104.346 23.0861 104.507 22.6148 104.66 22.1669C104.8 21.7097 104.939 21.2994 105.059 20.9289C105.217 20.2729 105.305 19.6026 105.323 18.9288V18.61C105.325 18.567 105.318 18.5242 105.303 18.4839C105.288 18.4436 105.264 18.4067 105.234 18.3755C105.176 18.3216 105.145 18.2676 105.145 18.2113L105.234 18.3755V18.9288C105.175 19.0403 105.144 19.1643 105.145 19.2899C105.141 19.4397 105.112 19.5879 105.059 19.7284C104.943 19.8806 104.864 20.0573 104.831 20.2442C104.8 20.4318 104.759 20.6077 104.699 20.7648C104.579 21.1892 104.42 21.6206 104.212 22.045C103.993 22.4881 103.801 22.943 103.636 23.4073C103.405 23.8317 103.18 24.2983 102.968 24.8048C102.766 25.3065 102.545 25.8008 102.306 26.2867C102.076 26.8166 101.855 27.3254 101.644 27.799C101.435 28.2867 101.245 28.7604 101.068 29.241C100.835 29.724 100.628 30.1742 100.451 30.601C100.285 31.0062 100.109 31.4072 99.9227 31.8038C99.8027 32.2259 99.6899 32.5893 99.5699 32.8824C99.4687 33.143 99.3517 33.3974 99.2195 33.6445L98.9604 34.3666ZM106.035 47.4808C106.329 47.0083 106.581 46.5126 106.789 45.9989C106.993 45.4948 107.24 44.9977 107.54 44.5147C107.835 43.9848 108.097 43.4713 108.33 42.9976C108.563 42.5146 108.831 42.0433 109.122 41.558C109.595 40.4958 110.034 39.6353 110.451 38.9975C110.627 38.5755 110.773 38.2167 110.891 37.9166C111.011 37.6211 111.123 37.3726 111.241 37.1522C111.303 36.9998 111.385 36.8099 111.507 36.5941C111.563 36.5473 111.594 36.4863 111.594 36.4394C111.594 36.4863 111.563 36.5449 111.507 36.5941C111.363 36.735 111.244 36.8982 111.155 37.0772C111.035 37.2929 110.891 37.5461 110.715 37.8369C110.54 38.137 110.331 38.4653 110.099 38.8428C109.866 39.2179 109.623 39.6118 109.393 40.0386C109.16 40.47 108.891 40.8968 108.601 41.3282C108.306 41.8065 108.025 42.2848 107.761 42.7655C107.499 43.2462 107.216 43.7433 106.921 44.2755C106.691 44.7609 106.451 45.2463 106.22 45.7621C105.98 46.2639 105.745 46.7633 105.51 47.2393C105.392 47.5136 105.287 47.7504 105.2 47.9662C105.114 48.1795 105.008 48.3882 104.891 48.6016C104.783 48.8343 104.695 49.075 104.627 49.3214C104.569 49.5442 104.507 49.7458 104.447 49.9592C104.288 50.3165 104.199 50.6999 104.185 51.0894C104.134 51.2322 104.088 51.3769 104.048 51.5231C104.016 51.6663 104 51.8126 104 51.9593V52.6791L104.092 52.522C104.092 52.3039 104.123 52.1187 104.18 51.9593C104.298 51.3731 104.504 50.74 104.797 50.0413C104.972 49.6169 105.162 49.1878 105.373 48.7587C105.577 48.3366 105.795 47.9052 106.035 47.4808ZM115.398 59.4742C115.549 59.381 115.714 59.3129 115.887 59.2725C116.037 59.2437 116.175 59.1746 116.286 59.0732C116.416 59.012 116.536 58.9313 116.641 58.834L116.286 58.9935C115.935 59.1037 115.609 59.2116 115.311 59.31C114.548 59.6289 113.607 59.8423 112.487 59.9431H111.695C111.56 59.9453 111.427 59.9303 111.296 59.8986C111.164 59.8708 111.029 59.8566 110.893 59.8564C110.428 59.8054 109.978 59.6685 109.566 59.4531L109.038 59.2139C108.918 59.2139 108.805 59.167 108.685 59.0568C108.565 59.0568 108.512 59.0427 108.512 59.0169C108.512 58.9841 108.479 58.97 108.421 58.97C108.366 58.97 108.335 58.9419 108.335 58.8927L108.599 59.1271C108.719 59.174 108.829 59.2631 108.949 59.3616L109.477 59.5961C109.657 59.7086 109.844 59.8024 110.055 59.8775C110.262 59.9525 110.511 60.0181 110.807 60.0815C110.924 60.126 111.054 60.1588 111.205 60.1588C111.349 60.1588 111.488 60.1893 111.601 60.2339H112.487C112.782 60.2339 113.043 60.2034 113.276 60.1588C113.509 60.1119 113.78 60.0228 114.073 59.9197C114.368 59.8728 114.611 59.8024 114.817 59.7204C115.022 59.6672 115.218 59.5842 115.398 59.4742ZM115.139 31.2528C114.387 32.7143 113.591 34.1538 112.753 35.5695L112.091 36.77C111.879 37.1452 111.687 37.5414 111.515 37.9729C111.279 38.348 111.087 38.7091 110.939 39.0514C110.79 39.3985 110.627 39.7314 110.449 40.048C110.329 40.3668 110.216 40.6506 110.094 40.8921C109.974 41.1265 109.887 41.368 109.832 41.572C109.728 41.7421 109.667 41.9344 109.655 42.1324C109.71 41.9824 109.799 41.7948 109.919 41.5697C110.043 41.4103 110.144 41.2133 110.233 40.9835C110.322 40.7443 110.454 40.4653 110.631 40.1324C110.984 39.5415 111.351 38.8756 111.735 38.0995C112.119 37.3234 112.542 36.5332 113.012 35.7313C113.247 35.3163 113.468 34.9059 113.677 34.5331C113.886 34.1626 114.08 33.7828 114.253 33.4076C114.486 32.9856 114.695 32.5964 114.872 32.2517C115.047 31.907 115.194 31.5951 115.311 31.3325C115.431 31.0652 115.544 30.7979 115.664 30.5353C115.784 30.2657 115.899 30.0312 116.015 29.8108C116.135 29.5974 116.221 29.4122 116.279 29.2481C116.159 29.4122 116.046 29.5974 115.931 29.8108C115.808 29.9679 115.695 30.186 115.578 30.4486C115.455 30.7182 115.314 30.9879 115.139 31.2528Z" fill="#2D1940"/>
<path d="M152.516 33.5767C152.691 33.3118 153.046 33.2485 153.579 33.3751C154.102 33.5087 154.65 33.8042 155.209 34.2544C155.766 34.7046 156.277 35.3025 156.75 36.0481C157.225 36.7984 157.45 37.5956 157.45 38.4538C157.45 39.04 157.138 39.9967 156.522 41.3285C155.773 42.8861 154.919 44.3933 153.966 45.8398C152.787 47.64 151.505 49.3732 150.126 51.031C148.671 52.7963 147.057 54.4294 145.302 55.9104C143.642 57.3281 141.817 58.5503 139.866 59.5518C137.974 60.5061 136.098 60.9892 134.211 60.9892C133.614 60.9892 132.778 60.7688 131.691 60.349C130.534 59.8845 129.436 59.2913 128.418 58.5811C127.36 57.8615 126.395 57.019 125.545 56.0722C124.722 55.132 124.302 54.1308 124.302 53.0686C124.302 51.9009 124.628 50.2409 125.279 48.1212C125.927 45.9875 126.764 43.6662 127.796 41.1667C129.86 36.1753 132.067 31.2415 134.415 26.3713C135.442 24.2423 136.34 22.4697 137.11 21.0582C137.883 19.6513 138.318 18.8588 138.445 18.697C138.788 18.3265 139.321 18.3265 139.986 18.697C140.67 19.0722 141.33 19.6185 141.978 20.3383C142.621 21.0558 143.178 21.8296 143.655 22.6526C144.128 23.4826 144.354 24.1837 144.354 24.7722C144.354 24.9856 144.025 25.8508 143.336 27.3679C142.659 28.8849 141.819 30.6974 140.816 32.803C139.82 34.9132 138.752 37.1642 137.638 39.5652C136.518 41.9569 135.517 44.1703 134.636 46.1962C133.901 47.8467 133.238 49.527 132.649 51.2327C132.21 52.5598 132.193 53.2281 132.601 53.2281C134.9 53.2281 137.048 52.5317 139.054 51.1131C141.051 49.7062 142.904 47.9805 144.582 45.9617C146.259 43.9264 147.774 41.788 149.134 39.523C150.512 37.2674 151.63 35.279 152.518 33.5767H152.516ZM126.008 49.5679C126.163 49.107 126.339 48.6532 126.536 48.208C126.709 47.7859 126.92 47.2771 127.153 46.6909C127.386 46.1047 127.662 45.4365 127.945 44.6908C128.065 44.3157 128.202 43.9241 128.379 43.5302C128.557 43.132 128.702 42.7203 128.811 42.2992C128.991 41.8771 129.167 41.4387 129.344 41.0213C129.517 40.5969 129.728 40.1631 129.954 39.7434C130.307 38.836 130.695 37.8911 131.106 36.9461C131.528 35.9918 131.967 35.0141 132.442 34.0668C132.86 33.1125 133.263 32.1418 133.681 31.1898C134.101 30.2331 134.509 29.2952 134.926 28.3902C135.103 28.0781 135.267 27.759 135.416 27.4335L135.639 26.8708C135.694 26.7137 135.764 26.5425 135.817 26.3549C135.872 26.1674 135.992 25.886 136.17 25.5132C136.515 24.7652 136.815 24.1063 137.053 23.5154C137.286 22.9293 137.485 22.4205 137.662 21.9937C137.79 21.7827 137.876 21.5904 137.926 21.431C137.979 21.2762 138.046 21.1402 138.102 21.0324C138.157 20.8729 138.222 20.7369 138.279 20.6314H138.2L137.49 21.9116C137.219 22.4087 136.968 22.9156 136.736 23.431C136.474 24.0172 136.165 24.655 135.81 25.3467C135.114 26.7887 134.47 28.083 133.909 29.2272C133.182 30.7418 132.49 32.2725 131.835 33.8183C130.211 37.3427 128.763 40.9422 127.496 44.6041C127.263 45.3544 127.04 46.0297 126.834 46.6487C126.627 47.2607 126.467 47.7836 126.349 48.2103C126.246 48.4114 126.186 48.6307 126.171 48.8551C126.173 48.9943 126.142 49.132 126.083 49.2584C126.042 49.4085 126.008 49.5163 126.008 49.5679ZM130.158 41.9709L130.472 41.0166C130.554 40.7517 130.659 40.4844 130.784 40.2147C130.899 39.999 130.993 39.7645 131.048 39.4996C130.993 39.7106 130.899 39.9193 130.784 40.1327C130.659 40.3601 130.544 40.6063 130.381 40.8994C130.242 41.2042 130.103 41.5301 129.985 41.9006C129.632 42.6533 129.279 43.4481 128.919 44.2993L127.856 47.1716C127.683 47.664 127.503 48.1329 127.328 48.6136C127.157 49.0859 127.01 49.5664 126.889 50.0533C126.769 50.48 126.656 50.9138 126.534 51.3382C126.416 51.7585 126.329 52.1863 126.272 52.6184C126.152 52.9889 126.095 53.3218 126.095 53.6149V54.459C126.095 54.6724 126.15 54.8342 126.272 54.9397C126.272 54.9936 126.303 55.0499 126.361 55.1015C126.303 55.0499 126.272 54.9936 126.272 54.9374C126.217 54.8928 126.186 54.7263 126.186 54.4567C126.186 53.976 126.272 53.3711 126.447 52.6184C126.567 52.2409 126.68 51.847 126.798 51.4085C126.923 50.9935 127.028 50.5597 127.158 50.1306L128.214 47.2466C128.338 46.7611 128.486 46.2815 128.655 45.8093C128.828 45.3333 129.008 44.8831 129.181 44.4493C129.356 43.971 129.534 43.5302 129.702 43.1316C129.894 42.7283 130.043 42.3508 130.158 41.9709ZM146.238 15.3464C145.942 15.3464 145.578 15.1611 145.136 14.7883C144.66 14.383 144.215 13.9441 143.804 13.4752C143.383 12.9927 143.013 12.4694 142.7 11.9136C142.405 11.379 142.227 10.9781 142.177 10.7131C142.177 10.3943 142.381 9.66504 142.789 8.51377C143.209 7.36953 143.718 6.16902 144.334 4.91693C144.944 3.66953 145.592 2.53232 146.271 1.51705C146.958 0.506465 147.507 0 147.915 0C148.386 0 148.962 0.293093 149.636 0.879279C150.308 1.46547 150.942 2.1173 151.534 2.84183C152.12 3.55698 152.638 4.24868 153.075 4.91693C153.512 5.58518 153.738 6.02365 153.738 6.23233C153.738 6.44805 153.414 7.03189 152.766 7.99558C151.297 10.1164 149.676 12.1325 147.915 14.0286C147.092 14.9102 146.535 15.3464 146.24 15.3464H146.238ZM145.712 49.8094C145.892 49.6453 146.079 49.4624 146.288 49.2467C146.492 49.0286 146.71 48.7941 146.95 48.5222C147.186 48.2595 147.39 47.9922 147.567 47.7273C147.742 47.4623 147.951 47.195 148.186 46.9301C148.417 46.6651 148.626 46.3978 148.798 46.1305L149.322 45.338C149.494 45.0707 149.672 44.8057 149.842 44.5337C150.02 44.2688 150.169 44.0343 150.282 43.8186C150.404 43.5958 150.514 43.3965 150.601 43.1761C150.667 42.9948 150.775 42.8304 150.915 42.6955C150.97 42.5313 151.038 42.3953 151.093 42.2922C151.015 42.4336 150.925 42.5685 150.824 42.6955C150.688 42.8244 150.571 42.9712 150.476 43.1316C150.354 43.3192 150.243 43.5208 150.128 43.7271C149.75 44.1892 149.395 44.6689 149.065 45.1645C148.89 45.4341 148.717 45.6967 148.537 45.964C148.359 46.2384 148.153 46.4963 147.925 46.7612C147.685 47.0285 147.481 47.2935 147.301 47.5585C147.118 47.8411 146.913 48.1099 146.689 48.3627C146.517 48.6147 146.325 48.8523 146.113 49.0732C145.904 49.2936 145.712 49.4952 145.537 49.7156C145.182 50.1377 144.92 50.4659 144.745 50.6699C144.657 50.8023 144.539 50.9124 144.399 50.9912L144.747 50.6699C145.033 50.5222 145.359 50.2362 145.712 49.8094ZM152.778 41.169C152.9 40.9064 153.006 40.6673 153.092 40.4515C153.166 40.2506 153.272 40.0623 153.406 39.8935L153.668 39.4011L153.406 39.8935C153.284 40.0389 153.159 40.2147 153.006 40.4C152.844 40.611 152.707 40.8391 152.598 41.0799C152.466 41.3761 152.304 41.6589 152.115 41.924C151.903 42.2188 151.709 42.5257 151.534 42.8432C151.356 43.1698 151.164 43.489 150.958 43.7998C150.754 44.1164 150.538 44.4704 150.294 44.8386L148.971 46.7612C148.802 47.0676 148.61 47.3607 148.395 47.6382C148.189 47.8946 147.997 48.1614 147.819 48.4377C147.668 48.6734 147.503 48.9004 147.325 49.1177C147.186 49.303 147.046 49.446 146.922 49.5562C146.855 49.6759 146.767 49.7831 146.662 49.8727L146.576 49.9431L146.662 49.8727C146.715 49.8258 146.763 49.793 146.802 49.793C146.833 49.793 146.905 49.7461 147.025 49.6382C147.145 49.4788 147.289 49.3194 147.464 49.1459C147.642 48.9841 147.819 48.7754 147.992 48.5081C148.17 48.2384 148.357 47.9758 148.568 47.7109C148.779 47.4389 149 47.1753 149.233 46.9207L150.555 44.9886C150.79 44.6182 151.018 44.2688 151.23 43.9546C151.436 43.6357 151.628 43.3145 151.801 42.9932C151.978 42.6744 152.158 42.3602 152.331 42.0389C152.495 41.7571 152.644 41.4676 152.778 41.1714V41.169Z" fill="#2D1940"/>
<path d="M211.097 33.735C211.328 33.3646 211.777 33.327 212.425 33.653C213.07 33.9719 213.721 34.4408 214.369 35.0528C215.017 35.6694 215.561 36.326 216.001 37.0153C216.435 37.7 216.577 38.2346 216.401 38.6051C215.278 40.6286 213.807 42.9311 211.981 45.5221C210.159 48.1056 208.137 50.549 205.933 52.8306C203.725 55.1285 201.394 57.0512 198.949 58.594C196.51 60.1415 194.105 60.9083 191.746 60.9083C190.923 60.9083 190.028 60.641 189.054 60.1087C188.065 59.5651 187.156 58.8939 186.351 58.1133C185.564 57.3552 184.855 56.5236 184.234 55.6303C183.642 54.7744 183.351 54.0358 183.351 53.391C183.351 52.1131 183.757 50.5445 184.551 48.6711C185.338 46.8117 186.351 44.8022 187.551 42.6357C188.824 40.366 190.109 38.1025 191.406 35.8453C192.703 33.5723 193.938 31.2658 195.109 28.9283C190.458 33.1418 186.512 37.163 183.272 41.0037C180.032 44.8374 177.361 48.2373 175.268 51.1963C173.175 54.1507 171.596 56.5142 170.545 58.2704C169.484 60.029 168.807 60.913 168.51 60.913C168.159 60.913 167.629 60.7395 166.916 60.3971C166.22 60.0524 165.476 59.5952 164.708 59.0372C163.963 58.4994 163.296 57.8661 162.723 57.1543C162.162 56.4744 161.883 55.7663 161.883 55.0769C161.883 54.6595 162.303 53.6302 163.158 52.0076C164.017 50.3804 165.085 48.4202 166.379 46.127C167.677 43.8338 169.078 41.3343 170.578 38.6144C172.04 35.9666 173.47 33.302 174.867 30.6212C169.618 35.5264 165.361 39.8548 162.092 43.6111C158.819 47.3744 156.212 50.5304 154.273 53.0886C152.807 55.0081 151.378 56.9546 149.987 58.927C149.077 60.2588 148.379 60.927 147.911 60.927C147.383 60.927 146.754 60.6902 146.051 60.2072C145.34 59.7181 144.675 59.1689 144.063 58.5659C143.49 58.0051 142.958 57.4049 142.472 56.7698C142.033 56.1836 141.8 55.7545 141.8 55.4896C141.8 55.377 142.081 54.7275 142.645 53.5294C143.207 52.3335 143.919 50.7954 144.812 48.9407C145.695 47.079 146.713 44.9546 147.865 42.5864C149.012 40.2183 150.169 37.8102 151.347 35.3553C152.523 32.905 153.692 30.4922 154.832 28.1147C155.991 25.7465 157.007 23.5987 157.88 21.6784C158.763 19.7627 159.483 18.1777 160.045 16.9209C160.607 15.6688 160.89 14.9372 160.89 14.7215C160.89 14.0814 161.216 13.8164 161.867 13.9219C162.515 14.0298 163.211 14.3252 163.945 14.8012C164.682 15.2795 165.38 15.854 166.021 16.5199C166.669 17.1882 166.993 17.7603 166.993 18.2386C166.993 18.5059 166.746 19.2398 166.239 20.4403C165.733 21.6362 165.063 23.1462 164.209 24.9587C163.355 26.7711 162.414 28.7712 161.382 30.9495C160.35 33.1371 159.303 35.3224 158.245 37.5054C160.424 35.2075 162.661 32.9003 164.965 30.5532C167.086 28.3781 169.239 26.2316 171.421 24.1145C173.418 22.1684 175.174 20.5036 176.67 19.1202C178.174 17.7298 179.214 16.8505 179.806 16.4801C179.929 16.3745 180.039 16.3206 180.159 16.3206C180.63 16.3206 181.177 16.5363 181.786 16.9584C182.403 17.3875 182.998 17.9361 183.56 18.5974C184.117 19.2703 184.587 19.9878 184.971 20.7569C185.36 21.5306 185.552 22.2364 185.552 22.8765C185.552 23.1954 185.415 23.7417 185.149 24.5178C184.885 25.2916 184.518 26.2084 184.045 27.2753C183.515 28.4685 182.972 29.6558 182.415 30.8369L180.512 34.8769C182.336 32.9542 184.227 30.9846 186.169 28.9588C188.115 26.9306 189.93 25.0548 191.605 23.3244C193.039 21.8365 194.512 20.3839 196.021 18.9678C197.278 17.7931 198.157 17.0756 198.629 16.8083C198.682 16.8083 198.718 16.7943 198.718 16.7638C198.718 16.7403 198.766 16.7239 198.891 16.7239L199.069 16.8036C199.189 16.8036 199.301 16.8318 199.417 16.8834C200.57 17.4624 201.59 18.265 202.414 19.2422C202.977 19.9067 203.438 20.6476 203.782 21.4415C204.166 22.2997 204.358 23.2259 204.358 24.2412C204.358 25.0384 204.034 26.2014 203.389 27.7184C202.736 29.2378 201.934 30.9307 200.955 32.7948C199.978 34.6612 198.939 36.6238 197.818 38.6684C196.7 40.7153 195.649 42.6779 194.684 44.5443C193.807 46.2074 192.994 47.9023 192.248 49.6254C191.602 51.1401 191.276 52.3031 191.276 53.1026C192.697 53.1026 194.254 52.5727 195.963 51.5035C197.672 50.4413 199.395 49.0064 201.128 47.1915C202.987 45.2386 204.712 43.1684 206.293 40.9944C208.028 38.6615 209.632 36.2382 211.097 33.735ZM148.623 45.0883C148.755 44.8749 148.875 44.6475 149.031 44.4083C149.171 44.1738 149.312 43.9136 149.43 43.6486C149.557 43.3813 149.682 43.0859 149.838 42.7717C149.982 42.4528 150.15 42.1574 150.325 41.8901L151.117 40.2136C151.237 39.9486 151.347 39.6837 151.465 39.4163C151.592 39.1537 151.695 38.9146 151.808 38.6989C151.932 38.5014 152.021 38.285 152.072 38.0587C152.13 37.843 152.199 37.6859 152.252 37.5734C152.307 37.4163 152.379 37.2803 152.43 37.1677C152.379 37.2803 152.291 37.4022 152.166 37.5734C151.955 37.9019 151.779 38.2498 151.638 38.6121C151.326 39.0653 151.062 39.5475 150.848 40.0518C150.72 40.3395 150.573 40.6191 150.409 40.8888C150.233 41.1818 150.087 41.4913 149.975 41.8127L149.178 43.4939C149.06 43.7588 148.947 44.0238 148.825 44.2911C148.707 44.5607 148.595 44.7975 148.477 45.0109C148.357 45.2782 148.268 45.5056 148.218 45.6909C148.165 45.8832 148.091 46.0215 148.043 46.1294C147.995 46.2692 147.936 46.4049 147.865 46.535C147.942 46.3929 148.03 46.2573 148.129 46.1294C148.255 46.0195 148.346 45.8773 148.393 45.719C148.422 45.569 148.508 45.3509 148.623 45.0859V45.0883ZM151.367 37.5734C150.901 38.4825 150.486 39.4155 150.123 40.3683C149.951 40.7458 149.799 41.0928 149.684 41.4047C149.827 41.0438 150.005 40.6968 150.215 40.3683C150.383 40.0518 150.582 39.6649 150.791 39.2147C150.997 38.7598 151.244 38.2393 151.539 37.6508C151.837 37.0646 152.142 36.4502 152.468 35.8101C152.792 35.1677 153.131 34.4783 153.486 33.7303C153.834 33.0386 154.187 32.3211 154.547 31.5732C154.899 30.8229 155.25 30.0796 155.605 29.3339C155.958 28.5883 156.311 27.8403 156.673 27.0947C157.021 26.3491 157.355 25.6058 157.65 24.8602C157.993 24.1099 158.312 23.4228 158.574 22.7827C158.838 22.1403 159.119 21.5283 159.419 20.9421L160.477 18.0628C160.523 17.9229 160.583 17.7878 160.657 17.6595C160.707 17.5539 160.77 17.4484 160.83 17.3406C160.884 17.2434 160.915 17.1349 160.919 17.024C160.799 17.3406 160.655 17.6899 160.477 18.0651C160.113 19.018 159.698 19.9517 159.234 20.8624C158.946 21.4486 158.639 22.0629 158.353 22.703C158.053 23.3431 157.739 24.0137 157.376 24.7007C157.079 25.451 156.764 26.192 156.407 26.94C156.056 27.6903 155.703 28.4312 155.346 29.1768C154.603 30.6595 153.879 32.1509 153.174 33.6506C152.499 35.0926 151.892 36.4034 151.367 37.5734ZM151.453 41.5688C151.626 41.196 151.818 40.8068 152.029 40.4129C152.233 40.0119 152.454 39.5992 152.691 39.1748C152.931 38.7528 153.167 38.312 153.399 37.8594C153.632 37.4046 153.87 36.9426 154.1 36.4573C154.333 35.9766 154.556 35.5053 154.763 35.0551C154.971 34.6049 155.163 34.1688 155.343 33.7397C155.574 33.3224 155.763 32.8815 155.919 32.4618C156.061 32.0398 156.227 31.6318 156.407 31.266C156.524 30.8932 156.637 30.5579 156.759 30.2672C156.877 29.9741 156.963 29.7185 157.019 29.5051C157.07 29.4201 157.101 29.3247 157.11 29.2261C157.11 29.1464 157.141 29.0807 157.194 29.0268C157.194 28.9729 157.23 28.9166 157.285 28.8673C157.285 28.9166 157.249 28.9729 157.194 29.0268C157.135 29.0833 157.088 29.1511 157.057 29.2261C157.019 29.3237 156.973 29.4179 156.918 29.5075C156.798 29.7185 156.671 29.9576 156.519 30.225C156.38 30.4923 156.203 30.7853 156.03 31.0995C155.852 31.477 155.658 31.8663 155.454 32.2649C155.238 32.6658 155.029 33.0762 154.787 33.4982C154.556 33.9179 154.331 34.3611 154.117 34.816C153.913 35.2708 153.699 35.7351 153.455 36.2158C153.224 36.7011 153.008 37.1701 152.792 37.6531C152.581 38.1385 152.375 38.591 152.13 39.0131C151.892 39.4351 151.705 39.8572 151.554 40.2487C151.41 40.6544 151.237 41.0295 151.059 41.3977C150.887 41.7799 150.747 42.0964 150.661 42.359C150.57 42.6293 150.464 42.8946 150.344 43.1539C150.276 43.3253 150.188 43.4882 150.08 43.6392C150.032 43.6932 149.994 43.7447 149.994 43.7963C150.116 43.5759 150.258 43.3743 150.431 43.1539C150.555 42.9382 150.68 42.7154 150.836 42.4739C151.023 42.2511 151.22 41.944 151.453 41.5688ZM169.568 27.5004C170.038 27.0736 170.434 26.6562 170.751 26.2647C171.078 25.859 171.387 25.5284 171.685 25.2635C171.98 24.9446 172.246 24.6515 172.474 24.3842L171.591 25.1814C171.294 25.451 170.979 25.7676 170.617 26.1404C170.266 26.5156 169.849 26.9118 169.378 27.3362C168.908 27.8169 168.414 28.3093 167.919 28.8204C167.415 29.3246 166.873 29.8709 166.295 30.4618C165.699 31.048 165.119 31.6341 164.521 32.2156C163.926 32.8065 163.347 33.388 162.757 33.9789C161.514 35.2591 160.374 36.4549 159.308 37.5734C158.713 38.1596 158.187 38.7293 157.717 39.2897C157.239 39.8525 156.769 40.3449 156.301 40.7716C155.879 41.1892 155.48 41.6283 155.106 42.087C154.824 42.4447 154.514 42.7796 154.177 43.0882L153.913 43.4493C153.838 43.5538 153.749 43.6483 153.649 43.7307L153.385 43.9675C153.615 43.7049 153.894 43.4048 154.177 43.0882C154.472 42.8233 154.791 42.4973 155.149 42.1339C155.504 41.7611 155.917 41.3601 156.397 40.9334C157.338 40.026 158.387 38.9802 159.534 37.8102C160.683 36.6378 161.838 35.435 163.019 34.218C164.187 32.9941 165.359 31.7936 166.501 30.6282C167.665 29.4465 168.685 28.4101 169.568 27.498V27.5004ZM171.685 38.3729C172.038 37.6859 172.292 37.1232 172.474 36.6941C172.602 36.4737 172.705 36.272 172.825 36.0493C172.76 36.2874 172.64 36.5079 172.474 36.6941C172.338 36.9379 172.193 37.1764 172.038 37.4092C171.852 37.6969 171.676 37.9902 171.51 38.2885C171.01 39.0275 170.567 39.8009 170.182 40.6028C169.89 41.0185 169.638 41.4596 169.429 41.9205C169.216 42.3787 168.965 42.8187 168.678 43.2359C168.395 43.6916 168.131 44.1578 167.886 44.6334C167.653 45.0883 167.413 45.5244 167.185 45.9511C166.95 46.3755 166.729 46.7953 166.518 47.1868C166.311 47.5925 166.119 47.97 165.942 48.3451C165.594 49.1001 165.33 49.6535 165.15 50.024C165.03 50.2397 164.941 50.4531 164.886 50.6641L165.241 50.024C165.416 49.6488 165.711 49.1212 166.122 48.4296C166.542 47.7449 166.998 46.9453 167.49 46.0707C168.001 45.1915 168.474 44.3005 168.944 43.393C169.242 42.9669 169.495 42.512 169.698 42.0354C169.911 41.5548 170.154 41.1022 170.456 40.6755L171.114 39.4797C171.313 39.1233 171.505 38.7457 171.685 38.3729ZM183.085 26.7805C182.981 26.9548 182.906 27.1439 182.862 27.3409C182.836 27.4813 182.789 27.6172 182.722 27.7442C182.676 27.8737 182.647 28.0085 182.636 28.1452C182.721 28.0535 182.782 27.9433 182.814 27.8239C182.871 27.7208 182.934 27.5895 182.994 27.4253C183.044 27.2659 183.13 27.0783 183.253 26.8649C183.433 26.4405 183.632 25.988 183.872 25.505C184.102 25.022 184.28 24.5202 184.4 23.9879C184.577 23.4443 184.666 22.8771 184.664 22.3067C184.608 22.1661 184.577 22.0169 184.573 21.8659C184.571 21.7407 184.54 21.6174 184.484 21.5048C184.357 21.1883 184.275 20.9726 184.22 20.8671C184.045 20.4427 183.872 20.1472 183.692 19.9878C183.632 19.9409 183.606 19.8565 183.606 19.7533C183.606 19.6994 183.57 19.6713 183.519 19.6713V19.751C183.519 19.8612 183.546 19.9386 183.606 19.9854C183.726 20.0957 183.798 20.227 183.829 20.3887C183.86 20.5552 183.934 20.7405 184.052 20.9515C184.171 21.1437 184.232 21.3646 184.23 21.5893C184.282 21.7534 184.318 21.9926 184.318 22.3114C184.316 22.8486 184.254 23.384 184.134 23.9082C184.014 24.1755 183.922 24.4264 183.874 24.6702C183.814 24.9094 183.726 25.165 183.61 25.4323C183.499 25.6627 183.41 25.903 183.344 26.1498C183.289 26.3655 183.2 26.5695 183.085 26.7805ZM189.183 26.9423C189.536 26.5156 189.903 26.1123 190.29 25.7395C190.674 25.369 191.038 24.9938 191.394 24.6187C191.744 24.1943 192.085 23.8191 192.406 23.5002C192.733 23.1837 193.038 22.8578 193.333 22.5412C193.63 22.2739 193.878 22.0113 194.089 21.744C194.293 21.4744 194.49 21.261 194.665 21.0992C194.75 21.0319 194.824 20.9529 194.886 20.8647C194.923 20.8036 194.97 20.7483 195.025 20.7006L195.193 20.5435L194.667 21.0265C194.499 21.1836 194.271 21.397 194.005 21.6643C193.732 21.9384 193.452 22.205 193.165 22.4638C192.862 22.7311 192.546 23.0219 192.198 23.3408C191.829 23.6754 191.472 24.0218 191.127 24.3795C190.777 24.8086 190.41 25.1955 190.026 25.5401C189.642 25.8872 189.272 26.2717 188.922 26.6961C188.502 27.1252 188.13 27.5261 187.77 27.8966C187.414 28.2718 187.033 28.6469 186.608 29.0174C186.31 29.4418 186.008 29.817 185.679 30.1405C185.358 30.4571 185.048 30.7783 184.753 31.0972C184.493 31.3714 184.242 31.6529 183.999 31.9413C183.788 32.1734 183.601 32.3727 183.423 32.5345C183.229 32.7057 183.051 32.8941 182.893 33.0973L183.423 32.6142C183.601 32.4525 183.819 32.2532 184.086 32.0163C184.35 31.7819 184.63 31.5005 184.926 31.1793C185.223 30.912 185.53 30.6165 185.854 30.3C186.181 29.9811 186.522 29.6083 186.874 29.1792C187.225 28.804 187.592 28.4312 187.976 28.0561C188.377 27.6856 188.773 27.3128 189.183 26.9423ZM185.384 48.8469C185.495 48.7056 185.572 48.5423 185.612 48.3686C185.634 48.2261 185.68 48.0882 185.749 47.9606C185.781 47.8416 185.843 47.7322 185.929 47.6417C185.866 47.6417 185.84 47.6722 185.84 47.7167C185.84 47.7636 185.816 47.8152 185.792 47.841C185.756 47.8762 185.746 47.9043 185.746 47.9653C185.617 48.0731 185.444 48.3405 185.218 48.7625L184.69 49.9607C184.568 50.235 184.479 50.4835 184.429 50.7274C184.378 50.9619 184.304 51.2245 184.256 51.4918C184.198 51.7614 184.143 52.0147 184.117 52.2585C184.083 52.493 184.069 52.7579 184.069 53.0229C184.069 53.5059 184.158 53.9303 184.328 54.3008C184.386 54.5189 184.453 54.6947 184.508 54.8237C184.561 54.955 184.628 55.0746 184.681 55.1824L184.945 55.4192C184.887 55.4192 184.858 55.3864 184.858 55.3395C184.858 55.2879 184.839 55.2574 184.813 55.2574C184.779 55.2574 184.765 55.2082 184.765 55.1027C184.655 54.8427 184.567 54.5745 184.501 54.3008C184.381 53.8735 184.334 53.4299 184.362 52.9877C184.386 52.5305 184.462 52.0358 184.587 51.5035C184.64 51.2409 184.707 51.0041 184.765 50.7907C184.813 50.5726 184.88 50.3382 184.94 50.0662C185.121 49.6718 185.269 49.2641 185.384 48.8469ZM189.536 41.0108C189.769 40.5301 190.026 40.0494 190.29 39.5734C190.551 39.0928 190.83 38.5887 191.13 38.0541C191.423 37.5767 191.688 37.0826 191.922 36.5745C192.154 36.0681 192.43 35.5757 192.716 35.0879C192.944 34.6659 193.186 34.2298 193.417 33.8101C193.647 33.3833 193.851 32.9472 194.024 32.5251C194.204 32.15 194.355 31.8217 194.518 31.5286C194.655 31.2308 194.797 30.9495 194.919 30.6822C195.028 30.4384 195.146 30.1984 195.272 29.9623C195.216 30.2266 195.094 30.4736 194.919 30.6822C194.795 30.9599 194.648 31.2272 194.48 31.4817C194.307 31.749 194.096 32.0726 193.868 32.436L192.452 34.9918C192.154 35.4842 191.876 35.9508 191.612 36.4362C191.346 36.9239 191.065 37.421 190.77 37.9532C190.474 38.4287 190.209 38.9221 189.978 39.4304C189.75 39.9176 189.486 40.3878 189.188 40.8373C188.718 41.7939 188.276 42.6802 187.851 43.4751C187.621 43.8972 187.438 44.2536 187.335 44.556C187.203 44.8515 187.1 45.1 186.978 45.3181L186.63 45.9652C186.697 45.7277 186.816 45.507 186.978 45.3181C187.1 45.1 187.242 44.8491 187.417 44.556C187.597 44.2536 187.806 43.9276 188.026 43.5572C188.262 43.1304 188.504 42.6966 188.732 42.2746C188.981 41.8418 189.249 41.4201 189.536 41.0108ZM194.49 22.2223C194.842 21.8495 195.178 21.4744 195.507 21.0992C195.831 20.7287 196.131 20.4122 196.431 20.1425C196.553 20.0393 196.659 19.9183 196.743 19.7838C196.831 19.6511 196.936 19.5297 197.055 19.4227L197.319 19.1882L197.055 19.4227C196.937 19.5338 196.804 19.6278 196.659 19.7017C196.515 19.7815 196.376 19.8752 196.251 19.9808C195.923 20.2825 195.601 20.5897 195.284 20.9022C194.913 21.2733 194.558 21.6597 194.221 22.0605C193.873 22.4334 193.525 22.8085 193.206 23.1837C192.882 23.5588 192.577 23.873 192.274 24.1403C191.926 24.5624 191.713 24.8273 191.665 24.9375C191.547 25.0454 191.487 25.1251 191.487 25.1767L192.459 24.2951C192.757 24.0278 193.078 23.7206 193.431 23.376C193.784 23.0383 194.132 22.6491 194.487 22.2223H194.49Z" fill="#2D1940"/>
<path d="M249.355 33.9765C250.056 34.2954 250.685 34.8019 251.21 35.4936C251.731 36.1782 252 36.9801 252 37.8852C252 38.4198 251.647 39.3765 250.932 40.7271C250.236 42.0823 249.238 43.6228 247.975 45.3251C246.573 47.1893 245.05 48.9647 243.418 50.6406C241.631 52.4956 239.681 54.1935 237.591 55.7147C235.506 57.2472 233.236 58.5237 230.832 59.5155C228.502 60.493 225.993 60.998 223.457 60.9997C221.739 60.9997 220.001 60.4956 218.235 59.4803C216.434 58.4417 214.812 57.133 213.428 55.6021C211.977 54.0195 210.784 52.2283 209.89 50.2913C208.978 48.3217 208.522 46.3755 208.522 44.4482C208.522 42.6357 208.86 40.6802 209.537 38.5769C210.248 36.4123 211.18 34.3234 212.321 32.3422C213.515 30.2578 214.871 28.266 216.377 26.3842C217.826 24.5533 219.456 22.8663 221.244 21.3477C222.822 19.998 224.553 18.8304 226.404 17.8681C228.142 16.9889 229.836 16.5527 231.487 16.5527C233.609 16.5527 235.303 16.9889 236.566 17.8681C237.828 18.7474 238.791 19.7346 239.441 20.8225C240.084 21.9175 240.456 22.9046 240.545 23.7816C240.629 24.6609 240.559 25.097 240.319 25.097C240.14 25.1069 239.96 25.0798 239.791 25.0173C239.839 25.233 239.875 25.6034 239.875 26.1404C239.875 27.7934 239.453 29.5403 238.599 31.3692C236.845 35.1255 233.88 38.2172 230.158 40.1713C228.314 41.1468 226.25 41.6554 224.153 41.6509C222.617 41.6509 221.319 41.4117 220.217 40.924C219.13 40.4316 218.201 39.8642 217.435 39.2123C216.14 42.1573 215.492 44.8866 215.492 47.3932C215.492 48.3006 215.544 49.2221 215.667 50.16C215.787 51.0979 215.991 51.9279 216.281 52.6806C216.579 53.4309 217.004 54.0593 217.56 54.5587C218.119 55.0675 218.837 55.3231 219.727 55.3231C222.319 55.3231 224.763 54.8541 227.057 53.9233C229.312 53.0138 231.435 51.8187 233.371 50.3686C235.24 48.9696 236.958 47.389 238.5 45.651C239.897 44.0785 241.208 42.4357 242.429 40.7294C243.547 39.1584 244.426 37.8055 245.078 36.6566C245.726 35.5123 246.166 34.7503 246.415 34.3775C246.938 33.5779 247.764 33.3903 248.88 33.8147L249.355 33.9765ZM214.277 31.7326C214.455 31.5145 214.613 31.3106 214.764 31.0948C214.913 30.8768 215.076 30.6681 215.254 30.4547C215.381 30.239 215.518 30.0444 215.693 29.8592C215.871 29.6716 216.017 29.4676 216.132 29.2566L216.927 28.3022C217.22 27.9834 217.486 27.7043 217.719 27.4581C217.949 27.219 218.131 26.9939 218.235 26.7782C218.324 26.712 218.403 26.6329 218.467 26.5437C218.501 26.4898 218.539 26.4335 218.604 26.3796L218.784 26.2248L218.604 26.3819C218.554 26.4307 218.508 26.4841 218.467 26.5413C218.403 26.6323 218.324 26.7129 218.235 26.7805C218.069 26.94 217.851 27.1393 217.63 27.3784C217.397 27.6176 217.119 27.8732 216.838 28.1405C216.718 28.2999 216.574 28.4593 216.399 28.6235C216.221 28.7856 216.073 28.9759 215.96 29.1862C215.787 29.341 215.621 29.5145 215.472 29.6997C215.328 29.8873 215.16 30.0866 214.983 30.2976C214.805 30.5087 214.647 30.7244 214.496 30.9377C214.341 31.158 214.176 31.3708 214.001 31.5755C213.742 32.0497 213.447 32.5042 213.118 32.9355C212.998 33.2028 212.888 33.4419 212.768 33.653C212.648 33.8734 212.535 34.1102 212.42 34.3704C212.295 34.6377 212.189 34.8722 212.069 35.095C211.949 35.3107 211.836 35.5452 211.714 35.8125C211.602 36.0144 211.514 36.2284 211.452 36.4502C211.399 36.6757 211.31 36.8917 211.188 37.0904C211.068 37.625 210.956 38.047 210.843 38.3776C210.718 38.7997 210.629 39.1584 210.576 39.4515C210.523 39.7299 210.494 40.0123 210.49 40.2956C210.436 40.5327 210.436 40.7784 210.49 41.0155V40.7763C210.49 40.6192 210.524 40.4574 210.576 40.2956C210.638 40.1705 210.669 40.0334 210.668 39.8947C210.668 39.7282 210.696 39.5898 210.752 39.4843C210.804 39.2616 210.896 38.8935 211.016 38.3589C211.134 38.2082 211.21 38.0307 211.239 37.843C211.277 37.6554 211.347 37.4327 211.469 37.163C211.589 36.9657 211.676 36.7513 211.728 36.5276C211.788 36.3096 211.872 36.1056 211.995 35.8852C212.102 35.6409 212.219 35.4007 212.345 35.1653C212.465 34.9473 212.578 34.7151 212.698 34.4478C212.816 34.2321 212.938 34.0258 213.099 33.8077C213.238 33.5896 213.377 33.3575 213.497 33.0902C213.622 32.8206 213.744 32.5861 213.905 32.3657C214.034 32.1572 214.158 31.9462 214.277 31.7326ZM216.488 27.4957C216.386 27.6211 216.298 27.7562 216.224 27.899L216.044 28.2178C216.101 28.1124 216.177 28.0173 216.267 27.9365C216.358 27.8567 216.459 27.7372 216.586 27.5777C216.884 27.3104 217.2 26.9798 217.558 26.5765C217.911 26.1779 218.331 25.7652 218.806 25.3385C219.036 25.0735 219.276 24.8367 219.502 24.621C219.732 24.4076 220.013 24.1708 220.291 23.9035C220.591 23.6362 220.889 23.3853 221.175 23.1415C221.47 22.9046 221.763 22.6467 222.058 22.3794C222.351 22.1098 222.67 21.8612 223.025 21.615C223.383 21.3735 223.726 21.1226 224.083 20.8553C224.441 20.5904 224.806 20.3629 225.187 20.1754C225.565 19.9934 225.933 19.7939 226.291 19.5775C227.115 19.1554 227.943 18.8318 228.763 18.6208C229.469 18.3535 230.299 18.1683 231.235 18.0604H232.426C232.81 18.0604 233.211 18.112 233.616 18.2198C233.743 18.2198 233.83 18.2316 233.88 18.2621C233.964 18.2953 234.054 18.3089 234.144 18.3019C234.225 18.3433 234.313 18.371 234.403 18.384C234.459 18.384 234.547 18.4145 234.667 18.4637C234.795 18.5153 234.883 18.5434 234.931 18.5434C234.984 18.5434 235.075 18.5692 235.195 18.6231C235.313 18.731 235.459 18.7849 235.635 18.7849C236.163 19.0006 236.698 19.2867 237.233 19.6619C237.455 19.7629 237.66 19.8974 237.84 20.0605C238.02 20.2223 238.193 20.3559 238.373 20.4638C238.491 20.574 238.596 20.6818 238.683 20.7827C238.765 20.8852 238.872 20.9659 238.995 21.0171C239.115 21.1297 239.206 21.1813 239.261 21.1813C239.188 21.1125 239.128 21.0315 239.083 20.9421C238.863 20.7433 238.657 20.5302 238.467 20.3043C238.315 20.1726 238.153 20.0526 237.982 19.9456C237.763 19.8014 237.567 19.6259 237.401 19.425C237.113 19.3246 236.844 19.1754 236.609 18.9842C236.362 18.7906 236.099 18.618 235.822 18.4684C235.636 18.4528 235.456 18.3976 235.294 18.3066C235.16 18.2117 235.015 18.1322 234.862 18.0698C234.653 18.0354 234.447 17.9829 234.247 17.9127C234.163 17.8723 234.074 17.8446 233.981 17.8306C233.889 17.821 233.799 17.7939 233.717 17.7509C232.834 17.5915 231.979 17.5375 231.156 17.5915C230.736 17.6454 230.316 17.6993 229.879 17.7509C229.413 17.8108 228.955 17.9176 228.511 18.0698C227.656 18.3 226.829 18.6208 226.044 19.0264C225.617 19.2182 225.201 19.431 224.796 19.6642L223.637 20.384C223.301 20.6513 222.948 20.9186 222.631 21.1813C222.307 21.4509 221.959 21.7206 221.619 21.9832C220.971 22.5131 220.395 23.0477 219.898 23.5776C219.394 24.1122 218.914 24.6187 218.443 25.0946C217.973 25.58 217.589 26.0325 217.289 26.4569C216.989 26.886 216.72 27.2307 216.488 27.4957ZM220.459 36.8535C222.879 36.8535 224.911 36.3775 226.553 35.4209C228.141 34.5222 229.525 33.3176 230.621 31.8803C231.666 30.5119 232.496 28.9984 233.083 27.3901C233.683 25.8004 234.154 24.3701 234.497 23.0993C234.329 23.0993 234.156 23.0852 233.979 23.0571C233.804 23.0299 233.627 23.0158 233.451 23.0149C232.332 23.0149 231.108 23.3853 229.783 24.1309C228.447 24.8719 227.134 25.8778 225.809 27.1486C224.409 28.5028 223.123 29.9643 221.962 31.5192C220.714 33.1629 219.627 34.8535 218.686 36.6097C219.111 36.7738 219.694 36.8535 220.462 36.8535H220.459ZM232.392 54.1226C232.687 53.9631 232.949 53.806 233.187 53.6396C233.419 53.4801 233.619 53.3488 233.791 53.2386C234.024 53.0792 234.211 52.9408 234.322 52.8283C234.195 52.9432 234.017 53.0628 233.794 53.2386C233.619 53.3488 233.386 53.4637 233.129 53.595L232.284 54.0382C231.938 54.1652 231.599 54.31 231.269 54.4719C230.885 54.6572 230.479 54.8002 230.081 54.9057C229.848 55.0159 229.625 55.098 229.419 55.1402C229.19 55.2016 228.967 55.28 228.751 55.3747C228.519 55.4872 228.295 55.5622 228.079 55.6138C227.875 55.6607 227.633 55.7193 227.331 55.7709C227.122 55.8715 226.898 55.9403 226.668 55.9749C226.459 56.0007 226.248 56.0687 226.001 56.1742C225.771 56.2258 225.531 56.268 225.303 56.3032C225.07 56.329 224.823 56.3641 224.602 56.4204C224.009 56.5377 223.601 56.6103 223.363 56.6619C223.123 56.6619 222.919 56.6737 222.739 56.6995C222.568 56.7346 222.394 56.7503 222.219 56.7463C221.988 56.7932 221.657 56.8261 221.247 56.8261C221.014 56.873 220.735 56.9058 220.455 56.9058C220.349 56.903 220.244 56.9164 220.143 56.9456C220.069 56.9769 219.99 56.9929 219.91 56.9925H219.742H221.23C221.647 56.9925 221.967 56.9574 222.204 56.9128C222.679 56.9128 223.059 56.8777 223.363 56.8331C223.656 56.8331 224.091 56.7862 224.688 56.6783L225.351 56.5494C225.559 56.5259 225.807 56.4955 226.099 56.4251C226.335 56.3782 226.555 56.336 226.771 56.3102C226.98 56.2751 227.225 56.2164 227.525 56.1039C227.734 56.0032 227.957 55.9344 228.187 55.8999C228.419 55.863 228.644 55.7927 228.855 55.6912L230.184 55.2152C230.597 54.9901 230.988 54.8049 231.377 54.6431C231.761 54.5141 232.097 54.3313 232.392 54.1226ZM233.28 28.6164C233.223 28.6704 233.187 28.7243 233.187 28.7782C233.133 28.8313 233.102 28.9027 233.1 28.9775C233.095 29.0774 233.063 29.1742 233.009 29.2589C232.889 29.4746 232.767 29.7114 232.613 29.9764C232.464 30.2437 232.272 30.5626 232.037 30.9377C231.827 31.274 231.592 31.5938 231.331 31.8944C231.049 32.2758 230.754 32.6488 230.448 33.0128C230.268 33.1802 230.094 33.353 229.925 33.531C229.75 33.7186 229.572 33.8945 229.395 34.0469C229.172 34.1969 228.969 34.3716 228.787 34.5674C228.611 34.7468 228.4 34.8916 228.168 34.9942L227.561 35.4865C227.461 35.5815 227.338 35.6501 227.203 35.6859C227.07 35.7241 226.949 35.7942 226.851 35.8898C226.404 36.1509 225.931 36.3662 225.439 36.5323C225.209 36.6378 224.964 36.7199 224.736 36.7668C224.506 36.8137 224.263 36.9028 224.031 37.0059C223.603 37.1472 223.155 37.2239 222.703 37.2334L221.643 37.4819H220.755C220.556 37.5373 220.35 37.5642 220.143 37.5616H219.965H221.64C221.813 37.5616 221.993 37.5476 222.171 37.5147C222.343 37.4866 222.55 37.4702 222.778 37.4702C222.955 37.4186 223.162 37.3717 223.392 37.3412C223.625 37.3084 223.863 37.2756 224.091 37.2099C224.323 37.1021 224.561 37.0224 224.794 36.9755C225.024 36.9286 225.264 36.8442 225.502 36.7457C225.795 36.6355 226.039 36.5206 226.251 36.4268C226.457 36.3213 226.704 36.2111 227.002 36.1102C227.099 36.0148 227.22 35.9454 227.352 35.9086C227.485 35.8714 227.606 35.8011 227.703 35.7046L228.319 35.2192C228.585 35.1335 228.825 34.9835 229.015 34.7831C229.191 34.5955 229.407 34.4197 229.635 34.2673C229.812 34.0492 229.985 33.8616 230.158 33.7045C230.338 33.5474 230.511 33.3599 230.683 33.1395C230.799 32.9328 230.947 32.7452 231.123 32.5838C231.302 32.4226 231.451 32.2322 231.564 32.021C231.679 31.803 231.785 31.613 231.876 31.4583C231.963 31.2988 232.068 31.1394 232.193 30.9753C232.423 30.6048 232.594 30.2882 232.68 30.0186C232.769 29.7536 232.872 29.5192 232.992 29.2988L233.28 28.6164Z" fill="#2D1940"/>
</svg>
