<svg width="252" height="59" viewBox="0 0 252 59" fill="none" xmlns="http://www.w3.org/2000/svg">
<path d="M6.61795 18.3112C28.9188 10.9858 31.2598 18.0068 31.2598 28.3814V57.9781H24.4369V30.7225C24.4369 22.2737 23.7233 19.5314 6.82284 25.6343V57.9828H0V15.2574H5.59817L6.61795 18.3112ZM79.7262 36.6225C79.7262 51.9814 76.7658 59 62.6185 59C48.4641 59 45.5084 51.979 45.5084 36.6225C45.5084 21.3604 48.4641 14.2473 62.6185 14.2473C76.7658 14.2426 79.7262 21.3604 79.7262 36.6225ZM72.901 36.6225C72.901 24.0083 70.1526 21.0559 62.6185 21.0559C55.082 21.0559 52.3312 24.0036 52.3312 36.6225C52.3312 49.3429 55.082 52.1843 62.6185 52.1843C70.1526 52.182 72.901 49.3334 72.901 36.6225ZM116.174 21.974C112.003 22.1769 108.742 22.8873 101.82 25.5328V57.9781H94.9969V15.2574H100.597L101.615 18.2074C107.218 16.1754 110.984 15.2574 116.177 15.2574L116.174 21.974ZM155.884 56.758C136.744 60.8361 134.702 54.5254 134.702 44.8612V22.0754H129.415V15.2598H134.702V0H141.525V15.2574H152.825V22.0754H141.525V42.926C141.525 50.2515 142.55 52.5902 154.657 50.2515L155.884 56.758ZM205.469 36.6225C205.469 51.9814 202.509 59 188.359 59C174.203 59 171.252 51.979 171.252 36.6225C171.252 21.3604 174.203 14.2473 188.359 14.2473C202.509 14.2426 205.469 21.3604 205.469 36.6225ZM198.651 36.6225C198.651 24.0083 195.905 21.0559 188.366 21.0559C180.837 21.0559 178.086 24.0036 178.086 36.6225C178.086 49.3429 180.837 52.1843 188.366 52.1843C195.905 52.182 198.651 49.3334 198.651 36.6225ZM227.358 18.3112C249.661 10.9882 252 18.0068 252 28.379V57.9781H245.18V30.7225C245.18 22.2737 244.468 19.5314 227.565 25.6343V57.9828H220.745V15.2574H226.348L227.358 18.3112Z" fill="#2D1940"/>
</svg>
