<svg width="242" height="150" viewBox="0 0 242 150" fill="none" xmlns="http://www.w3.org/2000/svg">
<path d="M73.6164 133.334V136.925C73.6164 141.216 73.2114 144.199 72.4064 145.864C71.0844 148.622 68.4784 150 64.5886 150C59.532 150 56.1848 148.118 54.5672 144.331C53.2426 141.277 52.5879 135.471 52.5879 126.899V124.601C52.5879 123.871 52.6236 123.122 52.6923 122.32C52.6923 118.474 51.7855 115.869 49.9667 114.519C48.1504 113.174 45.5342 112.504 42.1157 112.504H29.2489V141.789C29.2489 143.974 29.3763 145.362 29.631 145.951C29.8857 146.526 30.4334 146.99 31.2766 147.311C32.1147 147.637 33.8265 147.843 36.4197 147.907C39.0079 147.975 41.731 148.016 44.5815 148.016V148.991H0V147.907C7.66758 147.907 12.2681 147.616 13.8042 147.036C14.5302 146.745 15.0448 146.328 15.3377 145.777C15.6281 145.23 15.7784 143.916 15.7784 141.794V85.6211C15.7784 83.5838 15.6281 82.3078 15.3377 81.7934C15.1925 81.5031 14.7187 81.2128 13.9163 80.9224C11.7943 80.1151 7.15811 79.7178 0 79.7178V78.7322H44.8082C52.6949 78.7322 58.9742 80.846 63.6511 85.0583C67.3779 88.4124 69.2375 91.8632 69.2375 95.4312C69.2375 99.6587 67.7728 103.11 64.8382 105.804C61.3152 109.071 55.7441 111.157 48.1173 112.023C55.902 113.546 61.0452 117.858 63.5441 124.976C64.8025 128.539 65.4317 133.9 65.4317 141.079C65.4317 143.19 65.6152 144.713 65.9845 145.645C66.3513 146.6 67.2429 147.071 68.6414 147.071C70.1953 147.071 71.2652 145.849 71.8587 143.424C72.4497 140.987 72.7452 137.628 72.7452 133.334H73.6164V133.329V133.332V133.334ZM29.2489 111.318H39.3951C44.6987 111.318 48.6242 110.332 51.1767 108.358C54.231 106.015 55.7568 102.073 55.7568 96.5033C55.7568 90.3632 54.5061 86.0261 51.9995 83.5099C49.4878 80.9785 45.3253 79.7229 39.5122 79.7229H34.2672C32.7413 79.7229 31.6052 79.8324 30.8869 80.054C30.1609 80.2781 29.6998 80.7289 29.5215 81.419C29.3432 82.1143 29.2514 83.5252 29.2514 85.6543L29.2464 111.315L29.2489 111.318ZM115.304 124.51H94.1941L90.8214 134.141C89.9502 136.548 89.5146 138.624 89.5146 140.381C89.5146 143.081 90.5335 145.016 92.5791 146.177C94.6271 147.339 97.5108 147.929 101.235 147.929V149.017H73.405V147.929C78.4488 147.929 82.3539 146.037 85.1305 142.258C86.6615 140.149 88.6306 135.787 91.0455 129.165L109.557 77.8613H111.748L135.408 141.82C136.498 144.8 137.594 146.57 138.689 147.122C139.779 147.67 143.07 147.937 148.54 147.937V149.027H108.126V147.932C113.595 147.932 117.362 147.738 119.408 147.334C121.456 146.929 122.478 146.111 122.478 144.873L122.253 143.783L115.299 124.502L115.304 124.512V124.51ZM114.756 123.308L104.743 95.561L94.7316 123.308H114.756ZM185.26 96.3887L171.418 149.458H167.698L143.593 85.8274C142.497 82.8427 141.384 81.0752 140.24 80.5226C139.109 79.9776 136.03 79.7051 130.996 79.7051V78.7271H168.358V79.7076C163.905 79.7076 160.818 79.9445 159.101 80.4156C157.382 80.8868 156.528 81.8189 156.528 83.1992C156.528 83.9378 156.757 84.8036 157.191 85.8274L174.385 131.585L184.389 93.6561L182.053 85.8656C181.169 82.9242 180.102 81.172 178.848 80.5863C177.595 80.0107 174.388 79.7204 169.227 79.7204V78.7271H206.742V79.7102C202.31 79.7102 199.227 79.947 197.513 80.4182C195.806 80.8893 194.948 81.8876 194.948 83.4233C194.948 84.223 195.1 85.0278 195.401 85.8274L209.552 131.699L221.603 97.7411C222.839 94.1807 223.455 91.2571 223.455 89.0058C223.455 82.8147 219.074 79.7204 210.311 79.7204V78.7399H238.582V79.7204C233.385 79.7204 229.549 82.3741 227.067 87.6891C226.711 88.4939 225.351 92.0567 223.022 98.3828L205.058 149.455H201.441L185.26 96.3887ZM155.277 17.6539L141.44 70.7228H137.711L113.613 7.09265C112.517 4.11297 111.404 2.34554 110.273 1.80054C109.14 1.25299 106.052 0.983038 101.016 0.983038V0H138.373V0.980493C133.928 0.980493 130.841 1.22243 129.129 1.68594C127.402 2.16218 126.556 3.08919 126.556 4.46952C126.556 5.20043 126.775 6.0765 127.211 7.0952L144.405 52.8523L154.416 14.9264L152.07 7.1283C151.184 4.19956 150.122 2.44486 148.866 1.86166C147.62 1.27082 144.408 0.977945 139.247 0.977945V0H176.777V0.980493C172.335 0.980493 169.268 1.22243 167.556 1.68594C165.841 2.16218 164.993 3.16304 164.993 4.69363C164.993 5.49076 165.143 6.29552 165.441 7.0952L179.574 52.9618L191.639 19.0063C192.866 15.4408 193.491 12.5274 193.491 10.2659C193.491 4.08496 189.109 0.988131 180.344 0.988131V0H208.604V0.980493C203.413 0.980493 199.581 3.63673 197.1 8.94667C196.746 9.75144 195.381 13.3143 193.052 19.6429L175.088 70.7228H171.476L155.28 17.6539H155.277Z" fill="#2D1940"/>
<path d="M227.587 63.8897C228.555 65.7743 229.582 67.0171 230.659 67.6003C231.734 68.1911 232.96 68.484 234.33 68.484C236.546 68.484 238.014 67.2336 238.724 64.7276C239.438 62.2292 239.789 58.0271 239.789 52.106H241.063C241.063 60.0772 240.609 65.2344 239.682 67.585C238.037 71.7056 234.315 73.7557 228.461 73.7557C225.106 73.7557 222.217 71.9883 219.8 68.4407C219.275 67.6563 218.137 65.6215 216.341 62.3438C214.114 66.5358 211.822 69.4238 209.455 71.0027C206.633 72.844 202.57 73.7634 197.243 73.7634C194.097 73.7634 191.29 72.2608 188.804 69.2684C186.119 66.0086 184.769 62.0051 184.769 57.2478C184.769 55.4269 184.924 53.6926 185.253 52.0729C185.596 50.443 186.213 48.6119 187.122 46.605C188.829 42.6245 190.91 39.4793 193.371 37.1694C195.832 34.8595 198.369 33.4079 201 32.8196C200.248 31.4774 199.661 30.0494 199.25 28.5665C198.8 26.9614 198.581 25.3004 198.598 23.6335C198.598 20.1725 199.663 17.0196 201.8 14.1495C203.948 11.2895 206.747 9.85059 210.245 9.85059C213.391 9.85059 215.887 10.635 217.747 12.1987C219.596 13.7649 220.506 15.978 220.506 18.8456C220.506 21.4535 219.451 23.8296 217.347 25.9841C215.576 27.8076 213.174 29.3407 210.14 30.5708L221.086 51.4336L227.136 40.7552C228.38 38.4733 228.996 36.8001 228.996 35.761C228.996 34.3196 228.163 33.362 226.525 32.8705C224.869 32.3815 222.116 32.132 218.231 32.132V31.1565H242V32.132C239.249 32.132 236.847 32.6362 234.781 33.6498C232.715 34.6609 231.054 36.306 229.821 38.5854L221.767 53.145L227.585 63.8923V63.8897H227.587ZM215.734 61.0526L201.647 33.6905C199.108 34.4087 197.207 35.3841 195.974 36.6244C194.293 38.2492 193.07 40.7908 192.357 44.2468C192.086 45.6633 191.956 47.1034 191.97 48.5456C191.97 51.2172 192.337 53.8123 193.106 56.3183C193.858 58.8268 194.915 61.0603 196.278 63.0111C197.923 65.4865 199.554 67.3405 201.227 68.5757C202.885 69.821 204.478 70.4348 205.975 70.4348C207.738 70.4348 209.422 69.6199 211.019 67.9899C212.588 66.3626 214.165 64.0527 215.739 61.0526H215.734ZM209.896 29.789C212.43 28.6888 214.244 27.0003 215.347 24.7337C216.264 22.8542 216.71 20.4221 216.71 17.4424C216.71 15.6266 216.251 14.0552 215.289 12.7157C214.331 11.3863 213.062 10.7292 211.442 10.7292C209.165 10.7292 207.448 11.4397 206.281 12.8685C205.119 14.2946 204.529 15.8838 204.529 17.6283C204.529 18.9883 204.781 20.119 205.303 21.0282L209.896 29.789Z" fill="#2D1940"/>
</svg>
