<svg width="252" height="56" viewBox="0 0 252 56" fill="none" xmlns="http://www.w3.org/2000/svg">
<mask id="path-1-inside-1" fill="white">
<path fill-rule="evenodd" clip-rule="evenodd" d="M52.408 1.79637C52.408 2.05595 52.2216 2.21216 51.8489 2.26499C51.4761 2.31783 50.1474 2.39593 47.8605 2.4993C46.5186 2.55214 45.749 2.83698 45.5495 3.35844C45.3521 3.67085 45.2754 5.33629 45.3258 8.35704L45.4004 17.417C45.4508 23.4585 45.4749 31.3447 45.4749 41.0823V54.3598C45.4749 55.2442 45.2995 55.6876 44.9531 55.6876C44.4049 55.6876 40.7915 51.3781 34.1062 42.7615C27.4209 34.1449 20.0778 24.2901 12.077 13.1994V18.9791C12.077 20.9569 12.1011 22.6775 12.1515 24.1339V51.0795C12.1515 52.1729 12.4738 52.8483 13.1206 53.1102C14.1643 53.526 15.3812 53.735 16.7735 53.735C18.4136 53.735 19.3323 53.8659 19.5319 54.1255C19.5823 54.1784 19.6064 54.2817 19.6064 54.4379C19.6064 54.8537 19.2337 55.0628 18.4882 55.0628C18.0409 55.0628 17.6681 55.0375 17.3699 54.9847C15.5069 54.9097 13.643 54.8576 11.7788 54.8284C10.04 54.8284 7.7531 54.8813 4.92024 54.9847C3.52793 55.0375 2.93153 55.0628 3.13106 55.0628C2.38557 55.0628 2.01282 54.856 2.01282 54.4379C2.01282 54.0727 3.10694 53.8131 5.29298 53.6569C7.82765 53.4502 9.29452 53.0321 9.69138 52.4072C9.93915 51.9915 10.0641 50.117 10.0641 46.7838V14.6834C10.0641 11.4031 10.0137 9.42292 9.91503 8.74756C9.61683 6.4573 8.74636 4.78956 7.30581 3.74895C6.21169 2.96792 4.17475 2.52457 1.19279 2.4212C0.396865 2.36836 0 2.13406 0 1.71827C0 1.24965 0.348626 1.01534 1.04369 1.01534C1.34188 1.01534 2.40969 1.06818 4.2493 1.17155C5.14389 1.22438 6.48577 1.24965 8.27495 1.24965C11.952 1.24965 14.9339 1.19682 17.2208 1.09344L43.3876 36.318V5.38912C43.3876 4.13947 43.1902 3.34465 42.7912 3.00697C42.3943 2.66929 41.548 2.47403 40.2565 2.4212L37.0509 2.26499C36.4545 2.21216 36.1563 2.03068 36.1563 1.71827C36.1563 1.30249 36.6036 1.09344 37.4982 1.09344H39.1383C39.4365 1.09344 39.9342 1.06817 40.6292 1.01534H42.3439C47.365 1.01534 50.2965 1.04061 51.1407 1.09344C51.9848 1.14628 52.408 1.38059 52.408 1.79637ZM72.3038 10.7001C72.3038 15.5425 70.541 19.0572 67.0109 21.2441C64.7261 22.6499 62.6125 23.3529 60.6742 23.3529C60.3278 23.3529 60.1523 23.2219 60.1523 22.9623C60.1523 22.7028 60.3497 22.519 60.7487 22.4156C66.4145 21.0098 69.2473 17.9637 69.2473 13.2775C69.2473 10.413 68.2782 8.38461 66.3399 7.1855C66.3399 10.1029 65.123 11.5593 62.687 11.5593C61.2969 11.5593 60.1655 11.0907 59.295 10.1534C58.4267 9.21618 57.9904 8.01706 57.9904 6.56067C57.9904 4.8424 58.5758 3.46181 59.7445 2.4212C60.911 1.38059 62.4634 0.859134 64.4016 0.859134C66.8354 0.859134 68.7649 1.74354 70.1792 3.51464C71.5956 5.28345 72.306 7.67938 72.306 10.7001H72.3038ZM128.58 28.0391C128.58 35.8494 126.255 42.4491 121.609 47.8382C116.963 53.2273 111.26 55.9219 104.5 55.9219C97.8917 55.9219 92.226 53.1883 87.5031 47.7211C82.7824 42.2538 80.4209 35.6679 80.4209 27.9609C80.4209 20.0473 82.7692 13.4338 87.4658 8.12273C92.1624 2.81172 97.9904 0.156206 104.948 0.156206C111.657 0.156206 117.274 2.8255 121.796 8.16178C126.319 13.4981 128.58 20.1254 128.58 28.0391ZM115.459 29.2887C115.459 18.9285 114.293 11.2721 111.955 6.32636C110.416 3.09886 107.98 1.48396 104.649 1.48396C101.273 1.48396 98.5758 3.74895 96.5608 8.27894C94.548 12.8089 93.5415 18.8757 93.5415 26.477C93.5415 37.5148 95.3307 45.7685 98.9091 51.2357C100.4 53.526 102.562 54.6722 105.395 54.6722C108.675 54.6722 110.986 53.0321 112.328 49.7517C114.415 44.6498 115.459 37.8295 115.459 29.2887ZM161.3 26.0084C161.3 27.5176 160.877 28.7558 160.033 29.7183C159.186 30.6831 158.094 31.1632 156.753 31.1632C154.069 31.1632 152.727 29.8607 152.727 27.258C152.727 26.3736 153.049 25.4892 153.696 24.6025C153.845 24.3958 153.92 24.212 153.92 24.0558C153.92 23.5872 153.595 23.3529 152.951 23.3529C151.26 23.3529 149.969 24.7311 149.074 27.4923C148.576 29.0544 148.329 32.8814 148.329 38.9735V44.675L148.403 51.5481C148.403 52.954 149.074 53.7074 150.416 53.8131C151.21 53.8659 152.155 53.8912 153.249 53.8912C153.795 53.944 154.069 54.1255 154.069 54.4379C154.069 54.8537 153.845 55.0628 153.398 55.0628H151.907C151.46 55.0099 149.298 54.9847 145.421 54.9847C145.618 54.9847 144.5 55.0099 142.066 55.0628L138.414 55.1409H135.578C135.008 55.1964 134.436 55.2224 133.864 55.219C133.316 55.219 133.044 55.0352 133.044 54.6722C133.044 54.307 133.39 54.1255 134.087 54.1255C136.124 54.0727 137.354 53.8522 137.778 53.4616C138.199 53.0711 138.411 51.9134 138.411 49.986L138.337 28.8982C138.337 27.1294 138.1 25.905 137.629 25.2273C137.155 24.5497 136.1 24.1339 134.46 23.9777C133.167 23.8743 132.434 23.7939 132.261 23.7434C132.086 23.6905 131.998 23.5091 131.998 23.1967C131.998 22.8842 132.197 22.728 132.596 22.728C133.044 22.728 133.465 22.7533 133.864 22.8061H135.355C139.181 22.8061 143.305 21.9723 147.73 20.3068C147.978 21.3474 148.103 22.5466 148.103 23.8996V27.1799C149.046 24.6301 150.076 22.8314 151.194 21.7908C152.313 20.7502 153.768 20.2287 155.558 20.2287C157.246 20.2287 158.627 20.7754 159.695 21.8689C160.763 22.9623 161.296 24.3429 161.296 26.0084H161.3ZM194.615 45.4561C194.615 46.6023 193.968 48.1116 192.676 49.986C189.892 53.9946 186.265 56 181.792 56C176.771 56 172.649 54.3346 169.417 51.0014C166.187 47.6705 164.571 43.3978 164.571 38.1925C164.571 33.0905 166.137 28.8339 169.268 25.4226C172.399 22.0113 176.3 20.3068 180.972 20.3068C184.152 20.3068 186.862 21.035 189.098 22.4937C191.582 24.1086 193.198 26.4242 193.944 29.4449C194.141 30.3821 194.292 31.5009 194.391 32.8033C193.249 32.9067 188.651 32.9871 180.6 33.0377C179.356 33.0377 177.793 33.0905 175.903 33.1939C175.767 34.7781 175.692 36.3675 175.679 37.9582C175.679 44.0502 176.896 48.3712 179.332 50.9233C180.773 52.4325 182.538 53.1883 184.625 53.1883C186.364 53.1883 188.041 52.5635 189.657 51.3138C191.271 50.0663 192.544 48.3964 193.347 46.4714C193.744 45.4836 194.069 44.9874 194.317 44.9874C194.514 44.9874 194.615 45.1436 194.615 45.4561ZM185.222 31.8661C185.272 27.8576 184.998 25.0711 184.402 23.5091C183.805 21.947 182.761 21.166 181.27 21.166C178.238 21.166 176.499 24.7334 176.052 31.8661C177.096 31.8133 179.282 31.788 182.612 31.788C183.606 31.788 184.476 31.8133 185.222 31.8661ZM231.21 50.8452C231.21 51.261 230.813 51.833 230.017 52.5635C227.879 54.5941 225.246 55.6095 222.115 55.6095C220.075 55.6095 218.598 55.1661 217.679 54.2817C216.758 53.3973 216.151 51.8077 215.852 49.5174C213.616 53.7878 210.559 55.9219 206.683 55.9219C204.545 55.9219 202.82 55.219 201.502 53.8131C200.186 52.4072 199.528 50.5856 199.528 48.3459C199.528 41.7852 204.894 37.9053 215.629 36.7085V35.0683C215.629 29.8607 215.453 26.6608 215.107 25.4616L215.032 25.0711C214.337 22.4685 212.572 21.166 209.739 21.166C208.099 21.166 206.782 21.6599 205.788 22.6499C204.795 23.6377 204.297 24.6025 204.297 25.5397C204.297 26.0612 204.894 26.3736 206.087 26.477C207.876 26.6332 208.77 27.7795 208.77 29.9135C208.77 31.0598 208.411 32.0085 207.689 32.7643C206.968 33.5201 206.036 33.8968 204.894 33.8968C203.453 33.8968 202.271 33.442 201.353 32.53C200.432 31.618 199.974 30.4602 199.974 29.0544C199.974 26.8147 201.041 24.784 203.179 22.9623C205.317 21.1407 208.123 20.2287 211.603 20.2287C216.771 20.2287 220.374 21.1935 222.413 23.1185C224.053 24.7334 224.873 27.5452 224.873 31.5537V44.9093C224.873 47.512 224.897 49.0212 224.947 49.4393C225.195 51.6262 225.917 52.7197 227.109 52.7197C227.954 52.7197 228.997 52.0948 230.24 50.8452C230.488 50.5856 230.688 50.4547 230.837 50.4547C231.085 50.4547 231.21 50.5856 231.21 50.8452ZM215.629 41.5509V37.7239C210.807 38.7116 208.398 41.5762 208.398 46.3152C208.398 49.9608 209.59 51.7824 211.976 51.7824C213.318 51.7824 214.263 51.0014 214.809 49.4393C215.357 47.8773 215.629 45.247 215.629 41.5509ZM252 54.4379C252 54.8537 251.057 55.0628 249.167 55.0628C248.72 55.0628 247.33 55.0099 244.992 54.9066C243.825 54.855 242.657 54.829 241.489 54.8284C240.397 54.8284 238.358 54.8813 235.376 54.9847L233.139 55.0628C232.047 55.1156 231.499 54.9318 231.499 54.516C231.499 54.1002 232.071 53.9188 233.214 53.9693C234.955 54.0221 235.961 53.8384 236.233 53.4226C236.507 53.0068 236.643 51.4447 236.643 48.7364V7.57601C236.643 5.8072 236.47 4.75051 236.121 4.41283C235.775 4.07515 234.755 3.90516 233.065 3.90516C231.824 3.90516 231.201 3.72139 231.201 3.35844C231.201 2.94265 231.848 2.70834 233.139 2.65551C238.706 2.44877 243.254 1.56206 246.782 0C246.733 1.56206 246.707 10.7001 246.707 27.4142V46.8619C246.707 50.4018 246.795 52.4716 246.97 53.0711C247.143 53.6684 247.751 53.944 248.794 53.8912L251.031 53.8131C251.678 53.8131 252 54.0198 252 54.4379Z"/>
</mask>
<path fill-rule="evenodd" clip-rule="evenodd" d="M52.408 1.79637C52.408 2.05595 52.2216 2.21216 51.8489 2.26499C51.4761 2.31783 50.1474 2.39593 47.8605 2.4993C46.5186 2.55214 45.749 2.83698 45.5495 3.35844C45.3521 3.67085 45.2754 5.33629 45.3258 8.35704L45.4004 17.417C45.4508 23.4585 45.4749 31.3447 45.4749 41.0823V54.3598C45.4749 55.2442 45.2995 55.6876 44.9531 55.6876C44.4049 55.6876 40.7915 51.3781 34.1062 42.7615C27.4209 34.1449 20.0778 24.2901 12.077 13.1994V18.9791C12.077 20.9569 12.1011 22.6775 12.1515 24.1339V51.0795C12.1515 52.1729 12.4738 52.8483 13.1206 53.1102C14.1643 53.526 15.3812 53.735 16.7735 53.735C18.4136 53.735 19.3323 53.8659 19.5319 54.1255C19.5823 54.1784 19.6064 54.2817 19.6064 54.4379C19.6064 54.8537 19.2337 55.0628 18.4882 55.0628C18.0409 55.0628 17.6681 55.0375 17.3699 54.9847C15.5069 54.9097 13.643 54.8576 11.7788 54.8284C10.04 54.8284 7.7531 54.8813 4.92024 54.9847C3.52793 55.0375 2.93153 55.0628 3.13106 55.0628C2.38557 55.0628 2.01282 54.856 2.01282 54.4379C2.01282 54.0727 3.10694 53.8131 5.29298 53.6569C7.82765 53.4502 9.29452 53.0321 9.69138 52.4072C9.93915 51.9915 10.0641 50.117 10.0641 46.7838V14.6834C10.0641 11.4031 10.0137 9.42292 9.91503 8.74756C9.61683 6.4573 8.74636 4.78956 7.30581 3.74895C6.21169 2.96792 4.17475 2.52457 1.19279 2.4212C0.396865 2.36836 0 2.13406 0 1.71827C0 1.24965 0.348626 1.01534 1.04369 1.01534C1.34188 1.01534 2.40969 1.06818 4.2493 1.17155C5.14389 1.22438 6.48577 1.24965 8.27495 1.24965C11.952 1.24965 14.9339 1.19682 17.2208 1.09344L43.3876 36.318V5.38912C43.3876 4.13947 43.1902 3.34465 42.7912 3.00697C42.3943 2.66929 41.548 2.47403 40.2565 2.4212L37.0509 2.26499C36.4545 2.21216 36.1563 2.03068 36.1563 1.71827C36.1563 1.30249 36.6036 1.09344 37.4982 1.09344H39.1383C39.4365 1.09344 39.9342 1.06817 40.6292 1.01534H42.3439C47.365 1.01534 50.2965 1.04061 51.1407 1.09344C51.9848 1.14628 52.408 1.38059 52.408 1.79637ZM72.3038 10.7001C72.3038 15.5425 70.541 19.0572 67.0109 21.2441C64.7261 22.6499 62.6125 23.3529 60.6742 23.3529C60.3278 23.3529 60.1523 23.2219 60.1523 22.9623C60.1523 22.7028 60.3497 22.519 60.7487 22.4156C66.4145 21.0098 69.2473 17.9637 69.2473 13.2775C69.2473 10.413 68.2782 8.38461 66.3399 7.1855C66.3399 10.1029 65.123 11.5593 62.687 11.5593C61.2969 11.5593 60.1655 11.0907 59.295 10.1534C58.4267 9.21618 57.9904 8.01706 57.9904 6.56067C57.9904 4.8424 58.5758 3.46181 59.7445 2.4212C60.911 1.38059 62.4634 0.859134 64.4016 0.859134C66.8354 0.859134 68.7649 1.74354 70.1792 3.51464C71.5956 5.28345 72.306 7.67938 72.306 10.7001H72.3038ZM128.58 28.0391C128.58 35.8494 126.255 42.4491 121.609 47.8382C116.963 53.2273 111.26 55.9219 104.5 55.9219C97.8917 55.9219 92.226 53.1883 87.5031 47.7211C82.7824 42.2538 80.4209 35.6679 80.4209 27.9609C80.4209 20.0473 82.7692 13.4338 87.4658 8.12273C92.1624 2.81172 97.9904 0.156206 104.948 0.156206C111.657 0.156206 117.274 2.8255 121.796 8.16178C126.319 13.4981 128.58 20.1254 128.58 28.0391ZM115.459 29.2887C115.459 18.9285 114.293 11.2721 111.955 6.32636C110.416 3.09886 107.98 1.48396 104.649 1.48396C101.273 1.48396 98.5758 3.74895 96.5608 8.27894C94.548 12.8089 93.5415 18.8757 93.5415 26.477C93.5415 37.5148 95.3307 45.7685 98.9091 51.2357C100.4 53.526 102.562 54.6722 105.395 54.6722C108.675 54.6722 110.986 53.0321 112.328 49.7517C114.415 44.6498 115.459 37.8295 115.459 29.2887ZM161.3 26.0084C161.3 27.5176 160.877 28.7558 160.033 29.7183C159.186 30.6831 158.094 31.1632 156.753 31.1632C154.069 31.1632 152.727 29.8607 152.727 27.258C152.727 26.3736 153.049 25.4892 153.696 24.6025C153.845 24.3958 153.92 24.212 153.92 24.0558C153.92 23.5872 153.595 23.3529 152.951 23.3529C151.26 23.3529 149.969 24.7311 149.074 27.4923C148.576 29.0544 148.329 32.8814 148.329 38.9735V44.675L148.403 51.5481C148.403 52.954 149.074 53.7074 150.416 53.8131C151.21 53.8659 152.155 53.8912 153.249 53.8912C153.795 53.944 154.069 54.1255 154.069 54.4379C154.069 54.8537 153.845 55.0628 153.398 55.0628H151.907C151.46 55.0099 149.298 54.9847 145.421 54.9847C145.618 54.9847 144.5 55.0099 142.066 55.0628L138.414 55.1409H135.578C135.008 55.1964 134.436 55.2224 133.864 55.219C133.316 55.219 133.044 55.0352 133.044 54.6722C133.044 54.307 133.39 54.1255 134.087 54.1255C136.124 54.0727 137.354 53.8522 137.778 53.4616C138.199 53.0711 138.411 51.9134 138.411 49.986L138.337 28.8982C138.337 27.1294 138.1 25.905 137.629 25.2273C137.155 24.5497 136.1 24.1339 134.46 23.9777C133.167 23.8743 132.434 23.7939 132.261 23.7434C132.086 23.6905 131.998 23.5091 131.998 23.1967C131.998 22.8842 132.197 22.728 132.596 22.728C133.044 22.728 133.465 22.7533 133.864 22.8061H135.355C139.181 22.8061 143.305 21.9723 147.73 20.3068C147.978 21.3474 148.103 22.5466 148.103 23.8996V27.1799C149.046 24.6301 150.076 22.8314 151.194 21.7908C152.313 20.7502 153.768 20.2287 155.558 20.2287C157.246 20.2287 158.627 20.7754 159.695 21.8689C160.763 22.9623 161.296 24.3429 161.296 26.0084H161.3ZM194.615 45.4561C194.615 46.6023 193.968 48.1116 192.676 49.986C189.892 53.9946 186.265 56 181.792 56C176.771 56 172.649 54.3346 169.417 51.0014C166.187 47.6705 164.571 43.3978 164.571 38.1925C164.571 33.0905 166.137 28.8339 169.268 25.4226C172.399 22.0113 176.3 20.3068 180.972 20.3068C184.152 20.3068 186.862 21.035 189.098 22.4937C191.582 24.1086 193.198 26.4242 193.944 29.4449C194.141 30.3821 194.292 31.5009 194.391 32.8033C193.249 32.9067 188.651 32.9871 180.6 33.0377C179.356 33.0377 177.793 33.0905 175.903 33.1939C175.767 34.7781 175.692 36.3675 175.679 37.9582C175.679 44.0502 176.896 48.3712 179.332 50.9233C180.773 52.4325 182.538 53.1883 184.625 53.1883C186.364 53.1883 188.041 52.5635 189.657 51.3138C191.271 50.0663 192.544 48.3964 193.347 46.4714C193.744 45.4836 194.069 44.9874 194.317 44.9874C194.514 44.9874 194.615 45.1436 194.615 45.4561ZM185.222 31.8661C185.272 27.8576 184.998 25.0711 184.402 23.5091C183.805 21.947 182.761 21.166 181.27 21.166C178.238 21.166 176.499 24.7334 176.052 31.8661C177.096 31.8133 179.282 31.788 182.612 31.788C183.606 31.788 184.476 31.8133 185.222 31.8661ZM231.21 50.8452C231.21 51.261 230.813 51.833 230.017 52.5635C227.879 54.5941 225.246 55.6095 222.115 55.6095C220.075 55.6095 218.598 55.1661 217.679 54.2817C216.758 53.3973 216.151 51.8077 215.852 49.5174C213.616 53.7878 210.559 55.9219 206.683 55.9219C204.545 55.9219 202.82 55.219 201.502 53.8131C200.186 52.4072 199.528 50.5856 199.528 48.3459C199.528 41.7852 204.894 37.9053 215.629 36.7085V35.0683C215.629 29.8607 215.453 26.6608 215.107 25.4616L215.032 25.0711C214.337 22.4685 212.572 21.166 209.739 21.166C208.099 21.166 206.782 21.6599 205.788 22.6499C204.795 23.6377 204.297 24.6025 204.297 25.5397C204.297 26.0612 204.894 26.3736 206.087 26.477C207.876 26.6332 208.77 27.7795 208.77 29.9135C208.77 31.0598 208.411 32.0085 207.689 32.7643C206.968 33.5201 206.036 33.8968 204.894 33.8968C203.453 33.8968 202.271 33.442 201.353 32.53C200.432 31.618 199.974 30.4602 199.974 29.0544C199.974 26.8147 201.041 24.784 203.179 22.9623C205.317 21.1407 208.123 20.2287 211.603 20.2287C216.771 20.2287 220.374 21.1935 222.413 23.1185C224.053 24.7334 224.873 27.5452 224.873 31.5537V44.9093C224.873 47.512 224.897 49.0212 224.947 49.4393C225.195 51.6262 225.917 52.7197 227.109 52.7197C227.954 52.7197 228.997 52.0948 230.24 50.8452C230.488 50.5856 230.688 50.4547 230.837 50.4547C231.085 50.4547 231.21 50.5856 231.21 50.8452ZM215.629 41.5509V37.7239C210.807 38.7116 208.398 41.5762 208.398 46.3152C208.398 49.9608 209.59 51.7824 211.976 51.7824C213.318 51.7824 214.263 51.0014 214.809 49.4393C215.357 47.8773 215.629 45.247 215.629 41.5509ZM252 54.4379C252 54.8537 251.057 55.0628 249.167 55.0628C248.72 55.0628 247.33 55.0099 244.992 54.9066C243.825 54.855 242.657 54.829 241.489 54.8284C240.397 54.8284 238.358 54.8813 235.376 54.9847L233.139 55.0628C232.047 55.1156 231.499 54.9318 231.499 54.516C231.499 54.1002 232.071 53.9188 233.214 53.9693C234.955 54.0221 235.961 53.8384 236.233 53.4226C236.507 53.0068 236.643 51.4447 236.643 48.7364V7.57601C236.643 5.8072 236.47 4.75051 236.121 4.41283C235.775 4.07515 234.755 3.90516 233.065 3.90516C231.824 3.90516 231.201 3.72139 231.201 3.35844C231.201 2.94265 231.848 2.70834 233.139 2.65551C238.706 2.44877 243.254 1.56206 246.782 0C246.733 1.56206 246.707 10.7001 246.707 27.4142V46.8619C246.707 50.4018 246.795 52.4716 246.97 53.0711C247.143 53.6684 247.751 53.944 248.794 53.8912L251.031 53.8131C251.678 53.8131 252 54.0198 252 54.4379Z" fill="#1E212C" stroke="#2D1940" stroke-width="2" mask="url(#path-1-inside-1)"/>
</svg>
