<svg width="252" height="102" viewBox="0 0 252 102" fill="none" xmlns="http://www.w3.org/2000/svg">
<path d="M0 0V100.712H4.82779V0H0ZM18.0299 12.9433C18.0299 10.7905 19.0618 9.7249 21.1256 9.7249C22.107 9.7249 22.8949 9.99332 23.4705 10.5275C24.0514 11.0643 24.3432 11.8696 24.3432 12.9433C24.3432 13.7566 24.0726 14.4625 23.5368 15.0638C22.9983 15.6651 22.1946 15.9657 21.1229 15.9657C20.1335 15.9657 19.3775 15.6677 18.8363 15.0665C18.309 14.4903 18.0204 13.7312 18.0299 12.9459V12.9433ZM18.6798 100.709V35.1578H23.5076V100.712H18.6798V100.709ZM57.7319 100.712H52.9041V46.5523C52.9041 44.5794 52.3523 42.9017 51.2594 41.5301C50.1666 40.1558 48.6068 39.4633 46.5908 39.4633H40.2139V100.704H35.3861V35.1551H46.5882C48.392 35.1551 49.9888 35.4477 51.3841 36.0275C52.7794 36.6046 53.9492 37.4233 54.8962 38.4755C55.8352 39.5277 56.5435 40.7705 57.0183 42.2065C57.501 43.7129 57.7411 45.2881 57.7292 46.8717V100.706H57.7345L57.7319 100.712ZM92.5079 90.2083C92.5079 91.8859 92.2718 93.4454 91.797 94.8761C91.3248 96.3148 90.6165 97.5603 89.6722 98.6125C88.7305 99.6701 87.5607 100.491 86.1628 101.095C84.7648 101.689 83.1653 101.997 81.3668 101.997C79.5179 101.997 77.8972 101.694 76.5072 101.095C75.1696 100.541 73.9701 99.6926 72.9951 98.6125C72.0354 97.5319 71.3115 96.2587 70.8704 94.8761C70.3851 93.3694 70.145 91.7929 70.1594 90.2083V35.1551H81.1069C82.7409 35.1551 84.046 35.2759 85.0407 35.5148C86.0301 35.751 86.9055 36.0838 87.6748 36.5133V0.00268402H92.5132L92.5079 90.2083ZM87.6695 45.5859C87.6695 45.3256 87.6376 44.8612 87.5766 44.1714C87.5013 43.4411 87.2686 42.7365 86.8949 42.1072C86.5156 41.4174 85.8869 40.8054 85.0301 40.2712C84.1707 39.7344 82.9478 39.4686 81.3615 39.4686H74.9846V90.6565C74.9846 92.6348 75.5337 94.2963 76.6319 95.6492C77.7248 96.9966 79.3004 97.6838 81.3642 97.6838C83.3855 97.6838 84.9373 96.9966 86.0328 95.6492C87.1257 94.3017 87.6695 92.6375 87.6695 90.6565V45.5886V45.5859ZM101.293 85.8303H106.126V90.6619C106.126 92.6375 106.676 94.2963 107.771 95.6545C108.864 96.9993 110.442 97.6838 112.506 97.6838C114.522 97.6838 116.079 96.9993 117.175 95.6518C118.273 94.3017 118.819 92.6402 118.819 90.6592V82.5475C118.829 81.1964 118.599 79.8544 118.14 78.5856C117.676 77.3379 117.071 76.1489 116.336 75.0425C115.569 73.8881 114.707 72.8015 113.758 71.7946C112.787 70.7638 111.814 69.7277 110.827 68.6997C109.625 67.4998 108.458 66.2839 107.32 65.0331C106.18 63.7983 105.161 62.4643 104.256 61.0712C103.366 59.6942 102.642 58.2134 102.102 56.661C101.555 55.0424 101.282 53.3416 101.296 51.6308V45.645C101.296 43.9271 101.535 42.3488 102.01 40.9154C102.476 39.4767 103.187 38.2339 104.132 37.1817C105.103 36.1089 106.302 35.2728 107.638 34.7364C109.036 34.1539 110.655 33.8613 112.509 33.8613C114.31 33.8613 115.909 34.1593 117.302 34.7364C118.692 35.3188 119.867 36.1322 120.809 37.1817C121.753 38.2366 122.456 39.474 122.936 40.9127C123.403 42.3542 123.642 43.9352 123.642 45.645V50.9275H118.814V45.2638C118.814 43.2856 118.265 41.6133 117.164 40.2309C116.071 38.8647 114.511 38.1748 112.495 38.1748C110.434 38.1748 108.856 38.862 107.763 40.2309C106.67 41.6106 106.121 43.2829 106.121 45.2638V51.6388C106.121 53.1017 106.357 54.4573 106.832 55.7269C107.304 56.9938 107.92 58.1829 108.668 59.2969C109.418 60.4135 110.278 61.4979 111.241 62.5502C112.212 63.5997 113.182 64.6438 114.169 65.6773C115.376 66.9174 116.543 68.1682 117.679 69.4083C118.817 70.6565 119.827 71.9637 120.705 73.3434C121.589 74.715 122.294 76.1618 122.833 77.6918C123.371 79.2164 123.631 80.8377 123.631 82.5502V90.2083C123.631 91.8832 123.392 93.4508 122.928 94.8788C122.451 96.3148 121.743 97.563 120.798 98.6206C119.857 99.6728 118.681 100.5 117.291 101.106C115.896 101.705 114.297 102 112.495 102C110.652 102 109.031 101.705 107.633 101.103C106.298 100.543 105.1 99.6913 104.126 98.6098C103.164 97.5284 102.439 96.2532 101.999 94.868C101.516 93.3599 101.277 91.7828 101.291 90.1975L101.293 85.8303ZM133.589 39.4713H128.249V35.1605H133.589V27.0461H138.425V35.1605H147.248V39.4713H138.425V90.5948C138.425 92.5623 138.961 94.2373 140.038 95.5847C141.104 96.9322 142.677 97.6194 144.733 97.6194H146.855V101.995H144.733C142.892 101.995 141.269 101.691 139.868 101.093C138.539 100.545 137.352 99.697 136.398 98.6125C135.453 97.5275 134.741 96.2562 134.305 94.8788C133.822 93.3708 133.584 91.7935 133.6 90.2083V39.4713H133.589ZM170.299 39.0875C169.54 38.8999 168.759 38.8123 167.978 38.8271C165.917 38.8271 164.346 39.5143 163.243 40.8939C162.142 42.2629 161.606 43.9378 161.606 45.9107V100.709H156.771V46.3026C156.771 44.5821 157.004 43.0064 157.476 41.5704C157.951 40.1316 158.662 38.8862 159.611 37.8339C160.583 36.759 161.783 35.9218 163.121 35.3859C164.519 34.8062 166.126 34.5163 167.981 34.5163C168.76 34.5163 169.503 34.57 170.235 34.6773C170.959 34.7847 171.636 34.9431 172.23 35.1551L170.296 39.0902L170.299 39.0875ZM200.276 88.9843C200.294 90.7502 200.055 92.5092 199.568 94.2051C199.14 95.7079 198.417 97.1083 197.443 98.3226C196.496 99.4715 195.321 100.389 193.926 101.028C192.528 101.675 190.921 101.995 189.069 101.995C187.225 101.995 185.607 101.707 184.209 101.122C182.877 100.591 181.684 99.7548 180.724 98.6796C179.785 97.5903 179.077 96.3177 178.644 94.9405C178.156 93.4132 177.917 91.8159 177.936 90.211V45.5859C177.936 43.9137 178.172 42.3568 178.644 40.9208C179.114 39.4821 179.825 38.2366 180.769 37.1871C181.741 36.1114 182.943 35.275 184.284 34.7417C185.679 34.1593 187.297 33.8694 189.138 33.8694H200.282L200.276 88.9843ZM178.376 20.6684C178.376 18.5264 179.4 17.4474 181.469 17.4474C183.533 17.4474 184.557 18.5264 184.557 20.6684C184.557 21.4844 184.294 22.1904 183.785 22.7943C183.273 23.3956 182.485 23.6935 181.456 23.6935C180.469 23.6935 179.708 23.3983 179.172 22.7943C178.652 22.2119 178.368 21.453 178.376 20.6684ZM182.753 90.5921C182.753 92.5757 183.307 94.2453 184.39 95.625C185.496 96.9939 187.069 97.6892 189.125 97.6892C191.149 97.6892 192.706 96.9081 193.799 95.3458C194.897 93.7836 195.435 91.8886 195.435 89.6446V38.1909H189.133C187.066 38.1909 185.501 38.8808 184.395 40.2551C183.307 41.6321 182.756 43.3017 182.756 45.2773V90.5948L182.753 90.5921ZM195.122 20.6684C195.122 18.5264 196.197 17.4474 198.348 17.4474C200.404 17.4474 201.438 18.5264 201.438 20.6684C201.438 21.4844 201.186 22.1904 200.701 22.7943C200.197 23.3929 199.414 23.6935 198.348 23.6935C197.321 23.6935 196.51 23.3983 195.96 22.7943C195.69 22.513 195.476 22.1805 195.332 21.8157C195.189 21.451 195.117 21.0611 195.122 20.6684ZM234.235 100.712H229.723V46.5523C229.723 44.3646 229.182 42.6306 228.118 41.3717C227.044 40.1021 225.468 39.4686 223.418 39.4686H216.908V100.712H212.083V35.1578H223.224C225.158 35.1578 226.864 35.4906 228.376 36.159C229.869 36.8274 231.084 37.7132 231.978 38.8298C232.922 37.7561 234.153 36.8757 235.681 36.1885C237.204 35.4987 238.909 35.1605 240.793 35.1605H252V100.712H247.167V39.4713H240.602C238.538 39.4713 236.968 40.1102 235.872 41.3744C234.768 42.6387 234.233 44.3673 234.233 46.5549V100.712H234.235Z" fill="#2D1940"/>
</svg>
