<svg width="252" height="76" viewBox="0 0 252 76" fill="none" xmlns="http://www.w3.org/2000/svg">
<mask id="mask0" mask-type="alpha" maskUnits="userSpaceOnUse" x="0" y="0" width="58" height="76">
<path d="M0.5 0.5H57.0995V75.5H0.5V0.5Z" fill="white" stroke="#2D1940"/>
</mask>
<g mask="url(#mask0)">
<path fill-rule="evenodd" clip-rule="evenodd" d="M0 0H57.5995V76H0V0Z" stroke="#2D1940" stroke-width="6"/>
</g>
<mask id="path-3-inside-1" fill="white">
<path d="M91.2472 20.7556C91.2472 23.4867 90.1912 25.2519 88.0793 26.0462L92.2936 32.1434H87.7241L84.0353 26.7057H81.4649V32.1434H77.7521V15.0998H84.0593C86.6465 15.0998 88.4921 15.546 89.5912 16.4408C90.6952 17.3356 91.2472 18.7723 91.2472 20.7556ZM86.7713 22.7807C87.2321 22.359 87.4625 21.6873 87.4625 20.7703C87.4625 19.851 87.2225 19.2209 86.7473 18.8802C86.2721 18.5369 85.4393 18.3653 84.2513 18.3653H81.4649V23.4156H84.1769C85.4465 23.4156 86.3129 23.1999 86.7713 22.7782V22.7807ZM108.229 32.1434L106.684 28.4611H99.7095L98.1616 32.1434H94.2088L101.399 15.0998H104.992L112.18 32.1434H108.229ZM103.209 20.1722L101.111 25.122H105.275L103.209 20.1697V20.1722ZM121.261 18.3923V32.1434H117.549V18.3874H112.837V15.1022H125.975V18.3947H121.261V18.3923ZM130.007 15.0998H133.722V32.1434H130.009V15.0998H130.007ZM150.443 19.6353C150.008 19.122 149.469 18.7121 148.863 18.4343C148.256 18.1565 147.598 18.0175 146.934 18.027C145.542 18.027 144.376 18.5614 143.423 19.6353C142.47 20.7066 141.995 22.0035 141.995 23.5235C141.995 25.0435 142.47 26.3355 143.423 27.3995C143.859 27.911 144.399 28.3191 145.005 28.5952C145.612 28.8713 146.27 29.0087 146.934 28.998C148.321 28.998 149.492 28.4635 150.443 27.3995C151.395 26.3331 151.871 25.0435 151.871 23.526C151.871 22.006 151.395 20.7066 150.443 19.6353ZM146.922 32.3125C144.462 32.3125 142.391 31.4716 140.708 29.7898C139.028 28.108 138.188 26.0143 138.188 23.5137C138.188 21.0082 139.028 18.9169 140.708 17.2327C142.388 15.5509 144.462 14.71 146.922 14.71C149.379 14.71 151.451 15.5509 153.133 17.2351C154.813 18.9169 155.655 21.0082 155.655 23.5113C155.655 26.0143 154.815 28.108 153.135 29.7898C151.453 31.4716 149.379 32.315 146.92 32.315L146.922 32.3125ZM171.757 15.1022H175.47V32.1409H171.757L163.832 21.4642V32.1434H160.119V15.0998H163.595L171.757 26.0707V15.1022ZM192.74 32.1409L191.194 28.4611H184.22L182.674 32.1434H178.722L185.91 15.0998H189.505L196.693 32.1434H192.742L192.74 32.1409ZM187.719 20.1722L185.626 25.122H189.79L187.722 20.1697H187.719V20.1722ZM199.945 32.1434V15.0998H203.657V28.7553H210.752V32.1434H199.942H199.945ZM88.5593 52.4158H92.296V58.4614C90.6448 60.3492 88.3601 61.2906 85.4417 61.2906C82.9985 61.2906 80.9489 60.462 79.2881 58.8047C77.6321 57.1449 76.8018 55.0537 76.8018 52.5261C76.8018 49.996 77.6465 47.8876 79.3361 46.1985C81.0257 44.5069 83.0657 43.6635 85.4537 43.6635C87.8417 43.6635 89.9176 44.4676 91.6768 46.0759L89.7496 48.9296C89.0056 48.2627 88.3168 47.8018 87.6905 47.5518C87.0415 47.2958 86.3509 47.1676 85.6553 47.1742C84.2417 47.1742 83.0513 47.6645 82.0865 48.6476C81.1193 49.6307 80.6345 50.9276 80.6345 52.5383C80.6345 54.1466 81.0977 55.4313 82.0265 56.4021C82.4512 56.8656 82.9656 57.2339 83.5369 57.4838C84.1083 57.7336 84.7242 57.8595 85.3457 57.8534C86.6321 57.8534 87.7025 57.6009 88.5617 57.0959V52.4158H88.5593ZM108.923 44.0533V47.4414H100.638V50.9522H108.09V54.1956H100.638V57.7309H109.182V61.0945H96.928V44.0558H108.923V44.0533ZM124.859 48.5888C124.424 48.0748 123.885 47.6643 123.278 47.386C122.671 47.1077 122.013 46.9685 121.348 46.9781C119.958 46.9781 118.789 47.5174 117.837 48.5888C116.886 49.6602 116.409 50.9571 116.409 52.4771C116.409 53.9971 116.886 55.2891 117.837 56.3531C118.273 56.8646 118.813 57.2726 119.419 57.5487C120.026 57.8248 120.684 57.9623 121.348 57.9515C122.735 57.9515 123.906 57.4171 124.859 56.3531C125.812 55.2866 126.287 53.9971 126.287 52.4771C126.287 50.9571 125.812 49.6602 124.859 48.5888ZM121.336 61.2661C118.876 61.2661 116.805 60.4252 115.125 58.7409C113.445 57.0616 112.602 54.9679 112.602 52.4648C112.602 49.9617 113.442 47.868 115.122 46.1862C116.805 44.5044 118.876 43.6611 121.338 43.6611C123.796 43.6611 125.867 44.5044 127.549 46.1862C129.229 47.868 130.069 49.9617 130.069 52.4623C130.069 54.9679 129.229 57.0616 127.549 58.7434C125.869 60.4252 123.796 61.2685 121.336 61.2685V61.2661ZM145.34 52.4158H149.079V58.4614C147.428 60.3492 145.144 61.2906 142.225 61.2906C139.78 61.2906 137.73 60.462 136.072 58.8047C134.411 57.1449 133.583 55.0537 133.583 52.5261C133.583 49.996 134.428 47.8876 136.117 46.1985C137.809 44.5069 139.847 43.6635 142.237 43.6635C144.623 43.6635 146.701 44.4676 148.46 46.0759L146.533 48.9296C145.789 48.2627 145.1 47.8018 144.476 47.5518C143.827 47.2962 143.137 47.1681 142.441 47.1742C141.025 47.1742 139.837 47.6645 138.87 48.6476C137.9 49.6307 137.416 50.9276 137.416 52.5383C137.416 54.1466 137.881 55.4313 138.808 56.4021C139.736 57.3705 140.843 57.8534 142.127 57.8534C143.413 57.8534 144.484 57.6009 145.34 57.0959V52.4158ZM167.204 49.7092C167.204 52.4403 166.148 54.2054 164.039 54.9998L168.253 61.0945H163.679L159.987 55.6592H157.419V61.0945H153.704V44.0558H160.011C162.599 44.0558 164.442 44.502 165.546 45.3968C166.647 46.2916 167.202 47.7258 167.202 49.7116L167.204 49.7092ZM162.731 51.7342C163.191 51.3101 163.422 50.6408 163.422 49.7239C163.422 48.8021 163.182 48.1745 162.707 47.8313C162.231 47.4905 161.399 47.3189 160.208 47.3189H157.424V52.3692H160.136C161.406 52.3692 162.27 52.1534 162.728 51.7318L162.731 51.7342ZM184.186 61.0945L182.638 57.4146H175.664L174.118 61.0945H170.166L177.354 44.0533H180.949L188.137 61.0945H184.186ZM179.163 49.1233L177.068 54.0755H181.234L179.163 49.1233ZM202.846 45.5758C204.013 46.5932 204.598 48.15 204.598 50.2584C204.598 52.3618 203.998 53.9039 202.798 54.8772C201.601 55.8529 199.774 56.3408 197.314 56.3408H195.097V61.0969H191.386V44.0533H197.266C199.82 44.0533 201.68 44.5608 202.846 45.5758ZM200.122 52.2809C200.566 51.7685 200.787 51.0208 200.787 50.0377C200.787 49.0571 200.499 48.3559 199.918 47.9416C199.342 47.5273 198.442 47.3189 197.218 47.3189H195.101V53.0507H197.6C198.838 53.0507 199.683 52.7933 200.125 52.2809H200.122ZM219.154 44.0533H222.864V61.0945H219.152V54.3918H212.535V61.0945H208.822V44.0558H212.535V51.1753H219.152V44.0558L219.154 44.0533ZM228.281 44.0533H231.994V61.0945H228.281V44.0558V44.0533ZM245.05 57.7309C246.874 57.7309 248.367 56.9929 249.526 55.5122L251.904 58.0226C250.015 60.2045 247.793 61.2906 245.23 61.2906C242.667 61.2906 240.557 60.462 238.899 58.8047C237.24 57.1449 236.41 55.0537 236.41 52.5261C236.41 49.996 237.255 47.8876 238.944 46.1985C240.636 44.5069 242.703 43.6635 245.146 43.6635C247.875 43.6635 250.159 44.73 252 46.858L249.691 49.5376C248.515 48.0445 247.059 47.2968 245.311 47.2968C243.915 47.2968 242.724 47.7626 241.731 48.6967C240.737 49.6307 240.243 50.8909 240.243 52.4771C240.243 54.0608 240.711 55.3332 241.647 56.2918C242.583 57.2528 243.718 57.7309 245.05 57.7309Z"/>
</mask>
<path d="M91.2472 20.7556C91.2472 23.4867 90.1912 25.2519 88.0793 26.0462L92.2936 32.1434H87.7241L84.0353 26.7057H81.4649V32.1434H77.7521V15.0998H84.0593C86.6465 15.0998 88.4921 15.546 89.5912 16.4408C90.6952 17.3356 91.2472 18.7723 91.2472 20.7556ZM86.7713 22.7807C87.2321 22.359 87.4625 21.6873 87.4625 20.7703C87.4625 19.851 87.2225 19.2209 86.7473 18.8802C86.2721 18.5369 85.4393 18.3653 84.2513 18.3653H81.4649V23.4156H84.1769C85.4465 23.4156 86.3129 23.1999 86.7713 22.7782V22.7807ZM108.229 32.1434L106.684 28.4611H99.7095L98.1616 32.1434H94.2088L101.399 15.0998H104.992L112.18 32.1434H108.229ZM103.209 20.1722L101.111 25.122H105.275L103.209 20.1697V20.1722ZM121.261 18.3923V32.1434H117.549V18.3874H112.837V15.1022H125.975V18.3947H121.261V18.3923ZM130.007 15.0998H133.722V32.1434H130.009V15.0998H130.007ZM150.443 19.6353C150.008 19.122 149.469 18.7121 148.863 18.4343C148.256 18.1565 147.598 18.0175 146.934 18.027C145.542 18.027 144.376 18.5614 143.423 19.6353C142.47 20.7066 141.995 22.0035 141.995 23.5235C141.995 25.0435 142.47 26.3355 143.423 27.3995C143.859 27.911 144.399 28.3191 145.005 28.5952C145.612 28.8713 146.27 29.0087 146.934 28.998C148.321 28.998 149.492 28.4635 150.443 27.3995C151.395 26.3331 151.871 25.0435 151.871 23.526C151.871 22.006 151.395 20.7066 150.443 19.6353ZM146.922 32.3125C144.462 32.3125 142.391 31.4716 140.708 29.7898C139.028 28.108 138.188 26.0143 138.188 23.5137C138.188 21.0082 139.028 18.9169 140.708 17.2327C142.388 15.5509 144.462 14.71 146.922 14.71C149.379 14.71 151.451 15.5509 153.133 17.2351C154.813 18.9169 155.655 21.0082 155.655 23.5113C155.655 26.0143 154.815 28.108 153.135 29.7898C151.453 31.4716 149.379 32.315 146.92 32.315L146.922 32.3125ZM171.757 15.1022H175.47V32.1409H171.757L163.832 21.4642V32.1434H160.119V15.0998H163.595L171.757 26.0707V15.1022ZM192.74 32.1409L191.194 28.4611H184.22L182.674 32.1434H178.722L185.91 15.0998H189.505L196.693 32.1434H192.742L192.74 32.1409ZM187.719 20.1722L185.626 25.122H189.79L187.722 20.1697H187.719V20.1722ZM199.945 32.1434V15.0998H203.657V28.7553H210.752V32.1434H199.942H199.945ZM88.5593 52.4158H92.296V58.4614C90.6448 60.3492 88.3601 61.2906 85.4417 61.2906C82.9985 61.2906 80.9489 60.462 79.2881 58.8047C77.6321 57.1449 76.8018 55.0537 76.8018 52.5261C76.8018 49.996 77.6465 47.8876 79.3361 46.1985C81.0257 44.5069 83.0657 43.6635 85.4537 43.6635C87.8417 43.6635 89.9176 44.4676 91.6768 46.0759L89.7496 48.9296C89.0056 48.2627 88.3168 47.8018 87.6905 47.5518C87.0415 47.2958 86.3509 47.1676 85.6553 47.1742C84.2417 47.1742 83.0513 47.6645 82.0865 48.6476C81.1193 49.6307 80.6345 50.9276 80.6345 52.5383C80.6345 54.1466 81.0977 55.4313 82.0265 56.4021C82.4512 56.8656 82.9656 57.2339 83.5369 57.4838C84.1083 57.7336 84.7242 57.8595 85.3457 57.8534C86.6321 57.8534 87.7025 57.6009 88.5617 57.0959V52.4158H88.5593ZM108.923 44.0533V47.4414H100.638V50.9522H108.09V54.1956H100.638V57.7309H109.182V61.0945H96.928V44.0558H108.923V44.0533ZM124.859 48.5888C124.424 48.0748 123.885 47.6643 123.278 47.386C122.671 47.1077 122.013 46.9685 121.348 46.9781C119.958 46.9781 118.789 47.5174 117.837 48.5888C116.886 49.6602 116.409 50.9571 116.409 52.4771C116.409 53.9971 116.886 55.2891 117.837 56.3531C118.273 56.8646 118.813 57.2726 119.419 57.5487C120.026 57.8248 120.684 57.9623 121.348 57.9515C122.735 57.9515 123.906 57.4171 124.859 56.3531C125.812 55.2866 126.287 53.9971 126.287 52.4771C126.287 50.9571 125.812 49.6602 124.859 48.5888ZM121.336 61.2661C118.876 61.2661 116.805 60.4252 115.125 58.7409C113.445 57.0616 112.602 54.9679 112.602 52.4648C112.602 49.9617 113.442 47.868 115.122 46.1862C116.805 44.5044 118.876 43.6611 121.338 43.6611C123.796 43.6611 125.867 44.5044 127.549 46.1862C129.229 47.868 130.069 49.9617 130.069 52.4623C130.069 54.9679 129.229 57.0616 127.549 58.7434C125.869 60.4252 123.796 61.2685 121.336 61.2685V61.2661ZM145.34 52.4158H149.079V58.4614C147.428 60.3492 145.144 61.2906 142.225 61.2906C139.78 61.2906 137.73 60.462 136.072 58.8047C134.411 57.1449 133.583 55.0537 133.583 52.5261C133.583 49.996 134.428 47.8876 136.117 46.1985C137.809 44.5069 139.847 43.6635 142.237 43.6635C144.623 43.6635 146.701 44.4676 148.46 46.0759L146.533 48.9296C145.789 48.2627 145.1 47.8018 144.476 47.5518C143.827 47.2962 143.137 47.1681 142.441 47.1742C141.025 47.1742 139.837 47.6645 138.87 48.6476C137.9 49.6307 137.416 50.9276 137.416 52.5383C137.416 54.1466 137.881 55.4313 138.808 56.4021C139.736 57.3705 140.843 57.8534 142.127 57.8534C143.413 57.8534 144.484 57.6009 145.34 57.0959V52.4158ZM167.204 49.7092C167.204 52.4403 166.148 54.2054 164.039 54.9998L168.253 61.0945H163.679L159.987 55.6592H157.419V61.0945H153.704V44.0558H160.011C162.599 44.0558 164.442 44.502 165.546 45.3968C166.647 46.2916 167.202 47.7258 167.202 49.7116L167.204 49.7092ZM162.731 51.7342C163.191 51.3101 163.422 50.6408 163.422 49.7239C163.422 48.8021 163.182 48.1745 162.707 47.8313C162.231 47.4905 161.399 47.3189 160.208 47.3189H157.424V52.3692H160.136C161.406 52.3692 162.27 52.1534 162.728 51.7318L162.731 51.7342ZM184.186 61.0945L182.638 57.4146H175.664L174.118 61.0945H170.166L177.354 44.0533H180.949L188.137 61.0945H184.186ZM179.163 49.1233L177.068 54.0755H181.234L179.163 49.1233ZM202.846 45.5758C204.013 46.5932 204.598 48.15 204.598 50.2584C204.598 52.3618 203.998 53.9039 202.798 54.8772C201.601 55.8529 199.774 56.3408 197.314 56.3408H195.097V61.0969H191.386V44.0533H197.266C199.82 44.0533 201.68 44.5608 202.846 45.5758ZM200.122 52.2809C200.566 51.7685 200.787 51.0208 200.787 50.0377C200.787 49.0571 200.499 48.3559 199.918 47.9416C199.342 47.5273 198.442 47.3189 197.218 47.3189H195.101V53.0507H197.6C198.838 53.0507 199.683 52.7933 200.125 52.2809H200.122ZM219.154 44.0533H222.864V61.0945H219.152V54.3918H212.535V61.0945H208.822V44.0558H212.535V51.1753H219.152V44.0558L219.154 44.0533ZM228.281 44.0533H231.994V61.0945H228.281V44.0558V44.0533ZM245.05 57.7309C246.874 57.7309 248.367 56.9929 249.526 55.5122L251.904 58.0226C250.015 60.2045 247.793 61.2906 245.23 61.2906C242.667 61.2906 240.557 60.462 238.899 58.8047C237.24 57.1449 236.41 55.0537 236.41 52.5261C236.41 49.996 237.255 47.8876 238.944 46.1985C240.636 44.5069 242.703 43.6635 245.146 43.6635C247.875 43.6635 250.159 44.73 252 46.858L249.691 49.5376C248.515 48.0445 247.059 47.2968 245.311 47.2968C243.915 47.2968 242.724 47.7626 241.731 48.6967C240.737 49.6307 240.243 50.8909 240.243 52.4771C240.243 54.0608 240.711 55.3332 241.647 56.2918C242.583 57.2528 243.718 57.7309 245.05 57.7309Z" fill="#111111" stroke="#2D1940" stroke-width="2" mask="url(#path-3-inside-1)"/>
</svg>
