<svg width="277" height="142" viewBox="0 0 277 142" fill="none" xmlns="http://www.w3.org/2000/svg">
<path d="M31.6009 44.7865C35.7092 41.8353 40.4221 39.9797 44.7921 37.4911C54.4522 31.9897 63.702 25.3563 72.1119 17.967C75.1845 15.2673 84.9092 6.5849 83.4282 1.29172C83.0032 -0.227342 78.4557 4.67989 78.4397 4.69627C57.7442 25.7576 43.0411 50.9832 35.0828 79.8047C30.6868 95.7252 26.7411 111.769 21.6238 127.468C20.5253 130.838 18.3411 140.334 13.7559 140.948C6.04586 141.98 1 127.515 1 121.632C1 100.006 22.6829 86.2272 38.9665 77.5813C46.983 73.3249 55.2927 70.3925 63.7419 67.2982C68.276 65.6377 64.1925 69.523 62.8714 71.8839C60.1669 76.7168 57.2757 82.6111 57.0793 88.316C56.8242 95.7279 68.5612 91.4766 71.978 90.5047C82.1034 87.6244 92.1743 83.5121 100.905 77.3729C104.307 74.9805 101.991 74.662 99.0969 74.1768C96.078 73.6705 93.5232 74.4676 98.0925 73.2735C101.139 72.4774 109.934 71.3454 111.819 68.2709C112.076 67.8519 97.0839 67.1537 110.413 68.8962C112.8 69.2083 115.493 68.2684 117.611 69.4521C121.945 71.8731 131.72 69.6683 135.858 69.1742C163.836 65.8333 191.536 58.3952 217.449 46.9404C230.85 41.0168 243.684 33.9488 255.918 25.7489C262.089 21.6125 268.78 17.0478 273.93 11.5054C281.926 2.90173 264.419 5.17171 260.94 5.73847C247.517 7.92549 234.475 12.2851 221.634 16.7511C200.449 24.1197 179.518 32.3431 158.625 40.5482C141.211 47.3867 123.755 54.221 106.697 61.9829C105.247 62.6428 98.4921 65.6207 96.0837 67.4719C94.3711 68.7882 96.4619 68.6672 97.3894 68.7225C104.317 69.1357 111.647 67.9575 118.448 66.9508C133.146 64.7752 147.76 61.8226 162.241 58.4394C180.541 54.1638 198.631 49.0067 216.01 41.6599" stroke="#2D1940" stroke-opacity="0.4" stroke-width="2" stroke-linecap="round" stroke-linejoin="round"/>
</svg>
