<svg width="20" height="17" viewBox="0 0 20 17" fill="none" xmlns="http://www.w3.org/2000/svg">
<path d="M20 2.01224C19.2641 2.35348 18.4732 2.58454 17.6437 2.68783C18.4908 2.15685 19.1412 1.31599 19.4477 0.313695C18.6547 0.805662 17.7768 1.16297 16.8419 1.35501C16.0935 0.52104 15.0269 0 13.8469 0C11.5805 0 9.74359 1.92119 9.74359 4.29151C9.74359 4.62816 9.78017 4.95562 9.84966 5.26932C6.43988 5.09028 3.41636 3.38179 1.39215 0.785769C1.03881 1.41928 0.8369 2.15685 0.8369 2.94338C0.8369 4.43229 1.56114 5.74598 2.66213 6.51569C1.98983 6.4935 1.35704 6.30069 0.803248 5.97858C0.803248 5.99617 0.803248 6.01454 0.803248 6.0329C0.803248 8.11247 2.21734 9.84698 4.09452 10.241C3.74995 10.3389 3.38783 10.3917 3.01328 10.3917C2.74919 10.3917 2.49168 10.365 2.24149 10.3145C2.76382 12.0191 4.27887 13.2601 6.07484 13.2946C4.67025 14.4453 2.90135 15.1316 0.978821 15.1316C0.647427 15.1316 0.321153 15.1109 0 15.0719C1.81572 16.2892 3.97235 17 6.28992 17C13.8374 17 17.9641 10.4606 17.9641 4.78959C17.9641 4.60367 17.9604 4.41852 17.9524 4.23412C18.7542 3.62892 19.4499 2.87299 20 2.01224Z" fill="#F4F7F6"/>
</svg>
