<svg width="21" height="13" viewBox="0 0 21 13" fill="none" xmlns="http://www.w3.org/2000/svg">
<path fill-rule="evenodd" clip-rule="evenodd" d="M10.2743 12.9462H11.5292C11.5292 12.9462 11.9085 12.9004 12.1023 12.6741C12.2805 12.4663 12.2746 12.0756 12.2746 12.0756C12.2746 12.0756 12.2502 10.2478 13.0318 9.97896C13.8024 9.71337 14.7918 11.745 15.8411 12.5265C16.6339 13.1179 17.2373 12.9879 17.2373 12.9879L20.0414 12.9454C20.0414 12.9454 21.5086 12.8475 20.8127 11.5958C20.7558 11.4938 20.4075 10.6698 18.7273 8.97759C16.9688 7.20674 17.2047 7.49319 19.3226 4.42971C20.6123 2.56418 21.1285 1.4248 20.9673 0.937759C20.8134 0.473182 19.8647 0.595946 19.8647 0.595946L16.7071 0.616808C16.7071 0.616808 16.4727 0.582306 16.2996 0.694639C16.1303 0.804564 16.0208 1.06213 16.0208 1.06213C16.0208 1.06213 15.5209 2.50561 14.8547 3.73325C13.4489 6.32412 12.8861 6.46053 12.6562 6.30005C12.1215 5.92534 12.2554 4.79399 12.2554 3.99001C12.2554 1.47936 12.6066 0.432261 11.5721 0.161859C11.229 0.0719929 10.976 0.0126169 10.0983 0.00298838C8.9713 -0.00984967 8.0181 0.00700029 7.47828 0.293449C7.11888 0.484415 6.84158 0.909676 7.01092 0.933747C7.21945 0.964238 7.69199 1.07176 7.94267 1.44165C8.26657 1.91987 8.25474 2.99185 8.25474 2.99185C8.25474 2.99185 8.44109 5.94701 7.82066 6.3145C7.39545 6.56644 6.81126 6.05212 5.55783 3.70195C4.91595 2.49838 4.43085 1.16724 4.43085 1.16724C4.43085 1.16724 4.33768 0.918502 4.17055 0.785307C3.96793 0.624029 3.68545 0.572677 3.68545 0.572677L0.684611 0.596748C0.684611 0.596748 0.234264 0.610389 0.0686185 0.823019C-0.0785394 1.01238 0.0567867 1.40314 0.0567867 1.40314C0.0567867 1.40314 2.40614 7.36641 5.06607 10.3721C7.5049 13.1275 10.2743 12.9462 10.2743 12.9462Z" fill="#F4F7F6"/>
</svg>
