<svg version="1.1" fill="#131313" xmlns="http://www.w3.org/2000/svg" xmlns:xlink="http://www.w3.org/1999/xlink" x="0px" y="0px" width="100%" height="100%" viewBox="0 0 292.4 438.5" xml:space="preserve">
<path d="M249.5,42.8C221,14.3,186.5,0,146.2,0C105.8,0,71.4,14.3,42.8,42.8C14.3,71.4,0,105.8,0,146.2c0,20.7,3.1,37.8,9.4,51.1
	l104.2,221c2.9,6.3,7.3,11.2,13.3,14.8c6,3.6,12.4,5.4,19.3,5.4c6.9,0,13.3-1.8,19.3-5.4c6-3.6,10.5-8.6,13.6-14.8l103.9-221
	c6.3-13.3,9.4-30.4,9.4-51.1C292.4,105.8,278.1,71.4,249.5,42.8z M197.9,197.9c-14.3,14.3-31.5,21.4-51.7,21.4s-37.4-7.1-51.7-21.4
	c-14.3-14.3-21.4-31.5-21.4-51.7c0-20.2,7.1-37.4,21.4-51.7c14.3-14.3,31.5-21.4,51.7-21.4c20.2,0,37.4,7.1,51.7,21.4
	c14.3,14.3,21.4,31.5,21.4,51.7S212.1,183.6,197.9,197.9z"/>
</svg>
